{"glyphs":{"0":{"ha":680,"x_min":63,"x_max":616,"o":"m 340 929 q 490 876 429 929 q 584 718 552 822 q 616 465 616 614 q 584 207 616 315 q 490 41 552 98 q 340 -17 428 -17 q 190 41 252 -17 q 95 207 127 98 q 63 465 63 315 q 95 718 63 614 q 189 876 127 822 q 340 929 251 929 m 340 854 q 203 757 252 854 q 155 465 155 661 q 177 242 155 334 q 241 105 199 151 q 340 59 282 59 q 439 105 397 59 q 503 242 480 151 q 525 465 525 334 q 476 757 525 661 q 340 854 428 854 z "},"1":{"ha":680,"x_min":113,"x_max":597,"o":"m 317 78 l 317 800 l 157 790 l 157 853 q 338 915 266 872 l 410 915 l 410 78 l 597 78 l 597 0 l 113 0 l 113 78 l 317 78 z "},"2":{"ha":680,"x_min":51,"x_max":617,"o":"m 481 670 q 436 803 481 752 q 302 853 391 853 q 197 824 247 853 q 106 745 147 795 l 51 800 q 171 896 109 863 q 313 929 233 929 q 452 898 393 929 q 541 809 510 867 q 572 675 572 752 q 526 499 572 591 q 399 306 480 407 q 193 73 318 205 l 207 74 q 341 81 296 81 l 617 81 l 617 0 l 56 0 l 56 56 q 295 312 203 203 q 434 509 387 420 q 481 670 481 597 z "},"3":{"ha":680,"x_min":37,"x_max":608,"o":"m 321 61 q 421 83 377 61 q 489 145 465 104 q 514 240 514 186 q 220 429 514 429 l 220 503 q 372 529 313 503 q 456 599 431 555 q 482 696 482 643 q 438 812 482 771 q 319 853 395 853 q 214 829 263 853 q 124 763 165 805 l 73 823 q 322 929 185 929 q 456 902 399 929 q 546 823 514 874 q 577 702 577 771 q 532 559 577 621 q 413 471 487 498 l 413 466 q 512 424 468 454 q 583 346 557 393 q 608 238 608 298 q 572 104 608 162 q 471 15 535 46 q 326 -17 406 -17 q 159 18 229 -17 q 37 109 90 52 l 87 170 q 189 91 134 120 q 321 61 245 61 z "},"4":{"ha":680,"x_min":23,"x_max":640,"o":"m 514 253 l 514 0 l 426 0 l 426 253 l 23 253 l 23 312 l 416 916 l 514 916 l 514 329 l 640 329 l 640 253 l 514 253 m 426 642 q 432 806 426 705 l 427 806 q 383 733 413 781 q 354 686 361 698 l 125 329 l 426 329 l 426 642 z "},"5":{"ha":680,"x_min":39,"x_max":614,"o":"m 314 61 q 417 90 370 61 q 492 170 465 118 q 519 287 519 221 q 495 402 519 352 q 426 480 471 452 q 319 508 380 508 q 240 495 274 508 q 162 452 207 481 l 109 485 l 138 916 l 568 916 l 568 835 l 220 835 l 195 541 q 264 570 230 560 q 340 581 298 581 q 480 547 418 581 q 578 449 542 514 q 614 290 614 383 q 573 126 614 196 q 465 20 532 57 q 321 -17 397 -17 q 158 15 224 -17 q 39 102 92 47 l 85 163 q 185 88 133 115 q 314 61 238 61 z "},"6":{"ha":680,"x_min":68,"x_max":623,"o":"m 404 850 q 229 755 296 850 q 159 447 161 661 q 259 531 202 500 q 372 562 315 562 q 556 487 490 562 q 623 269 623 412 q 588 122 623 188 q 495 20 553 57 q 368 -17 437 -17 q 212 36 280 -17 q 106 188 144 88 q 68 427 68 288 q 114 714 68 602 q 235 878 159 827 q 402 929 310 929 q 605 844 527 929 l 552 785 q 487 834 525 818 q 404 850 448 850 m 358 489 q 258 459 310 489 q 161 368 206 430 q 224 142 171 226 q 369 58 277 58 q 453 86 415 58 q 512 161 490 113 q 533 269 533 210 q 489 431 533 373 q 358 489 446 489 z "},"7":{"ha":680,"x_min":61,"x_max":622,"o":"m 61 835 l 61 916 l 622 916 l 622 859 q 462 595 519 725 q 380 326 405 465 q 349 0 356 186 l 252 0 q 286 317 258 174 q 370 585 315 459 q 513 835 425 711 l 61 835 z "},"8":{"ha":680,"x_min":56,"x_max":623,"o":"m 225 492 q 137 582 171 529 q 102 701 102 635 q 134 819 102 767 q 220 900 165 871 q 348 929 276 929 q 478 899 423 929 q 563 814 534 868 q 592 692 592 761 q 573 605 592 648 q 526 525 554 561 q 468 467 497 490 l 468 460 q 623 223 623 370 q 589 102 623 157 q 492 15 555 47 q 343 -17 429 -17 q 197 16 262 -17 q 94 106 131 49 q 56 233 56 163 q 80 338 56 288 q 143 425 104 387 q 225 486 181 463 l 225 492 m 347 859 q 263 838 299 859 q 209 782 228 818 q 190 701 190 747 q 218 609 190 648 q 293 544 247 570 q 407 492 340 517 q 483 586 456 534 q 509 689 509 637 q 490 774 509 736 q 434 836 471 813 q 347 859 397 859 m 532 226 q 498 325 532 283 q 412 395 464 367 q 277 456 360 423 q 179 361 216 418 q 142 240 142 304 q 169 146 142 189 q 242 79 195 104 q 345 54 288 54 q 446 77 404 54 q 510 139 488 100 q 532 226 532 178 z "},"9":{"ha":680,"x_min":57,"x_max":610,"o":"m 306 61 q 464 154 409 61 q 522 459 519 248 q 424 376 482 406 q 307 346 366 346 q 174 382 231 346 q 87 485 117 418 q 57 642 57 551 q 93 788 57 722 q 189 891 129 854 q 317 929 249 929 q 533 818 456 929 q 610 484 610 707 q 529 105 610 228 q 308 -17 449 -17 q 193 5 243 -17 q 100 71 143 26 l 150 130 q 218 80 174 100 q 306 61 262 61 m 317 854 q 231 826 271 854 q 169 749 192 798 q 146 642 146 701 q 165 528 146 578 q 224 448 184 477 q 321 418 263 418 q 422 447 370 418 q 519 538 474 475 q 496 708 519 637 q 427 817 472 779 q 317 854 382 854 z "}," ":{"ha":279,"x_min":0,"x_max":0,"o":""},"A":{"ha":736,"x_min":2,"x_max":734,"o":"m 194 293 l 98 0 l 2 0 l 317 913 l 420 913 l 734 0 l 634 0 l 539 293 l 194 293 m 465 522 q 370 833 402 718 l 364 833 q 270 522 326 693 l 219 370 l 514 370 l 465 522 z "},"Á":{"ha":736,"x_min":2,"x_max":734,"o":"m 194 293 l 98 0 l 2 0 l 317 913 l 420 913 l 734 0 l 634 0 l 539 293 l 194 293 m 465 522 q 370 833 402 718 l 364 833 q 270 522 326 693 l 219 370 l 514 370 l 465 522 m 330 982 l 454 1135 l 564 1135 l 409 982 l 330 982 z "},"Ă":{"ha":736,"x_min":2,"x_max":734,"o":"m 194 293 l 98 0 l 2 0 l 317 913 l 420 913 l 734 0 l 634 0 l 539 293 l 194 293 m 465 522 q 370 833 402 718 l 364 833 q 270 522 326 693 l 219 370 l 514 370 l 465 522 m 262 1135 q 295 1068 269 1095 q 368 1042 322 1042 q 441 1068 414 1042 q 475 1135 468 1095 l 534 1135 q 511 1062 530 1096 q 456 1006 492 1027 q 368 985 420 985 q 281 1006 317 985 q 226 1062 245 1027 q 202 1135 207 1096 l 262 1135 z "},"Â":{"ha":736,"x_min":2,"x_max":734,"o":"m 194 293 l 98 0 l 2 0 l 317 913 l 420 913 l 734 0 l 634 0 l 539 293 l 194 293 m 465 522 q 370 833 402 718 l 364 833 q 270 522 326 693 l 219 370 l 514 370 l 465 522 m 323 1135 l 413 1135 l 547 982 l 469 982 l 371 1079 l 366 1079 l 268 982 l 190 982 l 323 1135 z "},"Ä":{"ha":736,"x_min":2,"x_max":734,"o":"m 194 293 l 98 0 l 2 0 l 317 913 l 420 913 l 734 0 l 634 0 l 539 293 l 194 293 m 465 522 q 370 833 402 718 l 364 833 q 270 522 326 693 l 219 370 l 514 370 l 465 522 m 253 1120 q 297 1104 279 1120 q 314 1060 314 1087 q 297 1016 314 1033 q 253 999 279 999 q 209 1016 226 999 q 192 1060 192 1033 q 209 1104 192 1087 q 253 1120 226 1120 m 484 1120 q 528 1104 511 1120 q 545 1060 545 1087 q 528 1016 545 1033 q 484 999 511 999 q 440 1016 457 999 q 422 1060 422 1033 q 440 1104 422 1087 q 484 1120 457 1120 z "},"À":{"ha":736,"x_min":2,"x_max":734,"o":"m 194 293 l 98 0 l 2 0 l 317 913 l 420 913 l 734 0 l 634 0 l 539 293 l 194 293 m 465 522 q 370 833 402 718 l 364 833 q 270 522 326 693 l 219 370 l 514 370 l 465 522 m 279 1135 l 404 982 l 324 982 l 169 1135 l 279 1135 z "},"Ā":{"ha":736,"x_min":2,"x_max":734,"o":"m 194 293 l 98 0 l 2 0 l 317 913 l 420 913 l 734 0 l 634 0 l 539 293 l 194 293 m 465 522 q 370 833 402 718 l 364 833 q 270 522 326 693 l 219 370 l 514 370 l 465 522 m 534 1082 l 534 1015 l 202 1015 l 202 1082 l 534 1082 z "},"Ą":{"ha":736,"x_min":2,"x_max":780,"o":"m 677 -290 q 587 -260 622 -290 q 551 -172 551 -229 q 582 -75 551 -121 q 654 0 612 -28 l 634 0 l 539 293 l 194 293 l 98 0 l 2 0 l 317 913 l 420 913 l 734 0 q 657 -67 688 -24 q 627 -154 627 -111 q 646 -203 627 -186 q 692 -221 665 -221 q 725 -216 711 -221 q 751 -201 739 -212 l 780 -254 q 731 -280 761 -269 q 677 -290 702 -290 m 465 522 q 370 833 402 718 l 364 833 q 270 522 326 693 l 219 370 l 514 370 l 465 522 z "},"Å":{"ha":736,"x_min":2,"x_max":734,"o":"m 194 293 l 98 0 l 2 0 l 317 913 l 420 913 l 734 0 l 634 0 l 539 293 l 194 293 m 465 522 q 370 833 402 718 l 364 833 q 270 522 326 693 l 219 370 l 514 370 l 465 522 m 368 1209 q 431 1194 403 1209 q 475 1152 458 1179 q 491 1090 491 1125 q 475 1028 491 1055 q 431 986 459 1001 q 368 972 403 972 q 280 1004 314 972 q 245 1090 245 1036 q 261 1153 245 1126 q 305 1194 277 1179 q 368 1209 333 1209 m 368 1164 q 319 1144 338 1164 q 300 1090 300 1124 q 319 1036 300 1055 q 368 1016 338 1016 q 416 1036 397 1016 q 435 1090 435 1056 q 416 1143 435 1123 q 368 1164 396 1164 z "},"Ã":{"ha":736,"x_min":2,"x_max":734,"o":"m 194 293 l 98 0 l 2 0 l 317 913 l 420 913 l 734 0 l 634 0 l 539 293 l 194 293 m 465 522 q 370 833 402 718 l 364 833 q 270 522 326 693 l 219 370 l 514 370 l 465 522 m 229 990 l 176 990 q 210 1091 180 1050 q 286 1131 239 1131 q 333 1120 312 1131 q 382 1089 355 1109 q 419 1065 404 1073 q 451 1057 435 1057 q 487 1077 471 1057 q 507 1131 503 1097 l 561 1131 q 527 1031 556 1072 q 451 990 498 990 q 403 1001 425 990 q 355 1032 382 1012 q 317 1057 333 1048 q 286 1065 302 1065 q 250 1045 265 1065 q 229 990 234 1025 z "},"Æ":{"ha":1126,"x_min":15,"x_max":1064,"o":"m 1064 0 l 559 0 l 559 280 l 260 280 l 112 0 l 15 0 l 505 913 l 1050 913 l 1050 833 l 653 833 l 653 522 l 983 522 l 983 441 l 653 441 l 653 81 l 1064 81 l 1064 0 m 559 836 l 553 836 l 489 713 q 393 529 432 606 l 302 357 l 559 357 l 559 836 z "},"Ǽ":{"ha":1126,"x_min":15,"x_max":1064,"o":"m 1064 0 l 559 0 l 559 280 l 260 280 l 112 0 l 15 0 l 505 913 l 1050 913 l 1050 833 l 653 833 l 653 522 l 983 522 l 983 441 l 653 441 l 653 81 l 1064 81 l 1064 0 m 559 836 l 553 836 l 489 713 q 393 529 432 606 l 302 357 l 559 357 l 559 836 m 569 982 l 694 1135 l 804 1135 l 648 982 l 569 982 z "},"B":{"ha":803,"x_min":125,"x_max":748,"o":"m 390 913 q 614 860 534 913 q 694 692 694 807 q 655 563 694 617 q 534 492 616 509 l 534 486 q 692 419 635 475 q 748 268 748 363 q 706 120 748 180 q 588 30 665 60 q 408 0 511 0 l 125 0 l 125 913 l 390 913 m 601 687 q 545 802 601 766 q 374 837 490 837 l 220 837 l 220 518 l 366 518 q 545 560 490 518 q 601 687 601 602 m 655 271 q 588 404 655 361 q 391 446 522 446 l 220 446 l 220 76 l 391 76 q 587 124 519 76 q 655 271 655 173 z "},"C":{"ha":781,"x_min":69,"x_max":736,"o":"m 714 819 l 660 759 q 469 846 580 846 q 309 800 376 846 q 204 667 241 753 q 167 460 167 580 q 203 250 167 338 q 306 114 239 161 q 463 67 372 67 q 582 93 529 67 q 682 172 634 119 l 736 113 q 613 16 681 50 q 460 -17 545 -17 q 257 39 346 -17 q 119 203 169 96 q 69 457 69 310 q 120 710 69 604 q 260 873 170 817 q 468 929 351 929 q 608 898 544 929 q 714 819 671 867 z "},"Ć":{"ha":781,"x_min":69,"x_max":736,"o":"m 714 819 l 660 759 q 469 846 580 846 q 309 800 376 846 q 204 667 241 753 q 167 460 167 580 q 203 250 167 338 q 306 114 239 161 q 463 67 372 67 q 582 93 529 67 q 682 172 634 119 l 736 113 q 613 16 681 50 q 460 -17 545 -17 q 257 39 346 -17 q 119 203 169 96 q 69 457 69 310 q 120 710 69 604 q 260 873 170 817 q 468 929 351 929 q 608 898 544 929 q 714 819 671 867 m 422 982 l 547 1135 l 656 1135 l 501 982 l 422 982 z "},"Č":{"ha":781,"x_min":69,"x_max":736,"o":"m 714 819 l 660 759 q 469 846 580 846 q 309 800 376 846 q 204 667 241 753 q 167 460 167 580 q 203 250 167 338 q 306 114 239 161 q 463 67 372 67 q 582 93 529 67 q 682 172 634 119 l 736 113 q 613 16 681 50 q 460 -17 545 -17 q 257 39 346 -17 q 119 203 169 96 q 69 457 69 310 q 120 710 69 604 q 260 873 170 817 q 468 929 351 929 q 608 898 544 929 q 714 819 671 867 m 505 982 l 416 982 l 282 1135 l 360 1135 l 458 1038 l 463 1038 l 561 1135 l 639 1135 l 505 982 z "},"Ç":{"ha":781,"x_min":69,"x_max":737,"o":"m 506 -14 l 476 -72 q 537 -107 515 -85 q 559 -170 559 -130 q 506 -254 559 -223 q 369 -293 452 -285 l 359 -242 q 484 -174 484 -225 q 461 -131 484 -146 q 394 -104 439 -115 l 440 -16 q 248 48 332 -10 q 117 212 164 107 q 69 457 69 317 q 120 708 69 601 q 262 872 172 814 q 470 929 353 929 q 608 898 545 929 q 714 818 671 867 l 660 758 q 471 846 578 846 q 310 799 379 846 q 204 664 241 751 q 167 459 167 577 q 203 252 167 340 q 307 115 239 163 q 465 67 374 67 q 583 93 531 67 q 683 173 635 119 l 737 115 q 506 -14 641 1 z "},"Ĉ":{"ha":781,"x_min":69,"x_max":736,"o":"m 714 819 l 660 759 q 469 846 580 846 q 309 800 376 846 q 204 667 241 753 q 167 460 167 580 q 203 250 167 338 q 306 114 239 161 q 463 67 372 67 q 582 93 529 67 q 682 172 634 119 l 736 113 q 613 16 681 50 q 460 -17 545 -17 q 257 39 346 -17 q 119 203 169 96 q 69 457 69 310 q 120 710 69 604 q 260 873 170 817 q 468 929 351 929 q 608 898 544 929 q 714 819 671 867 m 416 1135 l 505 1135 l 639 982 l 561 982 l 463 1079 l 458 1079 l 360 982 l 282 982 l 416 1135 z "},"Ċ":{"ha":781,"x_min":69,"x_max":736,"o":"m 714 819 l 660 759 q 469 846 580 846 q 309 800 376 846 q 204 667 241 753 q 167 460 167 580 q 203 250 167 338 q 306 114 239 161 q 463 67 372 67 q 582 93 529 67 q 682 172 634 119 l 736 113 q 613 16 681 50 q 460 -17 545 -17 q 257 39 346 -17 q 119 203 169 96 q 69 457 69 310 q 120 710 69 604 q 260 873 170 817 q 468 929 351 929 q 608 898 544 929 q 714 819 671 867 m 460 1128 q 510 1110 490 1128 q 530 1063 530 1092 q 510 1015 530 1034 q 460 996 490 996 q 411 1015 431 996 q 391 1063 391 1034 q 411 1110 391 1092 q 460 1128 431 1128 z "},"D":{"ha":842,"x_min":125,"x_max":770,"o":"m 352 913 q 665 796 560 913 q 770 460 770 680 q 723 212 770 315 q 583 54 676 109 q 351 0 489 0 l 125 0 l 125 913 l 352 913 m 673 460 q 592 739 673 642 q 345 835 511 835 l 220 835 l 220 78 l 340 78 q 590 178 507 78 q 673 460 673 278 z "},"Ð":{"ha":868,"x_min":43,"x_max":797,"o":"m 797 460 q 749 214 797 317 q 607 55 701 111 q 376 0 513 0 l 151 0 l 151 452 l 43 452 l 43 510 l 151 510 l 151 913 l 372 913 q 606 859 511 913 q 749 704 701 806 q 797 460 797 603 m 699 460 q 615 737 699 639 q 364 835 531 835 l 245 835 l 245 510 l 464 510 l 464 452 l 245 452 l 245 78 l 364 78 q 615 179 530 78 q 699 460 699 280 z "},"Ď":{"ha":842,"x_min":125,"x_max":770,"o":"m 352 913 q 665 796 560 913 q 770 460 770 680 q 723 212 770 315 q 583 54 676 109 q 351 0 489 0 l 125 0 l 125 913 l 352 913 m 673 460 q 592 739 673 642 q 345 835 511 835 l 220 835 l 220 78 l 340 78 q 590 178 507 78 q 673 460 673 278 m 424 982 l 334 982 l 201 1135 l 279 1135 l 376 1038 l 382 1038 l 479 1135 l 557 1135 l 424 982 z "},"Đ":{"ha":868,"x_min":43,"x_max":797,"o":"m 797 460 q 749 214 797 317 q 607 55 701 111 q 376 0 513 0 l 151 0 l 151 452 l 43 452 l 43 510 l 151 510 l 151 913 l 372 913 q 606 859 511 913 q 749 704 701 806 q 797 460 797 603 m 699 460 q 615 737 699 639 q 364 835 531 835 l 245 835 l 245 510 l 464 510 l 464 452 l 245 452 l 245 78 l 364 78 q 615 179 530 78 q 699 460 699 280 z "},"E":{"ha":716,"x_min":125,"x_max":654,"o":"m 640 913 l 640 833 l 220 833 l 220 522 l 573 522 l 573 441 l 220 441 l 220 81 l 654 81 l 654 0 l 125 0 l 125 913 l 640 913 z "},"É":{"ha":716,"x_min":125,"x_max":654,"o":"m 640 913 l 640 833 l 220 833 l 220 522 l 573 522 l 573 441 l 220 441 l 220 81 l 654 81 l 654 0 l 125 0 l 125 913 l 640 913 m 351 982 l 475 1135 l 585 1135 l 430 982 l 351 982 z "},"Ĕ":{"ha":716,"x_min":125,"x_max":654,"o":"m 640 913 l 640 833 l 220 833 l 220 522 l 573 522 l 573 441 l 220 441 l 220 81 l 654 81 l 654 0 l 125 0 l 125 913 l 640 913 m 283 1135 q 316 1068 290 1095 q 389 1042 343 1042 q 462 1068 435 1042 q 496 1135 489 1095 l 555 1135 q 532 1062 551 1096 q 477 1006 513 1027 q 389 985 441 985 q 302 1006 338 985 q 247 1062 266 1027 q 223 1135 228 1096 l 283 1135 z "},"Ě":{"ha":716,"x_min":125,"x_max":654,"o":"m 640 913 l 640 833 l 220 833 l 220 522 l 573 522 l 573 441 l 220 441 l 220 81 l 654 81 l 654 0 l 125 0 l 125 913 l 640 913 m 434 982 l 345 982 l 211 1135 l 289 1135 l 387 1038 l 392 1038 l 490 1135 l 568 1135 l 434 982 z "},"Ê":{"ha":716,"x_min":125,"x_max":654,"o":"m 640 913 l 640 833 l 220 833 l 220 522 l 573 522 l 573 441 l 220 441 l 220 81 l 654 81 l 654 0 l 125 0 l 125 913 l 640 913 m 345 1135 l 434 1135 l 568 982 l 490 982 l 392 1079 l 387 1079 l 289 982 l 211 982 l 345 1135 z "},"Ë":{"ha":716,"x_min":125,"x_max":654,"o":"m 640 913 l 640 833 l 220 833 l 220 522 l 573 522 l 573 441 l 220 441 l 220 81 l 654 81 l 654 0 l 125 0 l 125 913 l 640 913 m 274 1120 q 318 1104 300 1120 q 335 1060 335 1087 q 318 1016 335 1033 q 274 999 300 999 q 230 1016 247 999 q 213 1060 213 1033 q 230 1104 213 1087 q 274 1120 247 1120 m 505 1120 q 549 1104 532 1120 q 566 1060 566 1087 q 549 1016 566 1033 q 505 999 532 999 q 461 1016 478 999 q 444 1060 444 1033 q 461 1104 444 1087 q 505 1120 478 1120 z "},"Ė":{"ha":716,"x_min":125,"x_max":654,"o":"m 640 913 l 640 833 l 220 833 l 220 522 l 573 522 l 573 441 l 220 441 l 220 81 l 654 81 l 654 0 l 125 0 l 125 913 l 640 913 m 389 1128 q 439 1110 418 1128 q 459 1063 459 1092 q 439 1015 459 1034 q 389 996 419 996 q 339 1015 359 996 q 319 1063 319 1034 q 340 1110 319 1092 q 389 1128 360 1128 z "},"È":{"ha":716,"x_min":125,"x_max":654,"o":"m 640 913 l 640 833 l 220 833 l 220 522 l 573 522 l 573 441 l 220 441 l 220 81 l 654 81 l 654 0 l 125 0 l 125 913 l 640 913 m 300 1135 l 425 982 l 345 982 l 190 1135 l 300 1135 z "},"Ē":{"ha":716,"x_min":125,"x_max":654,"o":"m 640 913 l 640 833 l 220 833 l 220 522 l 573 522 l 573 441 l 220 441 l 220 81 l 654 81 l 654 0 l 125 0 l 125 913 l 640 913 m 555 1082 l 555 1015 l 223 1015 l 223 1082 l 555 1082 z "},"Ę":{"ha":716,"x_min":125,"x_max":674,"o":"m 640 913 l 640 833 l 220 833 l 220 522 l 573 522 l 573 441 l 220 441 l 220 81 l 654 81 l 654 0 l 650 0 q 588 -27 618 -5 q 539 -83 558 -50 q 520 -154 520 -117 q 540 -203 520 -186 q 589 -221 560 -221 q 619 -216 606 -221 q 646 -201 632 -212 l 674 -254 q 626 -280 655 -269 q 572 -290 597 -290 q 481 -260 516 -290 q 446 -172 446 -229 q 475 -74 446 -119 q 548 0 505 -28 l 125 0 l 125 913 l 640 913 z "},"F":{"ha":668,"x_min":125,"x_max":640,"o":"m 640 913 l 640 833 l 220 833 l 220 501 l 575 501 l 575 421 l 220 421 l 220 0 l 125 0 l 125 913 l 640 913 z "},"G":{"ha":842,"x_min":69,"x_max":750,"o":"m 740 822 l 685 762 q 600 824 648 802 q 484 846 551 846 q 315 800 387 846 q 206 668 244 755 q 168 458 168 581 q 204 248 168 336 q 312 114 241 161 q 481 67 382 67 q 585 83 536 67 q 663 127 633 99 l 663 385 l 463 385 l 463 463 l 750 463 l 750 88 q 631 12 704 41 q 472 -17 559 -17 q 262 39 353 -17 q 120 201 171 94 q 69 456 69 308 q 121 713 69 606 q 267 874 174 819 q 484 929 361 929 q 740 822 637 929 z "},"Ğ":{"ha":842,"x_min":69,"x_max":750,"o":"m 740 822 l 685 762 q 600 824 648 802 q 484 846 551 846 q 315 800 387 846 q 206 668 244 755 q 168 458 168 581 q 204 248 168 336 q 312 114 241 161 q 481 67 382 67 q 585 83 536 67 q 663 127 633 99 l 663 385 l 463 385 l 463 463 l 750 463 l 750 88 q 631 12 704 41 q 472 -17 559 -17 q 262 39 353 -17 q 120 201 171 94 q 69 456 69 308 q 121 713 69 606 q 267 874 174 819 q 484 929 361 929 q 740 822 637 929 m 370 1135 q 403 1068 376 1095 q 476 1042 430 1042 q 549 1068 522 1042 q 583 1135 576 1095 l 642 1135 q 618 1062 637 1096 q 564 1006 600 1027 q 476 985 528 985 q 389 1006 425 985 q 334 1062 353 1027 q 310 1135 315 1096 l 370 1135 z "},"Ǧ":{"ha":842,"x_min":69,"x_max":750,"o":"m 740 822 l 685 762 q 600 824 648 802 q 484 846 551 846 q 315 800 387 846 q 206 668 244 755 q 168 458 168 581 q 204 248 168 336 q 312 114 241 161 q 481 67 382 67 q 585 83 536 67 q 663 127 633 99 l 663 385 l 463 385 l 463 463 l 750 463 l 750 88 q 631 12 704 41 q 472 -17 559 -17 q 262 39 353 -17 q 120 201 171 94 q 69 456 69 308 q 121 713 69 606 q 267 874 174 819 q 484 929 361 929 q 740 822 637 929 m 521 982 l 431 982 l 298 1135 l 376 1135 l 473 1038 l 479 1038 l 576 1135 l 654 1135 l 521 982 z "},"Ĝ":{"ha":842,"x_min":69,"x_max":750,"o":"m 740 822 l 685 762 q 600 824 648 802 q 484 846 551 846 q 315 800 387 846 q 206 668 244 755 q 168 458 168 581 q 204 248 168 336 q 312 114 241 161 q 481 67 382 67 q 585 83 536 67 q 663 127 633 99 l 663 385 l 463 385 l 463 463 l 750 463 l 750 88 q 631 12 704 41 q 472 -17 559 -17 q 262 39 353 -17 q 120 201 171 94 q 69 456 69 308 q 121 713 69 606 q 267 874 174 819 q 484 929 361 929 q 740 822 637 929 m 431 1135 l 521 1135 l 654 982 l 576 982 l 479 1079 l 473 1079 l 376 982 l 298 982 l 431 1135 z "},"Ġ":{"ha":842,"x_min":69,"x_max":750,"o":"m 740 822 l 685 762 q 600 824 648 802 q 484 846 551 846 q 315 800 387 846 q 206 668 244 755 q 168 458 168 581 q 204 248 168 336 q 312 114 241 161 q 481 67 382 67 q 585 83 536 67 q 663 127 633 99 l 663 385 l 463 385 l 463 463 l 750 463 l 750 88 q 631 12 704 41 q 472 -17 559 -17 q 262 39 353 -17 q 120 201 171 94 q 69 456 69 308 q 121 713 69 606 q 267 874 174 819 q 484 929 361 929 q 740 822 637 929 m 476 1128 q 526 1110 505 1128 q 546 1063 546 1092 q 526 1015 546 1034 q 476 996 506 996 q 426 1015 446 996 q 406 1063 406 1034 q 427 1110 406 1092 q 476 1128 447 1128 z "},"H":{"ha":890,"x_min":125,"x_max":764,"o":"m 220 913 l 220 523 l 671 523 l 671 913 l 764 913 l 764 0 l 671 0 l 671 441 l 220 441 l 220 0 l 125 0 l 125 913 l 220 913 z "},"Ħ":{"ha":937,"x_min":43,"x_max":894,"o":"m 789 685 l 789 0 l 693 0 l 693 441 l 243 441 l 243 0 l 149 0 l 149 685 l 43 685 l 43 742 l 149 743 l 149 913 l 243 913 l 243 743 l 693 743 l 693 913 l 789 913 l 789 743 l 894 743 l 894 685 l 789 685 m 243 685 l 243 523 l 693 523 l 693 685 l 243 685 z "},"Ĥ":{"ha":890,"x_min":125,"x_max":764,"o":"m 220 913 l 220 523 l 671 523 l 671 913 l 764 913 l 764 0 l 671 0 l 671 441 l 220 441 l 220 0 l 125 0 l 125 913 l 220 913 m 399 1135 l 489 1135 l 623 982 l 545 982 l 447 1079 l 441 1079 l 344 982 l 266 982 l 399 1135 z "},"I":{"ha":344,"x_min":125,"x_max":220,"o":"m 220 913 l 220 0 l 125 0 l 125 913 l 220 913 z "},"Ĳ":{"ha":991,"x_min":125,"x_max":871,"o":"m 220 913 l 220 0 l 125 0 l 125 913 l 220 913 m 624 67 q 740 114 703 67 q 777 266 777 160 l 777 913 l 871 913 l 871 256 q 812 58 871 133 q 630 -17 753 -17 q 487 19 548 -17 q 389 124 427 55 l 456 172 q 530 92 489 117 q 624 67 570 67 z "},"Í":{"ha":344,"x_min":125,"x_max":368,"o":"m 220 913 l 220 0 l 125 0 l 125 913 l 220 913 m 134 982 l 258 1135 l 368 1135 l 213 982 l 134 982 z "},"Î":{"ha":344,"x_min":-6,"x_max":351,"o":"m 220 913 l 220 0 l 125 0 l 125 913 l 220 913 m 127 1135 l 217 1135 l 351 982 l 273 982 l 175 1079 l 170 1079 l 72 982 l -6 982 l 127 1135 z "},"Ï":{"ha":344,"x_min":-4,"x_max":349,"o":"m 220 913 l 220 0 l 125 0 l 125 913 l 220 913 m 57 1120 q 101 1104 83 1120 q 118 1060 118 1087 q 101 1016 118 1033 q 57 999 83 999 q 13 1016 30 999 q -4 1060 -4 1033 q 13 1104 -4 1087 q 57 1120 30 1120 m 288 1120 q 332 1104 315 1120 q 349 1060 349 1087 q 332 1016 349 1033 q 288 999 315 999 q 244 1016 261 999 q 227 1060 227 1033 q 244 1104 227 1087 q 288 1120 261 1120 z "},"İ":{"ha":344,"x_min":102,"x_max":242,"o":"m 220 913 l 220 0 l 125 0 l 125 913 l 220 913 m 172 1128 q 222 1110 201 1128 q 242 1063 242 1092 q 222 1015 242 1034 q 172 996 202 996 q 122 1015 142 996 q 102 1063 102 1034 q 123 1110 102 1092 q 172 1128 143 1128 z "},"Ì":{"ha":344,"x_min":-27,"x_max":220,"o":"m 220 913 l 220 0 l 125 0 l 125 913 l 220 913 m 83 1135 l 208 982 l 128 982 l -27 1135 l 83 1135 z "},"Ī":{"ha":344,"x_min":6,"x_max":338,"o":"m 220 913 l 220 0 l 125 0 l 125 913 l 220 913 m 338 1082 l 338 1015 l 6 1015 l 6 1082 l 338 1082 z "},"Į":{"ha":344,"x_min":56,"x_max":285,"o":"m 220 913 l 220 0 q 154 -75 176 -39 q 132 -154 132 -112 q 152 -203 132 -186 q 199 -221 172 -221 q 230 -216 216 -221 q 256 -201 243 -212 l 285 -254 q 237 -280 266 -269 q 182 -290 208 -290 q 92 -260 127 -290 q 56 -172 56 -229 q 80 -80 56 -120 q 146 0 104 -41 l 125 0 l 125 913 l 220 913 z "},"Ĩ":{"ha":344,"x_min":-20,"x_max":365,"o":"m 220 913 l 220 0 l 125 0 l 125 913 l 220 913 m 33 990 l -20 990 q 14 1091 -16 1050 q 90 1131 43 1131 q 137 1120 116 1131 q 186 1089 159 1109 q 223 1065 208 1073 q 255 1057 239 1057 q 291 1077 275 1057 q 311 1131 307 1097 l 365 1131 q 331 1031 360 1072 q 255 990 302 990 q 207 1001 229 990 q 159 1032 186 1012 q 121 1057 137 1048 q 90 1065 106 1065 q 54 1045 69 1065 q 33 990 38 1025 z "},"J":{"ha":648,"x_min":45,"x_max":527,"o":"m 280 67 q 396 114 359 67 q 433 266 433 160 l 433 913 l 527 913 l 527 256 q 468 58 527 133 q 286 -17 410 -17 q 143 19 204 -17 q 45 124 83 55 l 113 172 q 186 92 145 117 q 280 67 227 67 z "},"Ĵ":{"ha":648,"x_min":45,"x_max":657,"o":"m 280 67 q 396 114 359 67 q 433 266 433 160 l 433 913 l 527 913 l 527 256 q 468 58 527 133 q 286 -17 410 -17 q 143 19 204 -17 q 45 124 83 55 l 113 172 q 186 92 145 117 q 280 67 227 67 m 434 1135 l 524 1135 l 657 982 l 579 982 l 481 1079 l 476 1079 l 378 982 l 300 982 l 434 1135 z "},"K":{"ha":784,"x_min":125,"x_max":779,"o":"m 220 913 l 220 435 l 222 435 l 628 913 l 736 913 l 448 569 l 779 0 l 672 0 l 388 496 l 220 300 l 220 0 l 125 0 l 125 913 l 220 913 z "},"L":{"ha":656,"x_min":125,"x_max":627,"o":"m 220 913 l 220 81 l 627 81 l 627 0 l 125 0 l 125 913 l 220 913 z "},"Ĺ":{"ha":656,"x_min":125,"x_max":627,"o":"m 220 913 l 220 81 l 627 81 l 627 0 l 125 0 l 125 913 l 220 913 m 337 982 l 462 1135 l 572 1135 l 416 982 l 337 982 z "},"Ľ":{"ha":656,"x_min":125,"x_max":627,"o":"m 220 913 l 220 81 l 627 81 l 627 0 l 125 0 l 125 913 l 220 913 m 450 1005 l 519 1005 l 518 930 l 503 714 l 454 714 l 450 1005 z "},"Ŀ":{"ha":656,"x_min":125,"x_max":627,"o":"m 220 913 l 220 81 l 627 81 l 627 0 l 125 0 l 125 913 l 220 913 m 582 447 q 561 392 582 414 q 509 370 539 370 q 457 392 479 370 q 436 447 436 414 q 457 504 436 481 q 509 526 479 526 q 561 504 540 526 q 582 447 582 481 z "},"Ł":{"ha":659,"x_min":14,"x_max":629,"o":"m 629 0 l 127 0 l 127 337 l 14 279 l 14 357 l 127 415 l 127 913 l 222 913 l 222 462 l 488 603 l 488 525 l 222 384 l 222 81 l 629 81 l 629 0 z "},"M":{"ha":990,"x_min":121,"x_max":868,"o":"m 243 913 l 425 404 l 493 211 l 498 211 l 566 404 l 746 913 l 859 913 l 868 0 l 779 0 l 777 543 q 785 803 777 668 l 780 803 l 708 601 l 525 95 l 463 95 l 279 601 l 206 803 l 201 803 q 208 543 208 680 l 208 0 l 121 0 l 129 913 l 243 913 z "},"N":{"ha":884,"x_min":125,"x_max":759,"o":"m 222 913 l 576 311 l 676 124 l 682 124 l 677 192 q 669 405 669 333 l 669 913 l 759 913 l 759 0 l 661 0 l 309 603 l 208 789 l 202 789 l 205 746 q 214 514 214 594 l 214 0 l 125 0 l 125 913 l 222 913 z "},"Ń":{"ha":884,"x_min":125,"x_max":759,"o":"m 222 913 l 576 311 l 676 124 l 682 124 l 677 192 q 669 405 669 333 l 669 913 l 759 913 l 759 0 l 661 0 l 309 603 l 208 789 l 202 789 l 205 746 q 214 514 214 594 l 214 0 l 125 0 l 125 913 l 222 913 m 403 982 l 528 1135 l 637 1135 l 482 982 l 403 982 z "},"Ň":{"ha":884,"x_min":125,"x_max":759,"o":"m 222 913 l 576 311 l 676 124 l 682 124 l 677 192 q 669 405 669 333 l 669 913 l 759 913 l 759 0 l 661 0 l 309 603 l 208 789 l 202 789 l 205 746 q 214 514 214 594 l 214 0 l 125 0 l 125 913 l 222 913 m 486 982 l 397 982 l 263 1135 l 341 1135 l 439 1038 l 444 1038 l 542 1135 l 620 1135 l 486 982 z "},"Ñ":{"ha":884,"x_min":125,"x_max":759,"o":"m 222 913 l 576 311 l 676 124 l 682 124 l 677 192 q 669 405 669 333 l 669 913 l 759 913 l 759 0 l 661 0 l 309 603 l 208 789 l 202 789 l 205 746 q 214 514 214 594 l 214 0 l 125 0 l 125 913 l 222 913 m 302 990 l 249 990 q 283 1091 254 1050 q 359 1131 312 1131 q 407 1120 385 1131 q 455 1089 428 1109 q 493 1065 477 1073 q 524 1057 508 1057 q 560 1077 545 1057 q 581 1131 576 1097 l 634 1131 q 600 1031 629 1072 q 524 990 571 990 q 476 1001 498 990 q 428 1032 455 1012 q 391 1057 406 1048 q 359 1065 375 1065 q 323 1045 338 1065 q 302 990 307 1025 z "},"O":{"ha":907,"x_min":69,"x_max":838,"o":"m 453 929 q 655 873 568 929 q 790 710 742 817 q 838 458 838 604 q 790 205 838 312 q 655 40 742 98 q 453 -17 568 -17 q 251 40 338 -17 q 117 204 164 97 q 69 458 69 312 q 117 710 69 604 q 251 873 164 817 q 453 929 338 929 m 453 846 q 300 799 365 846 q 201 666 236 753 q 167 458 167 578 q 201 250 167 338 q 300 114 236 161 q 453 67 365 67 q 605 114 541 67 q 705 250 670 161 q 740 458 740 338 q 705 666 740 578 q 605 799 670 753 q 453 846 541 846 z "},"Ó":{"ha":907,"x_min":69,"x_max":838,"o":"m 453 929 q 655 873 568 929 q 790 710 742 817 q 838 458 838 604 q 790 205 838 312 q 655 40 742 98 q 453 -17 568 -17 q 251 40 338 -17 q 117 204 164 97 q 69 458 69 312 q 117 710 69 604 q 251 873 164 817 q 453 929 338 929 m 453 846 q 300 799 365 846 q 201 666 236 753 q 167 458 167 578 q 201 250 167 338 q 300 114 236 161 q 453 67 365 67 q 605 114 541 67 q 705 250 670 161 q 740 458 740 338 q 705 666 740 578 q 605 799 670 753 q 453 846 541 846 m 414 982 l 539 1135 l 649 1135 l 494 982 l 414 982 z "},"Ô":{"ha":907,"x_min":69,"x_max":838,"o":"m 453 929 q 655 873 568 929 q 790 710 742 817 q 838 458 838 604 q 790 205 838 312 q 655 40 742 98 q 453 -17 568 -17 q 251 40 338 -17 q 117 204 164 97 q 69 458 69 312 q 117 710 69 604 q 251 873 164 817 q 453 929 338 929 m 453 846 q 300 799 365 846 q 201 666 236 753 q 167 458 167 578 q 201 250 167 338 q 300 114 236 161 q 453 67 365 67 q 605 114 541 67 q 705 250 670 161 q 740 458 740 338 q 705 666 740 578 q 605 799 670 753 q 453 846 541 846 m 408 1135 l 498 1135 l 631 982 l 553 982 l 456 1079 l 450 1079 l 353 982 l 275 982 l 408 1135 z "},"Ö":{"ha":907,"x_min":69,"x_max":838,"o":"m 453 929 q 655 873 568 929 q 790 710 742 817 q 838 458 838 604 q 790 205 838 312 q 655 40 742 98 q 453 -17 568 -17 q 251 40 338 -17 q 117 204 164 97 q 69 458 69 312 q 117 710 69 604 q 251 873 164 817 q 453 929 338 929 m 453 846 q 300 799 365 846 q 201 666 236 753 q 167 458 167 578 q 201 250 167 338 q 300 114 236 161 q 453 67 365 67 q 605 114 541 67 q 705 250 670 161 q 740 458 740 338 q 705 666 740 578 q 605 799 670 753 q 453 846 541 846 m 338 1120 q 381 1104 364 1120 q 399 1060 399 1087 q 381 1016 399 1033 q 338 999 364 999 q 294 1016 311 999 q 277 1060 277 1033 q 294 1104 277 1087 q 338 1120 311 1120 m 568 1120 q 612 1104 595 1120 q 629 1060 629 1087 q 612 1016 629 1033 q 568 999 595 999 q 525 1016 542 999 q 507 1060 507 1033 q 525 1104 507 1087 q 568 1120 542 1120 z "},"Ò":{"ha":907,"x_min":69,"x_max":838,"o":"m 453 929 q 655 873 568 929 q 790 710 742 817 q 838 458 838 604 q 790 205 838 312 q 655 40 742 98 q 453 -17 568 -17 q 251 40 338 -17 q 117 204 164 97 q 69 458 69 312 q 117 710 69 604 q 251 873 164 817 q 453 929 338 929 m 453 846 q 300 799 365 846 q 201 666 236 753 q 167 458 167 578 q 201 250 167 338 q 300 114 236 161 q 453 67 365 67 q 605 114 541 67 q 705 250 670 161 q 740 458 740 338 q 705 666 740 578 q 605 799 670 753 q 453 846 541 846 m 363 1135 l 488 982 l 409 982 l 254 1135 l 363 1135 z "},"Ơ":{"ha":907,"x_min":69,"x_max":838,"o":"m 830 985 q 691 844 830 877 q 800 684 761 782 q 838 460 838 586 q 789 209 838 317 q 653 42 741 100 q 454 -17 566 -17 q 254 42 342 -17 q 118 209 167 100 q 69 460 69 317 q 118 709 69 603 q 254 872 167 815 q 454 929 342 929 q 631 885 553 929 q 723 918 694 895 q 752 979 752 941 q 732 1035 752 1006 l 801 1069 q 830 985 830 1028 m 454 846 q 303 799 368 846 q 202 665 238 752 q 167 460 167 578 q 202 253 167 342 q 303 116 238 164 q 454 67 369 67 q 604 116 539 67 q 704 253 669 164 q 740 460 740 342 q 704 665 740 578 q 604 799 669 752 q 454 846 540 846 z "},"Ő":{"ha":907,"x_min":69,"x_max":838,"o":"m 453 929 q 655 873 568 929 q 790 710 742 817 q 838 458 838 604 q 790 205 838 312 q 655 40 742 98 q 453 -17 568 -17 q 251 40 338 -17 q 117 204 164 97 q 69 458 69 312 q 117 710 69 604 q 251 873 164 817 q 453 929 338 929 m 453 846 q 300 799 365 846 q 201 666 236 753 q 167 458 167 578 q 201 250 167 338 q 300 114 236 161 q 453 67 365 67 q 605 114 541 67 q 705 250 670 161 q 740 458 740 338 q 705 666 740 578 q 605 799 670 753 q 453 846 541 846 m 348 1135 l 439 1135 l 326 982 l 256 982 l 348 1135 m 651 1135 l 538 982 l 468 982 l 560 1135 l 651 1135 z "},"Ō":{"ha":907,"x_min":69,"x_max":838,"o":"m 453 929 q 655 873 568 929 q 790 710 742 817 q 838 458 838 604 q 790 205 838 312 q 655 40 742 98 q 453 -17 568 -17 q 251 40 338 -17 q 117 204 164 97 q 69 458 69 312 q 117 710 69 604 q 251 873 164 817 q 453 929 338 929 m 453 846 q 300 799 365 846 q 201 666 236 753 q 167 458 167 578 q 201 250 167 338 q 300 114 236 161 q 453 67 365 67 q 605 114 541 67 q 705 250 670 161 q 740 458 740 338 q 705 666 740 578 q 605 799 670 753 q 453 846 541 846 m 640 -128 l 640 -195 l 307 -195 l 307 -128 l 640 -128 z "},"Ø":{"ha":907,"x_min":68,"x_max":842,"o":"m 838 460 q 789 209 838 317 q 653 42 741 100 q 454 -17 566 -17 q 321 7 383 -17 q 210 77 260 31 l 123 -37 l 68 4 l 163 130 q 94 276 118 193 q 69 460 69 360 q 118 709 69 603 q 254 872 167 815 q 454 929 342 929 q 589 905 526 929 q 701 836 651 881 l 787 951 l 842 909 l 746 783 q 814 641 791 722 q 838 460 838 559 m 454 846 q 303 799 368 846 q 202 665 238 752 q 167 460 167 578 q 181 322 167 386 q 224 209 196 258 l 645 762 q 560 824 608 803 q 454 846 511 846 m 454 67 q 604 116 539 67 q 704 253 669 164 q 740 460 740 342 q 686 704 740 607 l 266 150 q 350 89 302 110 q 454 67 398 67 z "},"Õ":{"ha":907,"x_min":69,"x_max":838,"o":"m 453 929 q 655 873 568 929 q 790 710 742 817 q 838 458 838 604 q 790 205 838 312 q 655 40 742 98 q 453 -17 568 -17 q 251 40 338 -17 q 117 204 164 97 q 69 458 69 312 q 117 710 69 604 q 251 873 164 817 q 453 929 338 929 m 453 846 q 300 799 365 846 q 201 666 236 753 q 167 458 167 578 q 201 250 167 338 q 300 114 236 161 q 453 67 365 67 q 605 114 541 67 q 705 250 670 161 q 740 458 740 338 q 705 666 740 578 q 605 799 670 753 q 453 846 541 846 m 314 990 l 260 990 q 294 1091 265 1050 q 370 1131 323 1131 q 418 1120 397 1131 q 467 1089 439 1109 q 504 1065 489 1073 q 536 1057 519 1057 q 572 1077 556 1057 q 592 1131 587 1097 l 646 1131 q 612 1031 641 1072 q 536 990 583 990 q 488 1001 509 990 q 439 1032 467 1012 q 402 1057 418 1048 q 370 1065 387 1065 q 334 1045 350 1065 q 314 990 319 1025 z "},"Œ":{"ha":1160,"x_min":69,"x_max":1098,"o":"m 1084 913 l 1084 833 l 688 833 l 688 522 l 1018 522 l 1018 441 l 688 441 l 688 81 l 1098 81 l 1098 0 l 507 0 q 269 55 368 0 q 120 214 171 111 q 69 460 69 318 q 120 704 69 602 q 271 859 172 805 q 511 913 370 913 l 1084 913 m 593 78 l 593 835 l 518 835 q 256 737 345 835 q 167 460 167 639 q 206 256 167 342 q 324 124 245 170 q 518 78 403 78 l 593 78 z "},"P":{"ha":781,"x_min":125,"x_max":724,"o":"m 397 913 q 642 851 559 913 q 724 647 724 789 q 639 438 724 509 q 398 366 553 366 l 220 366 l 220 0 l 125 0 l 125 913 l 397 913 m 630 647 q 604 759 630 718 q 524 818 578 800 q 381 836 470 836 l 220 836 l 220 444 l 382 444 q 571 493 513 444 q 630 647 630 543 z "},"Þ":{"ha":798,"x_min":127,"x_max":726,"o":"m 220 913 l 220 756 l 393 756 q 640 694 554 756 q 726 493 726 633 q 637 287 726 356 q 393 218 549 218 l 220 218 l 220 0 l 127 0 l 127 913 l 220 913 m 631 493 q 603 603 631 562 q 521 661 576 643 q 378 678 466 678 l 220 678 l 220 295 l 378 295 q 569 342 507 295 q 631 493 631 390 z "},"Q":{"ha":907,"x_min":68,"x_max":850,"o":"m 723 -222 q 522 -165 605 -222 q 404 -14 439 -109 q 228 59 304 -1 q 110 223 152 120 q 68 460 68 326 q 116 711 68 606 q 250 873 163 817 q 452 929 337 929 q 654 873 567 929 q 789 711 741 817 q 838 460 838 605 q 796 225 838 327 q 680 62 755 123 q 507 -13 606 1 q 592 -109 532 -75 q 732 -142 652 -142 q 831 -128 782 -142 l 850 -204 q 792 -217 827 -212 q 723 -222 758 -222 m 738 460 q 703 667 738 580 q 604 800 668 753 q 452 846 539 846 q 300 800 364 846 q 201 667 235 753 q 166 460 166 580 q 201 252 166 340 q 300 115 235 163 q 452 67 365 67 q 604 115 539 67 q 703 252 668 163 q 738 460 738 340 z "},"R":{"ha":787,"x_min":125,"x_max":735,"o":"m 400 399 l 220 399 l 220 0 l 125 0 l 125 913 l 407 913 q 633 855 553 913 q 712 664 712 798 q 499 409 712 452 l 735 0 l 627 0 l 400 399 m 390 477 q 561 522 505 477 q 616 664 616 566 q 592 766 616 728 q 517 820 567 804 q 390 836 468 836 l 220 836 l 220 477 l 390 477 z "},"Ŕ":{"ha":787,"x_min":125,"x_max":735,"o":"m 400 399 l 220 399 l 220 0 l 125 0 l 125 913 l 407 913 q 633 855 553 913 q 712 664 712 798 q 499 409 712 452 l 735 0 l 627 0 l 400 399 m 390 477 q 561 522 505 477 q 616 664 616 566 q 592 766 616 728 q 517 820 567 804 q 390 836 468 836 l 220 836 l 220 477 l 390 477 m 342 982 l 467 1135 l 576 1135 l 421 982 l 342 982 z "},"Ř":{"ha":787,"x_min":125,"x_max":735,"o":"m 400 399 l 220 399 l 220 0 l 125 0 l 125 913 l 407 913 q 633 855 553 913 q 712 664 712 798 q 499 409 712 452 l 735 0 l 627 0 l 400 399 m 390 477 q 561 522 505 477 q 616 664 616 566 q 592 766 616 728 q 517 820 567 804 q 390 836 468 836 l 220 836 l 220 477 l 390 477 m 425 982 l 336 982 l 202 1135 l 280 1135 l 378 1038 l 383 1038 l 481 1135 l 559 1135 l 425 982 z "},"S":{"ha":726,"x_min":59,"x_max":675,"o":"m 374 67 q 483 87 437 67 q 554 144 530 107 q 579 229 579 180 q 558 308 579 277 q 506 359 538 339 q 418 404 474 378 l 284 463 q 101 699 101 541 q 138 818 101 766 q 238 900 174 871 q 381 929 302 929 q 528 900 460 929 q 642 822 595 871 l 591 760 q 381 846 505 846 q 284 829 326 846 q 219 780 242 812 q 196 704 196 748 q 218 629 196 660 q 272 578 240 597 q 349 538 303 559 l 482 480 q 583 424 541 454 q 650 347 625 393 q 675 236 675 301 q 638 107 675 165 q 531 16 600 50 q 372 -17 463 -17 q 197 18 276 -17 q 59 115 119 52 l 116 181 q 233 97 167 127 q 374 67 300 67 z "},"Ś":{"ha":726,"x_min":59,"x_max":675,"o":"m 374 67 q 483 87 437 67 q 554 144 530 107 q 579 229 579 180 q 558 308 579 277 q 506 359 538 339 q 418 404 474 378 l 284 463 q 101 699 101 541 q 138 818 101 766 q 238 900 174 871 q 381 929 302 929 q 528 900 460 929 q 642 822 595 871 l 591 760 q 381 846 505 846 q 284 829 326 846 q 219 780 242 812 q 196 704 196 748 q 218 629 196 660 q 272 578 240 597 q 349 538 303 559 l 482 480 q 583 424 541 454 q 650 347 625 393 q 675 236 675 301 q 638 107 675 165 q 531 16 600 50 q 372 -17 463 -17 q 197 18 276 -17 q 59 115 119 52 l 116 181 q 233 97 167 127 q 374 67 300 67 m 343 982 l 468 1135 l 578 1135 l 422 982 l 343 982 z "},"Š":{"ha":726,"x_min":59,"x_max":675,"o":"m 374 67 q 483 87 437 67 q 554 144 530 107 q 579 229 579 180 q 558 308 579 277 q 506 359 538 339 q 418 404 474 378 l 284 463 q 101 699 101 541 q 138 818 101 766 q 238 900 174 871 q 381 929 302 929 q 528 900 460 929 q 642 822 595 871 l 591 760 q 381 846 505 846 q 284 829 326 846 q 219 780 242 812 q 196 704 196 748 q 218 629 196 660 q 272 578 240 597 q 349 538 303 559 l 482 480 q 583 424 541 454 q 650 347 625 393 q 675 236 675 301 q 638 107 675 165 q 531 16 600 50 q 372 -17 463 -17 q 197 18 276 -17 q 59 115 119 52 l 116 181 q 233 97 167 127 q 374 67 300 67 m 427 982 l 337 982 l 203 1135 l 281 1135 l 379 1038 l 385 1038 l 482 1135 l 560 1135 l 427 982 z "},"Ŝ":{"ha":726,"x_min":59,"x_max":675,"o":"m 374 67 q 483 87 437 67 q 554 144 530 107 q 579 229 579 180 q 558 308 579 277 q 506 359 538 339 q 418 404 474 378 l 284 463 q 101 699 101 541 q 138 818 101 766 q 238 900 174 871 q 381 929 302 929 q 528 900 460 929 q 642 822 595 871 l 591 760 q 381 846 505 846 q 284 829 326 846 q 219 780 242 812 q 196 704 196 748 q 218 629 196 660 q 272 578 240 597 q 349 538 303 559 l 482 480 q 583 424 541 454 q 650 347 625 393 q 675 236 675 301 q 638 107 675 165 q 531 16 600 50 q 372 -17 463 -17 q 197 18 276 -17 q 59 115 119 52 l 116 181 q 233 97 167 127 q 374 67 300 67 m 337 1135 l 427 1135 l 560 982 l 482 982 l 385 1079 l 379 1079 l 281 982 l 203 982 l 337 1135 z "},"ẞ":{"ha":905,"x_min":127,"x_max":848,"o":"m 473 929 q 765 725 679 929 l 563 503 q 848 235 848 451 q 815 106 848 164 q 723 16 783 49 q 589 -17 664 -17 q 448 12 513 -17 q 340 90 383 40 l 395 153 q 482 85 437 107 q 582 64 528 64 q 672 85 634 64 q 730 146 710 107 q 750 235 750 185 q 726 325 750 286 q 640 394 702 363 q 469 442 578 425 l 463 506 l 663 728 q 588 816 636 783 q 470 850 539 850 q 286 778 351 850 q 220 562 220 707 l 220 0 l 127 0 l 127 582 q 165 761 127 683 q 282 884 204 840 q 473 929 360 929 z "},"Ə":{"ha":911,"x_min":87,"x_max":839,"o":"m 462 929 q 662 872 577 929 q 793 709 747 815 q 839 459 839 604 q 791 208 839 316 q 656 42 743 100 q 456 -17 569 -17 q 262 42 346 -17 q 133 208 178 102 q 87 452 87 315 q 90 479 87 464 l 746 479 q 708 676 743 593 q 609 804 673 759 q 457 848 545 848 q 331 825 390 848 q 229 760 272 801 l 183 824 q 304 901 233 872 q 462 929 376 929 m 456 64 q 598 106 536 64 q 698 225 660 148 q 744 405 736 302 l 184 405 q 225 224 190 301 q 321 106 261 147 q 456 64 380 64 z "},"T":{"ha":730,"x_min":35,"x_max":694,"o":"m 35 833 l 35 913 l 694 913 l 694 833 l 412 833 l 412 0 l 318 0 l 318 833 l 35 833 z "},"Ť":{"ha":730,"x_min":35,"x_max":694,"o":"m 35 833 l 35 913 l 694 913 l 694 833 l 412 833 l 412 0 l 318 0 l 318 833 l 35 833 m 410 982 l 320 982 l 186 1135 l 264 1135 l 362 1038 l 368 1038 l 465 1135 l 543 1135 l 410 982 z "},"U":{"ha":882,"x_min":121,"x_max":761,"o":"m 216 913 l 216 363 q 277 136 216 204 q 440 67 338 67 q 608 135 545 67 q 671 363 671 203 l 671 913 l 761 913 l 761 362 q 673 71 761 159 q 440 -17 585 -17 q 208 72 296 -17 q 121 362 121 160 l 121 913 l 216 913 z "},"Ú":{"ha":882,"x_min":121,"x_max":761,"o":"m 216 913 l 216 363 q 277 136 216 204 q 440 67 338 67 q 608 135 545 67 q 671 363 671 203 l 671 913 l 761 913 l 761 362 q 673 71 761 159 q 440 -17 585 -17 q 208 72 296 -17 q 121 362 121 160 l 121 913 l 216 913 m 402 982 l 527 1135 l 637 1135 l 481 982 l 402 982 z "},"Ŭ":{"ha":882,"x_min":121,"x_max":761,"o":"m 216 913 l 216 363 q 277 136 216 204 q 440 67 338 67 q 608 135 545 67 q 671 363 671 203 l 671 913 l 761 913 l 761 362 q 673 71 761 159 q 440 -17 585 -17 q 208 72 296 -17 q 121 362 121 160 l 121 913 l 216 913 m 334 1135 q 368 1068 341 1095 q 441 1042 395 1042 q 514 1068 487 1042 q 547 1135 541 1095 l 607 1135 q 583 1062 602 1096 q 528 1006 564 1027 q 441 985 492 985 q 353 1006 389 985 q 298 1062 317 1027 q 275 1135 279 1096 l 334 1135 z "},"Û":{"ha":882,"x_min":121,"x_max":761,"o":"m 216 913 l 216 363 q 277 136 216 204 q 440 67 338 67 q 608 135 545 67 q 671 363 671 203 l 671 913 l 761 913 l 761 362 q 673 71 761 159 q 440 -17 585 -17 q 208 72 296 -17 q 121 362 121 160 l 121 913 l 216 913 m 396 1135 l 486 1135 l 619 982 l 541 982 l 444 1079 l 438 1079 l 340 982 l 262 982 l 396 1135 z "},"Ü":{"ha":882,"x_min":121,"x_max":761,"o":"m 216 913 l 216 363 q 277 136 216 204 q 440 67 338 67 q 608 135 545 67 q 671 363 671 203 l 671 913 l 761 913 l 761 362 q 673 71 761 159 q 440 -17 585 -17 q 208 72 296 -17 q 121 362 121 160 l 121 913 l 216 913 m 326 1120 q 369 1104 352 1120 q 387 1060 387 1087 q 369 1016 387 1033 q 326 999 352 999 q 281 1016 298 999 q 264 1060 264 1033 q 281 1104 264 1087 q 326 1120 298 1120 m 556 1120 q 600 1104 583 1120 q 617 1060 617 1087 q 600 1016 617 1033 q 556 999 583 999 q 512 1016 530 999 q 495 1060 495 1033 q 512 1104 495 1087 q 556 1120 530 1120 z "},"Ù":{"ha":882,"x_min":121,"x_max":761,"o":"m 216 913 l 216 363 q 277 136 216 204 q 440 67 338 67 q 608 135 545 67 q 671 363 671 203 l 671 913 l 761 913 l 761 362 q 673 71 761 159 q 440 -17 585 -17 q 208 72 296 -17 q 121 362 121 160 l 121 913 l 216 913 m 351 1135 l 476 982 l 397 982 l 241 1135 l 351 1135 z "},"Ư":{"ha":899,"x_min":121,"x_max":909,"o":"m 909 1013 q 761 869 909 901 l 761 366 q 673 73 761 163 q 440 -17 585 -17 q 208 73 296 -17 q 121 366 121 163 l 121 913 l 216 913 l 216 368 q 277 137 216 207 q 440 67 338 67 q 608 137 545 67 q 671 368 671 207 l 671 913 l 707 913 q 800 943 769 922 q 830 1007 830 964 q 809 1063 830 1033 l 878 1097 q 909 1013 909 1054 z "},"Ű":{"ha":882,"x_min":121,"x_max":761,"o":"m 216 913 l 216 363 q 277 136 216 204 q 440 67 338 67 q 608 135 545 67 q 671 363 671 203 l 671 913 l 761 913 l 761 362 q 673 71 761 159 q 440 -17 585 -17 q 208 72 296 -17 q 121 362 121 160 l 121 913 l 216 913 m 363 1135 l 454 1135 l 340 982 l 271 982 l 363 1135 m 666 1135 l 553 982 l 483 982 l 575 1135 l 666 1135 z "},"Ū":{"ha":882,"x_min":121,"x_max":761,"o":"m 216 913 l 216 363 q 277 136 216 204 q 440 67 338 67 q 608 135 545 67 q 671 363 671 203 l 671 913 l 761 913 l 761 362 q 673 71 761 159 q 440 -17 585 -17 q 208 72 296 -17 q 121 362 121 160 l 121 913 l 216 913 m 607 1082 l 607 1015 l 275 1015 l 275 1082 l 607 1082 z "},"Ų":{"ha":882,"x_min":121,"x_max":761,"o":"m 216 913 l 216 368 q 277 137 216 207 q 440 67 338 67 q 608 137 545 67 q 671 368 671 207 l 671 913 l 761 913 l 761 366 q 733 179 761 251 q 660 65 706 106 q 541 -10 613 24 q 458 -77 489 -36 q 428 -154 428 -117 q 448 -203 428 -186 q 496 -221 469 -221 q 527 -216 513 -221 q 553 -201 541 -212 l 582 -254 q 533 -280 563 -269 q 479 -290 504 -290 q 389 -259 425 -290 q 353 -172 353 -229 q 367 -110 353 -138 q 394 -66 380 -83 q 442 -16 409 -50 q 207 76 292 -14 q 121 366 121 167 l 121 913 l 216 913 z "},"Ů":{"ha":882,"x_min":121,"x_max":761,"o":"m 216 913 l 216 363 q 277 136 216 204 q 440 67 338 67 q 608 135 545 67 q 671 363 671 203 l 671 913 l 761 913 l 761 362 q 673 71 761 159 q 440 -17 585 -17 q 208 72 296 -17 q 121 362 121 160 l 121 913 l 216 913 m 441 1209 q 503 1194 475 1209 q 547 1152 531 1179 q 564 1090 564 1125 q 548 1028 564 1055 q 504 986 532 1001 q 441 972 475 972 q 352 1004 387 972 q 318 1090 318 1036 q 334 1153 318 1126 q 377 1194 349 1179 q 441 1209 406 1209 m 441 1164 q 392 1144 411 1164 q 372 1090 372 1124 q 392 1036 372 1055 q 441 1016 411 1016 q 489 1036 469 1016 q 508 1090 508 1056 q 488 1143 508 1123 q 441 1164 469 1164 z "},"Ũ":{"ha":882,"x_min":121,"x_max":761,"o":"m 216 913 l 216 363 q 277 136 216 204 q 440 67 338 67 q 608 135 545 67 q 671 363 671 203 l 671 913 l 761 913 l 761 362 q 673 71 761 159 q 440 -17 585 -17 q 208 72 296 -17 q 121 362 121 160 l 121 913 l 216 913 m 302 990 l 248 990 q 282 1091 253 1050 q 358 1131 311 1131 q 406 1120 385 1131 q 454 1089 427 1109 q 492 1065 477 1073 q 524 1057 507 1057 q 559 1077 544 1057 q 580 1131 575 1097 l 633 1131 q 600 1031 629 1072 q 524 990 570 990 q 476 1001 497 990 q 427 1032 454 1012 q 390 1057 406 1048 q 358 1065 374 1065 q 322 1045 338 1065 q 302 990 307 1025 z "},"V":{"ha":693,"x_min":-1,"x_max":694,"o":"m 99 913 l 255 404 l 290 288 q 347 100 319 186 l 352 100 q 422 332 373 165 q 443 404 432 367 l 599 913 l 694 913 l 402 0 l 294 0 l -1 913 l 99 913 z "},"W":{"ha":1074,"x_min":30,"x_max":1042,"o":"m 129 913 l 231 399 q 290 103 254 291 l 295 103 q 361 399 317 208 l 495 913 l 584 913 l 718 399 l 738 310 q 785 103 754 241 l 791 103 q 846 399 822 264 l 950 913 l 1042 913 l 846 0 l 735 0 l 585 581 l 569 653 q 540 788 553 726 l 534 788 q 504 654 522 729 q 487 581 484 564 l 340 0 l 229 0 l 30 913 l 129 913 z "},"Ẃ":{"ha":1074,"x_min":30,"x_max":1042,"o":"m 129 913 l 231 399 q 290 103 254 291 l 295 103 q 361 399 317 208 l 495 913 l 584 913 l 718 399 l 738 310 q 785 103 754 241 l 791 103 q 846 399 822 264 l 950 913 l 1042 913 l 846 0 l 735 0 l 585 581 l 569 653 q 540 788 553 726 l 534 788 q 504 654 522 729 q 487 581 484 564 l 340 0 l 229 0 l 30 913 l 129 913 m 497 982 l 622 1135 l 732 1135 l 576 982 l 497 982 z "},"Ŵ":{"ha":1074,"x_min":30,"x_max":1042,"o":"m 129 913 l 231 399 q 290 103 254 291 l 295 103 q 361 399 317 208 l 495 913 l 584 913 l 718 399 l 738 310 q 785 103 754 241 l 791 103 q 846 399 822 264 l 950 913 l 1042 913 l 846 0 l 735 0 l 585 581 l 569 653 q 540 788 553 726 l 534 788 q 504 654 522 729 q 487 581 484 564 l 340 0 l 229 0 l 30 913 l 129 913 m 491 1135 l 581 1135 l 714 982 l 636 982 l 538 1079 l 533 1079 l 435 982 l 357 982 l 491 1135 z "},"Ẅ":{"ha":1074,"x_min":30,"x_max":1042,"o":"m 129 913 l 231 399 q 290 103 254 291 l 295 103 q 361 399 317 208 l 495 913 l 584 913 l 718 399 l 738 310 q 785 103 754 241 l 791 103 q 846 399 822 264 l 950 913 l 1042 913 l 846 0 l 735 0 l 585 581 l 569 653 q 540 788 553 726 l 534 788 q 504 654 522 729 q 487 581 484 564 l 340 0 l 229 0 l 30 913 l 129 913 m 420 1120 q 464 1104 447 1120 q 481 1060 481 1087 q 464 1016 481 1033 q 420 999 447 999 q 376 1016 393 999 q 359 1060 359 1033 q 376 1104 359 1087 q 420 1120 393 1120 m 651 1120 q 695 1104 678 1120 q 712 1060 712 1087 q 695 1016 712 1033 q 651 999 678 999 q 607 1016 625 999 q 590 1060 590 1033 q 607 1104 590 1087 q 651 1120 625 1120 z "},"Ẁ":{"ha":1074,"x_min":30,"x_max":1042,"o":"m 129 913 l 231 399 q 290 103 254 291 l 295 103 q 361 399 317 208 l 495 913 l 584 913 l 718 399 l 738 310 q 785 103 754 241 l 791 103 q 846 399 822 264 l 950 913 l 1042 913 l 846 0 l 735 0 l 585 581 l 569 653 q 540 788 553 726 l 534 788 q 504 654 522 729 q 487 581 484 564 l 340 0 l 229 0 l 30 913 l 129 913 m 446 1135 l 571 982 l 492 982 l 336 1135 l 446 1135 z "},"X":{"ha":687,"x_min":19,"x_max":669,"o":"m 36 913 l 140 913 l 275 665 l 297 625 q 347 536 332 561 l 353 536 q 418 665 395 621 l 551 913 l 650 913 l 400 467 l 669 0 l 565 0 l 420 260 l 374 344 l 340 406 l 334 406 q 259 260 300 337 l 117 0 l 19 0 l 288 472 l 36 913 z "},"Y":{"ha":637,"x_min":-4,"x_max":640,"o":"m -4 913 l 98 913 l 224 644 q 315 446 273 534 l 321 446 l 355 515 q 416 644 397 600 l 543 913 l 640 913 l 366 360 l 366 0 l 271 0 l 271 360 l -4 913 z "},"Ý":{"ha":637,"x_min":-4,"x_max":640,"o":"m -4 913 l 98 913 l 224 644 q 315 446 273 534 l 321 446 l 355 515 q 416 644 397 600 l 543 913 l 640 913 l 366 360 l 366 0 l 271 0 l 271 360 l -4 913 m 279 982 l 404 1135 l 513 1135 l 358 982 l 279 982 z "},"Ŷ":{"ha":637,"x_min":-4,"x_max":640,"o":"m -4 913 l 98 913 l 224 644 q 315 446 273 534 l 321 446 l 355 515 q 416 644 397 600 l 543 913 l 640 913 l 366 360 l 366 0 l 271 0 l 271 360 l -4 913 m 273 1135 l 362 1135 l 496 982 l 418 982 l 320 1079 l 315 1079 l 217 982 l 139 982 l 273 1135 z "},"Ÿ":{"ha":637,"x_min":-4,"x_max":640,"o":"m -4 913 l 98 913 l 224 644 q 315 446 273 534 l 321 446 l 355 515 q 416 644 397 600 l 543 913 l 640 913 l 366 360 l 366 0 l 271 0 l 271 360 l -4 913 m 202 1120 q 246 1104 229 1120 q 263 1060 263 1087 q 246 1016 263 1033 q 202 999 229 999 q 158 1016 175 999 q 141 1060 141 1033 q 158 1104 141 1087 q 202 1120 175 1120 m 433 1120 q 477 1104 460 1120 q 494 1060 494 1087 q 477 1016 494 1033 q 433 999 460 999 q 389 1016 406 999 q 372 1060 372 1033 q 389 1104 372 1087 q 433 1120 406 1120 z "},"Ỳ":{"ha":637,"x_min":-4,"x_max":640,"o":"m -4 913 l 98 913 l 224 644 q 315 446 273 534 l 321 446 l 355 515 q 416 644 397 600 l 543 913 l 640 913 l 366 360 l 366 0 l 271 0 l 271 360 l -4 913 m 228 1135 l 353 982 l 273 982 l 118 1135 l 228 1135 z "},"Z":{"ha":740,"x_min":60,"x_max":682,"o":"m 561 833 l 106 833 l 106 913 l 677 913 l 677 857 l 178 81 l 682 81 l 682 0 l 60 0 l 60 56 l 561 833 z "},"Ź":{"ha":740,"x_min":60,"x_max":682,"o":"m 561 833 l 106 833 l 106 913 l 677 913 l 677 857 l 178 81 l 682 81 l 682 0 l 60 0 l 60 56 l 561 833 m 345 982 l 469 1135 l 579 1135 l 424 982 l 345 982 z "},"Ž":{"ha":740,"x_min":60,"x_max":682,"o":"m 561 833 l 106 833 l 106 913 l 677 913 l 677 857 l 178 81 l 682 81 l 682 0 l 60 0 l 60 56 l 561 833 m 428 982 l 338 982 l 205 1135 l 283 1135 l 380 1038 l 386 1038 l 484 1135 l 562 1135 l 428 982 z "},"Ż":{"ha":740,"x_min":60,"x_max":682,"o":"m 561 833 l 106 833 l 106 913 l 677 913 l 677 857 l 178 81 l 682 81 l 682 0 l 60 0 l 60 56 l 561 833 m 383 1128 q 433 1110 412 1128 q 453 1063 453 1092 q 433 1015 453 1034 q 383 996 413 996 q 333 1015 353 996 q 313 1063 313 1034 q 334 1110 313 1092 q 383 1128 354 1128 z "},"Ģ":{"ha":842,"x_min":69,"x_max":750,"o":"m 740 822 l 685 762 q 600 824 648 802 q 484 846 551 846 q 315 800 387 846 q 206 668 244 755 q 168 458 168 581 q 204 248 168 336 q 312 114 241 161 q 481 67 382 67 q 585 83 536 67 q 663 127 633 99 l 663 385 l 463 385 l 463 463 l 750 463 l 750 88 q 631 12 704 41 q 472 -17 559 -17 q 262 39 353 -17 q 120 201 171 94 q 69 456 69 308 q 121 713 69 606 q 267 874 174 819 q 484 929 361 929 q 740 822 637 929 z "},"Ĭ":{"ha":344,"x_min":6,"x_max":338,"o":"m 220 913 l 220 0 l 125 0 l 125 913 l 220 913 m 66 1135 q 99 1068 73 1095 q 172 1042 126 1042 q 245 1068 218 1042 q 279 1135 272 1095 l 338 1135 q 315 1062 334 1096 q 260 1006 296 1027 q 172 985 224 985 q 85 1006 121 985 q 30 1062 49 1027 q 6 1135 11 1096 l 66 1135 z "},"Ķ":{"ha":784,"x_min":125,"x_max":779,"o":"m 220 913 l 220 435 l 222 435 l 628 913 l 736 913 l 448 569 l 779 0 l 672 0 l 388 496 l 220 300 l 220 0 l 125 0 l 125 913 l 220 913 m 274 -296 l 262 -246 q 388 -180 388 -229 q 368 -138 388 -153 q 315 -116 349 -123 l 336 -68 q 433 -104 402 -79 q 463 -173 463 -128 q 409 -258 463 -227 q 274 -296 355 -288 z "},"Ļ":{"ha":656,"x_min":125,"x_max":627,"o":"m 220 913 l 220 81 l 627 81 l 627 0 l 125 0 l 125 913 l 220 913 z "},"Ņ":{"ha":884,"x_min":125,"x_max":759,"o":"m 222 913 l 576 311 l 676 124 l 682 124 l 677 192 q 669 405 669 333 l 669 913 l 759 913 l 759 0 l 661 0 l 309 603 l 208 789 l 202 789 l 205 746 q 214 514 214 594 l 214 0 l 125 0 l 125 913 l 222 913 z "},"Ŏ":{"ha":907,"x_min":69,"x_max":838,"o":"m 453 929 q 655 873 568 929 q 790 710 742 817 q 838 458 838 604 q 790 205 838 312 q 655 40 742 98 q 453 -17 568 -17 q 251 40 338 -17 q 117 204 164 97 q 69 458 69 312 q 117 710 69 604 q 251 873 164 817 q 453 929 338 929 m 453 846 q 300 799 365 846 q 201 666 236 753 q 167 458 167 578 q 201 250 167 338 q 300 114 236 161 q 453 67 365 67 q 605 114 541 67 q 705 250 670 161 q 740 458 740 338 q 705 666 740 578 q 605 799 670 753 q 453 846 541 846 m 347 1135 q 380 1068 353 1095 q 453 1042 407 1042 q 526 1068 499 1042 q 559 1135 553 1095 l 619 1135 q 595 1062 614 1096 q 541 1006 576 1027 q 453 985 505 985 q 366 1006 401 985 q 311 1062 330 1027 q 287 1135 292 1096 l 347 1135 z "},"Ŗ":{"ha":787,"x_min":125,"x_max":735,"o":"m 400 399 l 220 399 l 220 0 l 125 0 l 125 913 l 407 913 q 633 855 553 913 q 712 664 712 798 q 499 409 712 452 l 735 0 l 627 0 l 400 399 m 390 477 q 561 522 505 477 q 616 664 616 566 q 592 766 616 728 q 517 820 567 804 q 390 836 468 836 l 220 836 l 220 477 l 390 477 z "},"Ş":{"ha":726,"x_min":57,"x_max":675,"o":"m 675 237 q 643 115 675 170 q 549 26 610 60 q 406 -16 488 -9 l 378 -72 q 439 -107 416 -85 q 461 -170 461 -130 q 407 -254 461 -223 q 270 -293 353 -285 l 260 -242 q 386 -174 386 -225 q 363 -131 386 -146 q 296 -104 340 -115 l 342 -16 q 184 25 256 -10 q 57 119 112 60 l 115 185 q 233 99 166 130 q 374 67 300 67 q 483 87 437 67 q 554 145 530 108 q 579 230 579 182 q 559 309 579 278 q 508 359 539 340 q 421 404 477 378 l 288 463 q 155 551 208 497 q 102 694 102 604 q 139 815 102 762 q 239 899 175 869 q 381 929 302 929 q 528 899 460 929 q 644 818 596 868 l 592 756 q 497 822 550 799 q 381 846 444 846 q 285 828 326 846 q 220 777 243 810 q 197 700 197 744 q 220 626 197 656 q 272 578 242 595 q 352 538 302 560 l 486 480 q 586 424 545 454 q 651 348 627 394 q 675 237 675 302 z "},"Ţ":{"ha":730,"x_min":35,"x_max":694,"o":"m 364 -72 q 425 -107 402 -85 q 447 -170 447 -130 q 393 -254 447 -223 q 256 -293 339 -285 l 246 -242 q 372 -174 372 -225 q 349 -131 372 -146 q 283 -104 327 -115 l 336 0 l 318 0 l 318 833 l 35 833 l 35 913 l 694 913 l 694 833 l 412 833 l 412 0 l 400 0 l 364 -72 z "},"Ǆ":{"ha":1554,"x_min":125,"x_max":1497,"o":"m 352 913 q 665 796 560 913 q 770 460 770 680 q 723 212 770 315 q 583 54 676 109 q 351 0 489 0 l 125 0 l 125 913 l 352 913 m 673 460 q 592 739 673 642 q 345 835 511 835 l 220 835 l 220 78 l 340 78 q 590 178 507 78 q 673 460 673 278 m 1375 833 l 920 833 l 920 913 l 1492 913 l 1492 857 l 993 81 l 1497 81 l 1497 0 l 875 0 l 875 56 l 1375 833 m 1242 982 l 1153 982 l 1019 1135 l 1097 1135 l 1195 1038 l 1200 1038 l 1298 1135 l 1376 1135 l 1242 982 z "},"ǅ":{"ha":1415,"x_min":125,"x_max":1379,"o":"m 352 913 q 665 796 560 913 q 770 460 770 680 q 723 212 770 315 q 583 54 676 109 q 351 0 489 0 l 125 0 l 125 913 l 352 913 m 673 460 q 592 739 673 642 q 345 835 511 835 l 220 835 l 220 78 l 340 78 q 590 178 507 78 q 673 460 673 278 m 1250 595 l 919 595 l 919 671 l 1368 671 l 1368 623 l 996 77 l 1379 77 l 1379 0 l 878 0 l 878 50 l 1250 595 m 1028 988 l 1126 857 l 1131 857 l 1229 988 l 1299 988 l 1168 795 l 1089 795 l 959 988 l 1028 988 z "},"Ǉ":{"ha":1303,"x_min":125,"x_max":1183,"o":"m 220 913 l 220 81 l 627 81 l 627 0 l 125 0 l 125 913 l 220 913 m 936 67 q 1052 114 1015 67 q 1088 266 1088 160 l 1088 913 l 1183 913 l 1183 256 q 1124 58 1183 133 q 942 -17 1065 -17 q 799 19 860 -17 q 701 124 739 55 l 768 172 q 842 92 801 117 q 936 67 882 67 z "},"ǈ":{"ha":989,"x_min":125,"x_max":893,"o":"m 220 913 l 220 81 l 627 81 l 627 0 l 125 0 l 125 913 l 220 913 m 824 951 q 873 933 853 951 q 893 885 893 915 q 873 838 893 857 q 824 820 852 820 q 774 838 795 820 q 754 885 754 857 q 774 933 754 915 q 824 951 794 951 m 869 671 l 869 -98 q 828 -255 869 -202 q 699 -308 787 -308 q 604 -291 647 -308 l 625 -220 q 690 -231 659 -231 q 758 -198 740 -231 q 776 -96 776 -164 l 776 671 l 869 671 z "},"Ǌ":{"ha":1532,"x_min":125,"x_max":1411,"o":"m 222 913 l 576 311 l 676 124 l 682 124 l 677 192 q 669 405 669 333 l 669 913 l 759 913 l 759 0 l 661 0 l 309 603 l 208 789 l 202 789 l 205 746 q 214 514 214 594 l 214 0 l 125 0 l 125 913 l 222 913 m 1164 67 q 1280 114 1243 67 q 1317 266 1317 160 l 1317 913 l 1411 913 l 1411 256 q 1353 58 1411 133 q 1171 -17 1294 -17 q 1028 19 1088 -17 q 929 124 967 55 l 997 172 q 1070 92 1029 117 q 1164 67 1111 67 z "},"ǋ":{"ha":1217,"x_min":125,"x_max":1122,"o":"m 222 913 l 576 311 l 676 124 l 682 124 l 677 192 q 669 405 669 333 l 669 913 l 759 913 l 759 0 l 661 0 l 309 603 l 208 789 l 202 789 l 205 746 q 214 514 214 594 l 214 0 l 125 0 l 125 913 l 222 913 m 1053 951 q 1102 933 1082 951 q 1122 885 1122 915 q 1101 838 1122 857 q 1053 820 1081 820 q 1003 838 1023 820 q 983 885 983 857 q 1003 933 983 915 q 1053 951 1023 951 m 1098 671 l 1098 -98 q 1057 -255 1098 -202 q 927 -308 1016 -308 q 833 -291 876 -308 l 853 -220 q 919 -231 888 -231 q 986 -198 968 -231 q 1004 -96 1004 -164 l 1004 671 l 1098 671 z "},"Ǎ":{"ha":736,"x_min":2,"x_max":734,"o":"m 194 293 l 98 0 l 2 0 l 317 913 l 420 913 l 734 0 l 634 0 l 539 293 l 194 293 m 465 522 q 370 833 402 718 l 364 833 q 270 522 326 693 l 219 370 l 514 370 l 465 522 m 413 982 l 323 982 l 190 1135 l 268 1135 l 366 1038 l 371 1038 l 469 1135 l 547 1135 l 413 982 z "},"Ǐ":{"ha":344,"x_min":-6,"x_max":351,"o":"m 220 913 l 220 0 l 125 0 l 125 913 l 220 913 m 217 982 l 127 982 l -6 1135 l 72 1135 l 170 1038 l 175 1038 l 273 1135 l 351 1135 l 217 982 z "},"Ǒ":{"ha":907,"x_min":69,"x_max":838,"o":"m 453 929 q 655 873 568 929 q 790 710 742 817 q 838 458 838 604 q 790 205 838 312 q 655 40 742 98 q 453 -17 568 -17 q 251 40 338 -17 q 117 204 164 97 q 69 458 69 312 q 117 710 69 604 q 251 873 164 817 q 453 929 338 929 m 453 846 q 300 799 365 846 q 201 666 236 753 q 167 458 167 578 q 201 250 167 338 q 300 114 236 161 q 453 67 365 67 q 605 114 541 67 q 705 250 670 161 q 740 458 740 338 q 705 666 740 578 q 605 799 670 753 q 453 846 541 846 m 498 982 l 408 982 l 275 1135 l 353 1135 l 450 1038 l 456 1038 l 553 1135 l 631 1135 l 498 982 z "},"Ǔ":{"ha":882,"x_min":121,"x_max":761,"o":"m 216 913 l 216 363 q 277 136 216 204 q 440 67 338 67 q 608 135 545 67 q 671 363 671 203 l 671 913 l 761 913 l 761 362 q 673 71 761 159 q 440 -17 585 -17 q 208 72 296 -17 q 121 362 121 160 l 121 913 l 216 913 m 486 982 l 396 982 l 262 1135 l 340 1135 l 438 1038 l 444 1038 l 541 1135 l 619 1135 l 486 982 z "},"Ǖ":{"ha":882,"x_min":121,"x_max":761,"o":"m 216 913 l 216 363 q 277 136 216 204 q 440 67 338 67 q 608 135 545 67 q 671 363 671 203 l 671 913 l 761 913 l 761 362 q 673 71 761 159 q 440 -17 585 -17 q 208 72 296 -17 q 121 362 121 160 l 121 913 l 216 913 m 607 1249 l 607 1192 l 275 1192 l 275 1249 l 607 1249 m 326 1114 q 366 1098 350 1114 q 382 1057 382 1082 q 367 1015 382 1031 q 326 999 351 999 q 284 1015 300 999 q 268 1057 268 1031 q 284 1098 268 1082 q 326 1114 301 1114 m 556 1114 q 597 1098 581 1114 q 614 1057 614 1082 q 597 1015 614 1031 q 556 999 581 999 q 515 1015 531 999 q 499 1057 499 1031 q 515 1098 499 1082 q 556 1114 532 1114 z "},"Ǘ":{"ha":882,"x_min":121,"x_max":761,"o":"m 216 913 l 216 363 q 277 136 216 204 q 440 67 338 67 q 608 135 545 67 q 671 363 671 203 l 671 913 l 761 913 l 761 362 q 673 71 761 159 q 440 -17 585 -17 q 208 72 296 -17 q 121 362 121 160 l 121 913 l 216 913 m 607 1311 l 453 1160 l 375 1160 l 502 1311 l 607 1311 m 323 1114 q 363 1098 347 1114 q 380 1057 380 1082 q 364 1015 380 1031 q 323 999 348 999 q 281 1015 298 999 q 265 1057 265 1031 q 282 1098 265 1082 q 323 1114 298 1114 m 553 1114 q 594 1098 578 1114 q 611 1057 611 1082 q 595 1015 611 1031 q 553 999 578 999 q 512 1015 528 999 q 496 1057 496 1031 q 513 1098 496 1082 q 553 1114 529 1114 z "},"Ǚ":{"ha":882,"x_min":121,"x_max":761,"o":"m 216 913 l 216 363 q 277 136 216 204 q 440 67 338 67 q 608 135 545 67 q 671 363 671 203 l 671 913 l 761 913 l 761 362 q 673 71 761 159 q 440 -17 585 -17 q 208 72 296 -17 q 121 362 121 160 l 121 913 l 216 913 m 486 1160 l 396 1160 l 262 1311 l 340 1311 l 438 1214 l 444 1214 l 541 1311 l 619 1311 l 486 1160 m 326 1114 q 366 1098 350 1114 q 382 1057 382 1082 q 367 1015 382 1031 q 326 999 351 999 q 284 1015 300 999 q 268 1057 268 1031 q 284 1098 268 1082 q 326 1114 301 1114 m 556 1114 q 597 1098 581 1114 q 614 1057 614 1082 q 597 1015 614 1031 q 556 999 581 999 q 515 1015 531 999 q 499 1057 499 1031 q 515 1098 499 1082 q 556 1114 532 1114 z "},"Ǜ":{"ha":882,"x_min":121,"x_max":761,"o":"m 216 913 l 216 363 q 277 136 216 204 q 440 67 338 67 q 608 135 545 67 q 671 363 671 203 l 671 913 l 761 913 l 761 362 q 673 71 761 159 q 440 -17 585 -17 q 208 72 296 -17 q 121 362 121 160 l 121 913 l 216 913 m 425 1160 l 271 1311 l 376 1311 l 503 1160 l 425 1160 m 324 1114 q 365 1098 349 1114 q 381 1057 381 1082 q 365 1015 381 1031 q 324 999 349 999 q 283 1015 299 999 q 267 1057 267 1031 q 283 1098 267 1082 q 324 1114 300 1114 m 555 1114 q 596 1098 579 1114 q 612 1057 612 1082 q 596 1015 612 1031 q 555 999 580 999 q 514 1015 530 999 q 498 1057 498 1031 q 514 1098 498 1082 q 555 1114 530 1114 z "},"Ǫ":{"ha":907,"x_min":69,"x_max":838,"o":"m 69 460 q 118 709 69 603 q 254 872 167 815 q 454 929 342 929 q 653 872 566 929 q 789 709 741 815 q 838 460 838 603 q 767 167 838 280 q 555 -10 696 54 q 473 -74 501 -34 q 445 -154 445 -115 q 465 -203 445 -186 q 512 -221 485 -221 q 570 -201 545 -221 l 597 -254 q 549 -280 578 -269 q 496 -290 520 -290 q 405 -260 441 -290 q 370 -172 370 -229 q 392 -89 370 -130 q 454 -16 415 -47 q 251 44 338 -15 q 116 211 163 104 q 69 460 69 319 m 454 846 q 303 799 368 846 q 202 665 238 752 q 167 460 167 578 q 202 253 167 342 q 303 116 238 164 q 454 67 369 67 q 604 116 539 67 q 704 253 669 164 q 740 460 740 342 q 704 665 740 578 q 604 799 669 752 q 454 846 540 846 z "},"Ǳ":{"ha":1554,"x_min":125,"x_max":1497,"o":"m 352 913 q 665 796 560 913 q 770 460 770 680 q 723 212 770 315 q 583 54 676 109 q 351 0 489 0 l 125 0 l 125 913 l 352 913 m 673 460 q 592 739 673 642 q 345 835 511 835 l 220 835 l 220 78 l 340 78 q 590 178 507 78 q 673 460 673 278 m 1375 833 l 920 833 l 920 913 l 1492 913 l 1492 857 l 993 81 l 1497 81 l 1497 0 l 875 0 l 875 56 l 1375 833 z "},"ǲ":{"ha":1415,"x_min":125,"x_max":1379,"o":"m 352 913 q 665 796 560 913 q 770 460 770 680 q 723 212 770 315 q 583 54 676 109 q 351 0 489 0 l 125 0 l 125 913 l 352 913 m 673 460 q 592 739 673 642 q 345 835 511 835 l 220 835 l 220 78 l 340 78 q 590 178 507 78 q 673 460 673 278 m 1250 595 l 919 595 l 919 671 l 1368 671 l 1368 623 l 996 77 l 1379 77 l 1379 0 l 878 0 l 878 50 l 1250 595 z "},"Ș":{"ha":726,"x_min":59,"x_max":675,"o":"m 267 -296 l 256 -246 q 381 -180 381 -229 q 361 -138 381 -153 q 308 -116 342 -123 l 330 -68 q 426 -104 395 -79 q 456 -173 456 -128 q 402 -258 456 -227 q 267 -296 349 -288 m 374 67 q 483 87 437 67 q 554 144 530 107 q 579 229 579 180 q 558 308 579 277 q 506 359 538 339 q 418 404 474 378 l 284 463 q 101 699 101 541 q 138 818 101 766 q 238 900 174 871 q 381 929 302 929 q 528 900 460 929 q 642 822 595 871 l 591 760 q 381 846 505 846 q 284 829 326 846 q 219 780 242 812 q 196 704 196 748 q 218 629 196 660 q 272 578 240 597 q 349 538 303 559 l 482 480 q 583 424 541 454 q 650 347 625 393 q 675 236 675 301 q 638 107 675 165 q 531 16 600 50 q 372 -17 463 -17 q 197 18 276 -17 q 59 115 119 52 l 116 181 q 233 97 167 127 q 374 67 300 67 z "},"Ț":{"ha":730,"x_min":35,"x_max":694,"o":"m 35 833 l 35 913 l 694 913 l 694 833 l 412 833 l 412 0 l 318 0 l 318 833 l 35 833 m 161 -296 l 150 -246 q 275 -180 275 -229 q 256 -138 275 -153 q 202 -116 236 -123 l 224 -68 q 320 -104 290 -79 q 351 -173 351 -128 q 297 -258 351 -227 q 161 -296 243 -288 z "},"Ƀ":{"ha":829,"x_min":43,"x_max":774,"o":"m 774 271 q 732 121 774 182 q 612 30 690 60 q 431 0 535 0 l 151 0 l 151 246 l 43 246 l 43 299 l 151 304 l 151 913 l 412 913 q 638 858 556 913 q 720 692 720 804 q 679 570 720 622 q 560 498 638 519 l 560 493 q 719 421 663 477 q 774 271 774 365 m 390 522 q 571 564 514 522 q 629 688 629 605 q 570 804 629 767 q 395 841 512 841 l 245 841 l 245 522 l 390 522 m 682 274 q 613 412 682 366 q 415 457 545 457 l 245 457 l 245 304 l 464 304 l 464 246 l 245 246 l 245 73 l 415 73 q 612 123 543 73 q 682 274 682 173 z "},"Ḃ":{"ha":803,"x_min":125,"x_max":748,"o":"m 390 913 q 614 860 534 913 q 694 692 694 807 q 655 563 694 617 q 534 492 616 509 l 534 486 q 692 419 635 475 q 748 268 748 363 q 706 120 748 180 q 588 30 665 60 q 408 0 511 0 l 125 0 l 125 913 l 390 913 m 601 687 q 545 802 601 766 q 374 837 490 837 l 220 837 l 220 518 l 366 518 q 545 560 490 518 q 601 687 601 602 m 655 271 q 588 404 655 361 q 391 446 522 446 l 220 446 l 220 76 l 391 76 q 587 124 519 76 q 655 271 655 173 m 385 1128 q 434 1110 414 1128 q 454 1063 454 1092 q 434 1015 454 1034 q 385 996 414 996 q 335 1015 355 996 q 315 1063 315 1034 q 335 1110 315 1092 q 385 1128 355 1128 z "},"Ḋ":{"ha":842,"x_min":125,"x_max":770,"o":"m 352 913 q 665 796 560 913 q 770 460 770 680 q 723 212 770 315 q 583 54 676 109 q 351 0 489 0 l 125 0 l 125 913 l 352 913 m 673 460 q 592 739 673 642 q 345 835 511 835 l 220 835 l 220 78 l 340 78 q 590 178 507 78 q 673 460 673 278 m 379 1128 q 429 1110 408 1128 q 449 1063 449 1092 q 429 1015 449 1034 q 379 996 409 996 q 329 1015 349 996 q 309 1063 309 1034 q 330 1110 309 1092 q 379 1128 350 1128 z "},"Ḍ":{"ha":842,"x_min":125,"x_max":770,"o":"m 352 913 q 665 796 560 913 q 770 460 770 680 q 723 212 770 315 q 583 54 676 109 q 351 0 489 0 l 125 0 l 125 913 l 352 913 m 673 460 q 592 739 673 642 q 345 835 511 835 l 220 835 l 220 78 l 340 78 q 590 178 507 78 q 673 460 673 278 m 379 -84 q 429 -102 408 -84 q 449 -149 449 -121 q 429 -198 449 -179 q 379 -217 409 -217 q 329 -198 349 -217 q 309 -149 309 -179 q 330 -102 309 -121 q 379 -84 350 -84 z "},"Ḏ":{"ha":842,"x_min":125,"x_max":770,"o":"m 352 913 q 665 796 560 913 q 770 460 770 680 q 723 212 770 315 q 583 54 676 109 q 351 0 489 0 l 125 0 l 125 913 l 352 913 m 673 460 q 592 739 673 642 q 345 835 511 835 l 220 835 l 220 78 l 340 78 q 590 178 507 78 q 673 460 673 278 m 545 -111 l 545 -178 l 213 -178 l 213 -111 l 545 -111 z "},"Ḟ":{"ha":668,"x_min":125,"x_max":640,"o":"m 640 913 l 640 833 l 220 833 l 220 501 l 575 501 l 575 421 l 220 421 l 220 0 l 125 0 l 125 913 l 640 913 m 382 1128 q 431 1110 411 1128 q 452 1063 452 1092 q 432 1015 452 1034 q 382 996 412 996 q 332 1015 352 996 q 312 1063 312 1034 q 332 1110 312 1092 q 382 1128 353 1128 z "},"Ḡ":{"ha":842,"x_min":69,"x_max":750,"o":"m 740 822 l 685 762 q 600 824 648 802 q 484 846 551 846 q 315 800 387 846 q 206 668 244 755 q 168 458 168 581 q 204 248 168 336 q 312 114 241 161 q 481 67 382 67 q 585 83 536 67 q 663 127 633 99 l 663 385 l 463 385 l 463 463 l 750 463 l 750 88 q 631 12 704 41 q 472 -17 559 -17 q 262 39 353 -17 q 120 201 171 94 q 69 456 69 308 q 121 713 69 606 q 267 874 174 819 q 484 929 361 929 q 740 822 637 929 m 642 1082 l 642 1015 l 310 1015 l 310 1082 l 642 1082 z "},"Ḥ":{"ha":890,"x_min":125,"x_max":764,"o":"m 220 913 l 220 523 l 671 523 l 671 913 l 764 913 l 764 0 l 671 0 l 671 441 l 220 441 l 220 0 l 125 0 l 125 913 l 220 913 m 445 -146 q 492 -164 473 -146 q 511 -212 511 -183 q 492 -261 511 -242 q 445 -279 473 -279 q 397 -261 416 -279 q 378 -212 378 -242 q 397 -164 378 -183 q 445 -146 416 -146 z "},"Ḫ":{"ha":890,"x_min":125,"x_max":764,"o":"m 220 913 l 220 523 l 671 523 l 671 913 l 764 913 l 764 0 l 671 0 l 671 441 l 220 441 l 220 0 l 125 0 l 125 913 l 220 913 m 334 -113 q 369 -192 340 -159 q 445 -224 397 -224 q 521 -192 493 -224 q 555 -113 549 -159 l 616 -113 q 593 -194 612 -155 q 537 -259 574 -233 q 445 -284 500 -284 q 353 -259 390 -284 q 296 -194 315 -233 q 274 -113 277 -155 l 334 -113 z "},"Ḷ":{"ha":656,"x_min":125,"x_max":627,"o":"m 220 913 l 220 81 l 627 81 l 627 0 l 125 0 l 125 913 l 220 913 m 395 -146 q 441 -164 422 -146 q 460 -212 460 -183 q 442 -261 460 -242 q 395 -279 423 -279 q 347 -261 366 -279 q 328 -212 328 -242 q 347 -164 328 -183 q 395 -146 366 -146 z "},"Ḹ":{"ha":656,"x_min":9,"x_max":627,"o":"m 342 1082 l 342 1015 l 9 1015 l 9 1082 l 342 1082 m 220 913 l 220 81 l 627 81 l 627 0 l 125 0 l 125 913 l 220 913 m 393 -146 q 440 -164 421 -146 q 459 -212 459 -183 q 440 -261 459 -242 q 393 -279 422 -279 q 346 -261 365 -279 q 327 -212 327 -242 q 346 -164 327 -183 q 393 -146 365 -146 z "},"Ḻ":{"ha":656,"x_min":125,"x_max":627,"o":"m 220 913 l 220 81 l 627 81 l 627 0 l 125 0 l 125 913 l 220 913 m 562 -162 l 562 -229 l 229 -229 l 229 -162 l 562 -162 z "},"Ṁ":{"ha":990,"x_min":121,"x_max":868,"o":"m 243 913 l 425 404 l 493 211 l 498 211 l 566 404 l 746 913 l 859 913 l 868 0 l 779 0 l 777 543 q 785 803 777 668 l 780 803 l 708 601 l 525 95 l 463 95 l 279 601 l 206 803 l 201 803 q 208 543 208 680 l 208 0 l 121 0 l 129 913 l 243 913 m 494 1128 q 544 1110 524 1128 q 564 1063 564 1092 q 544 1015 564 1034 q 494 996 524 996 q 445 1015 465 996 q 425 1063 425 1034 q 445 1110 425 1092 q 494 1128 465 1128 z "},"Ṃ":{"ha":990,"x_min":121,"x_max":868,"o":"m 243 913 l 425 404 l 493 211 l 498 211 l 566 404 l 746 913 l 859 913 l 868 0 l 779 0 l 777 543 q 785 803 777 668 l 780 803 l 708 601 l 525 95 l 463 95 l 279 601 l 206 803 l 201 803 q 208 543 208 680 l 208 0 l 121 0 l 129 913 l 243 913 m 497 -146 q 544 -164 525 -146 q 563 -212 563 -183 q 544 -261 563 -242 q 497 -279 526 -279 q 450 -261 469 -279 q 431 -212 431 -242 q 450 -164 431 -183 q 497 -146 469 -146 z "},"Ṅ":{"ha":884,"x_min":125,"x_max":759,"o":"m 222 913 l 576 311 l 676 124 l 682 124 l 677 192 q 669 405 669 333 l 669 913 l 759 913 l 759 0 l 661 0 l 309 603 l 208 789 l 202 789 l 205 746 q 214 514 214 594 l 214 0 l 125 0 l 125 913 l 222 913 m 441 1128 q 491 1110 471 1128 q 511 1063 511 1092 q 491 1015 511 1034 q 441 996 471 996 q 392 1015 412 996 q 372 1063 372 1034 q 392 1110 372 1092 q 441 1128 412 1128 z "},"Ṇ":{"ha":884,"x_min":125,"x_max":759,"o":"m 222 913 l 576 311 l 676 124 l 682 124 l 677 192 q 669 405 669 333 l 669 913 l 759 913 l 759 0 l 661 0 l 309 603 l 208 789 l 202 789 l 205 746 q 214 514 214 594 l 214 0 l 125 0 l 125 913 l 222 913 m 446 -146 q 493 -164 474 -146 q 512 -212 512 -183 q 493 -261 512 -242 q 446 -279 475 -279 q 399 -261 418 -279 q 380 -212 380 -242 q 399 -164 380 -183 q 446 -146 418 -146 z "},"Ṉ":{"ha":884,"x_min":125,"x_max":759,"o":"m 222 913 l 576 311 l 676 124 l 682 124 l 677 192 q 669 405 669 333 l 669 913 l 759 913 l 759 0 l 661 0 l 309 603 l 208 789 l 202 789 l 205 746 q 214 514 214 594 l 214 0 l 125 0 l 125 913 l 222 913 m 611 -162 l 611 -229 l 279 -229 l 279 -162 l 611 -162 z "},"Ṛ":{"ha":787,"x_min":125,"x_max":735,"o":"m 400 399 l 220 399 l 220 0 l 125 0 l 125 913 l 407 913 q 633 855 553 913 q 712 664 712 798 q 499 409 712 452 l 735 0 l 627 0 l 400 399 m 390 477 q 561 522 505 477 q 616 664 616 566 q 592 766 616 728 q 517 820 567 804 q 390 836 468 836 l 220 836 l 220 477 l 390 477 m 381 -156 q 428 -175 409 -156 q 447 -222 447 -193 q 428 -271 447 -252 q 381 -290 410 -290 q 334 -271 353 -290 q 315 -222 315 -252 q 334 -175 315 -193 q 381 -156 353 -156 z "},"Ṝ":{"ha":787,"x_min":125,"x_max":735,"o":"m 400 399 l 220 399 l 220 0 l 125 0 l 125 913 l 407 913 q 633 855 553 913 q 712 664 712 798 q 499 409 712 452 l 735 0 l 627 0 l 400 399 m 390 477 q 561 522 505 477 q 616 664 616 566 q 592 766 616 728 q 517 820 567 804 q 390 836 468 836 l 220 836 l 220 477 l 390 477 m 547 1082 l 547 1015 l 214 1015 l 214 1082 l 547 1082 m 381 -156 q 428 -175 409 -156 q 447 -222 447 -193 q 428 -271 447 -252 q 381 -290 410 -290 q 334 -271 353 -290 q 315 -222 315 -252 q 334 -175 315 -193 q 381 -156 353 -156 z "},"Ṟ":{"ha":787,"x_min":125,"x_max":735,"o":"m 400 399 l 220 399 l 220 0 l 125 0 l 125 913 l 407 913 q 633 855 553 913 q 712 664 712 798 q 499 409 712 452 l 735 0 l 627 0 l 400 399 m 390 477 q 561 522 505 477 q 616 664 616 566 q 592 766 616 728 q 517 820 567 804 q 390 836 468 836 l 220 836 l 220 477 l 390 477 m 547 -170 l 547 -237 l 214 -237 l 214 -170 l 547 -170 z "},"Ṡ":{"ha":726,"x_min":59,"x_max":675,"o":"m 374 67 q 483 87 437 67 q 554 144 530 107 q 579 229 579 180 q 558 308 579 277 q 506 359 538 339 q 418 404 474 378 l 284 463 q 101 699 101 541 q 138 818 101 766 q 238 900 174 871 q 381 929 302 929 q 528 900 460 929 q 642 822 595 871 l 591 760 q 381 846 505 846 q 284 829 326 846 q 219 780 242 812 q 196 704 196 748 q 218 629 196 660 q 272 578 240 597 q 349 538 303 559 l 482 480 q 583 424 541 454 q 650 347 625 393 q 675 236 675 301 q 638 107 675 165 q 531 16 600 50 q 372 -17 463 -17 q 197 18 276 -17 q 59 115 119 52 l 116 181 q 233 97 167 127 q 374 67 300 67 m 382 1128 q 431 1110 411 1128 q 452 1063 452 1092 q 432 1015 452 1034 q 382 996 412 996 q 332 1015 352 996 q 312 1063 312 1034 q 332 1110 312 1092 q 382 1128 353 1128 z "},"Ṣ":{"ha":726,"x_min":59,"x_max":675,"o":"m 374 67 q 483 87 437 67 q 554 144 530 107 q 579 229 579 180 q 558 308 579 277 q 506 359 538 339 q 418 404 474 378 l 284 463 q 101 699 101 541 q 138 818 101 766 q 238 900 174 871 q 381 929 302 929 q 528 900 460 929 q 642 822 595 871 l 591 760 q 381 846 505 846 q 284 829 326 846 q 219 780 242 812 q 196 704 196 748 q 218 629 196 660 q 272 578 240 597 q 349 538 303 559 l 482 480 q 583 424 541 454 q 650 347 625 393 q 675 236 675 301 q 638 107 675 165 q 531 16 600 50 q 372 -17 463 -17 q 197 18 276 -17 q 59 115 119 52 l 116 181 q 233 97 167 127 q 374 67 300 67 m 374 -112 q 420 -131 401 -112 q 439 -178 439 -149 q 421 -227 439 -208 q 374 -245 402 -245 q 326 -227 345 -245 q 307 -178 307 -208 q 326 -131 307 -149 q 374 -112 345 -112 z "},"Ṫ":{"ha":730,"x_min":35,"x_max":694,"o":"m 35 833 l 35 913 l 694 913 l 694 833 l 412 833 l 412 0 l 318 0 l 318 833 l 35 833 m 365 1128 q 414 1110 394 1128 q 435 1063 435 1092 q 415 1015 435 1034 q 365 996 395 996 q 315 1015 335 996 q 295 1063 295 1034 q 315 1110 295 1092 q 365 1128 336 1128 z "},"Ṭ":{"ha":730,"x_min":35,"x_max":694,"o":"m 35 833 l 35 913 l 694 913 l 694 833 l 412 833 l 412 0 l 318 0 l 318 833 l 35 833 m 365 -112 q 412 -131 393 -112 q 431 -178 431 -149 q 412 -227 431 -208 q 365 -245 393 -245 q 317 -227 336 -245 q 298 -178 298 -208 q 317 -131 298 -149 q 365 -112 336 -112 z "},"Ṯ":{"ha":730,"x_min":35,"x_max":694,"o":"m 35 833 l 35 913 l 694 913 l 694 833 l 412 833 l 412 0 l 318 0 l 318 833 l 35 833 m 533 -121 l 533 -189 l 201 -189 l 201 -121 l 533 -121 z "},"Ẏ":{"ha":637,"x_min":-4,"x_max":640,"o":"m -4 913 l 98 913 l 224 644 q 315 446 273 534 l 321 446 l 355 515 q 416 644 397 600 l 543 913 l 640 913 l 366 360 l 366 0 l 271 0 l 271 360 l -4 913 m 317 1128 q 367 1110 347 1128 q 387 1063 387 1092 q 367 1015 387 1034 q 317 996 347 996 q 268 1015 288 996 q 248 1063 248 1034 q 268 1110 248 1092 q 317 1128 288 1128 z "},"Ẓ":{"ha":740,"x_min":60,"x_max":682,"o":"m 561 833 l 106 833 l 106 913 l 677 913 l 677 857 l 178 81 l 682 81 l 682 0 l 60 0 l 60 56 l 561 833 m 387 -146 q 433 -164 414 -146 q 452 -212 452 -183 q 434 -261 452 -242 q 387 -279 415 -279 q 339 -261 358 -279 q 320 -212 320 -242 q 339 -164 320 -183 q 387 -146 358 -146 z "},"Ạ":{"ha":736,"x_min":2,"x_max":734,"o":"m 734 0 l 634 0 l 539 293 l 194 293 l 98 0 l 2 0 l 304 875 q 302 888 302 883 q 321 935 302 916 q 369 954 340 954 q 416 935 397 954 q 435 888 435 916 q 433 874 435 884 l 734 0 m 514 370 l 465 522 q 374 820 407 703 l 369 820 q 361 821 363 820 q 270 522 326 694 l 219 370 l 514 370 z "},"Ả":{"ha":736,"x_min":2,"x_max":734,"o":"m 194 293 l 98 0 l 2 0 l 317 913 l 420 913 l 734 0 l 634 0 l 539 293 l 194 293 m 465 522 q 370 833 402 718 l 364 833 q 270 522 326 693 l 219 370 l 514 370 l 465 522 m 399 1086 q 283 1149 399 1143 l 293 1206 q 426 1175 378 1202 q 475 1097 475 1148 q 435 1015 475 1044 q 330 972 395 985 l 317 1018 q 378 1045 357 1029 q 399 1086 399 1061 z "},"Ấ":{"ha":736,"x_min":2,"x_max":734,"o":"m 194 293 l 98 0 l 2 0 l 317 913 l 420 913 l 734 0 l 634 0 l 539 293 l 194 293 m 465 522 q 370 833 402 718 l 364 833 q 270 522 326 693 l 219 370 l 514 370 l 465 522 m 671 1221 l 547 1069 l 486 1069 l 585 1221 l 671 1221 m 407 1126 l 534 982 l 460 982 l 369 1071 l 363 1071 l 272 982 l 198 982 l 326 1126 l 407 1126 z "},"Ầ":{"ha":736,"x_min":2,"x_max":734,"o":"m 194 293 l 98 0 l 2 0 l 317 913 l 420 913 l 734 0 l 634 0 l 539 293 l 194 293 m 465 522 q 370 833 402 718 l 364 833 q 270 522 326 693 l 219 370 l 514 370 l 465 522 m 545 1069 l 421 1221 l 507 1221 l 606 1069 l 545 1069 m 410 1126 l 537 982 l 463 982 l 372 1071 l 366 1071 l 275 982 l 201 982 l 328 1126 l 410 1126 z "},"Ẩ":{"ha":736,"x_min":2,"x_max":734,"o":"m 194 293 l 98 0 l 2 0 l 317 913 l 420 913 l 734 0 l 634 0 l 539 293 l 194 293 m 465 522 q 370 833 402 718 l 364 833 q 270 522 326 693 l 219 370 l 514 370 l 465 522 m 569 1147 q 546 1187 569 1175 q 469 1202 522 1200 l 479 1254 q 597 1226 555 1251 q 638 1156 638 1202 q 518 1048 638 1072 l 503 1093 q 552 1113 534 1101 q 569 1147 569 1126 m 406 1126 l 534 982 l 460 982 l 368 1071 l 363 1071 l 271 982 l 197 982 l 325 1126 l 406 1126 z "},"Ẫ":{"ha":736,"x_min":2,"x_max":734,"o":"m 194 293 l 98 0 l 2 0 l 317 913 l 420 913 l 734 0 l 634 0 l 539 293 l 194 293 m 465 522 q 370 833 402 718 l 364 833 q 270 522 326 693 l 219 370 l 514 370 l 465 522 m 378 1259 q 408 1238 395 1245 q 435 1231 421 1231 q 471 1248 456 1231 q 491 1295 486 1265 l 543 1295 q 510 1208 538 1244 q 437 1173 483 1173 q 394 1183 413 1173 q 352 1211 376 1192 q 321 1232 333 1225 q 295 1238 309 1238 q 258 1221 273 1238 q 239 1173 243 1204 l 187 1173 q 219 1260 192 1225 q 292 1295 246 1295 q 335 1286 317 1295 q 378 1259 353 1277 m 324 1126 l 406 1126 l 533 982 l 459 982 l 368 1071 l 362 1071 l 271 982 l 197 982 l 324 1126 z "},"Ậ":{"ha":736,"x_min":2,"x_max":734,"o":"m 268 982 l 190 982 l 323 1135 l 413 1135 l 547 982 l 469 982 l 371 1079 l 366 1079 l 268 982 m 734 0 l 634 0 l 539 293 l 194 293 l 98 0 l 2 0 l 304 875 q 302 888 302 883 q 321 935 302 916 q 369 954 340 954 q 416 935 397 954 q 435 888 435 916 q 433 874 435 884 l 734 0 m 514 370 l 465 522 q 374 820 407 703 l 369 820 q 361 821 363 820 q 270 522 326 694 l 219 370 l 514 370 z "},"Ắ":{"ha":736,"x_min":2,"x_max":734,"o":"m 194 293 l 98 0 l 2 0 l 317 913 l 420 913 l 734 0 l 634 0 l 539 293 l 194 293 m 465 522 q 370 833 402 718 l 364 833 q 270 522 326 693 l 219 370 l 514 370 l 465 522 m 507 1254 l 374 1112 l 315 1112 l 420 1254 l 507 1254 m 257 1130 q 293 1064 266 1089 q 367 1038 319 1038 q 441 1064 414 1038 q 477 1130 468 1089 l 531 1130 q 507 1059 526 1092 q 452 1005 487 1026 q 367 985 416 985 q 282 1005 317 985 q 227 1059 247 1026 q 203 1130 208 1092 l 257 1130 z "},"Ằ":{"ha":736,"x_min":2,"x_max":734,"o":"m 194 293 l 98 0 l 2 0 l 317 913 l 420 913 l 734 0 l 634 0 l 539 293 l 194 293 m 465 522 q 370 833 402 718 l 364 833 q 270 522 326 693 l 219 370 l 514 370 l 465 522 m 360 1112 l 227 1254 l 313 1254 l 419 1112 l 360 1112 m 257 1130 q 293 1064 266 1089 q 367 1038 319 1038 q 441 1064 414 1038 q 477 1130 468 1089 l 531 1130 q 507 1059 526 1092 q 452 1005 487 1026 q 367 985 416 985 q 282 1005 317 985 q 227 1059 247 1026 q 203 1130 208 1092 l 257 1130 z "},"Ẳ":{"ha":736,"x_min":2,"x_max":734,"o":"m 194 293 l 98 0 l 2 0 l 317 913 l 420 913 l 734 0 l 634 0 l 539 293 l 194 293 m 465 522 q 370 833 402 718 l 364 833 q 270 522 326 693 l 219 370 l 514 370 l 465 522 m 389 1207 q 365 1247 389 1235 q 290 1263 342 1260 l 299 1315 q 416 1288 374 1312 q 458 1216 458 1263 q 337 1109 458 1134 l 323 1154 q 371 1174 354 1162 q 389 1207 389 1186 m 256 1130 q 291 1064 264 1089 q 366 1038 318 1038 q 440 1064 413 1038 q 475 1130 467 1089 l 530 1130 q 505 1059 525 1092 q 450 1005 486 1026 q 366 985 415 985 q 281 1005 316 985 q 226 1059 245 1026 q 201 1130 206 1092 l 256 1130 z "},"Ẵ":{"ha":736,"x_min":2,"x_max":734,"o":"m 194 293 l 98 0 l 2 0 l 317 913 l 420 913 l 734 0 l 634 0 l 539 293 l 194 293 m 465 522 q 370 833 402 718 l 364 833 q 270 522 326 693 l 219 370 l 514 370 l 465 522 m 297 1295 q 340 1286 321 1295 q 382 1259 358 1277 q 413 1238 400 1245 q 439 1231 426 1231 q 476 1248 461 1231 q 496 1295 491 1265 l 547 1295 q 515 1208 543 1244 q 442 1173 488 1173 q 399 1183 418 1173 q 357 1211 380 1192 q 326 1232 338 1225 q 300 1238 313 1238 q 263 1221 278 1238 q 243 1173 248 1204 l 192 1173 q 224 1260 197 1225 q 297 1295 251 1295 m 260 1130 q 295 1064 269 1089 q 370 1038 322 1038 q 444 1064 417 1038 q 479 1130 471 1089 l 534 1130 q 509 1059 529 1092 q 454 1005 490 1026 q 370 985 419 985 q 285 1005 320 985 q 230 1059 250 1026 q 205 1130 210 1092 l 260 1130 z "},"Ặ":{"ha":736,"x_min":2,"x_max":734,"o":"m 202 1135 l 262 1135 q 295 1068 269 1095 q 368 1042 322 1042 q 441 1068 414 1042 q 475 1135 468 1095 l 534 1135 q 511 1062 530 1096 q 456 1006 492 1027 q 368 985 420 985 q 281 1006 317 985 q 226 1062 245 1027 q 202 1135 207 1096 m 734 0 l 634 0 l 539 293 l 194 293 l 98 0 l 2 0 l 304 875 q 302 888 302 883 q 321 935 302 916 q 369 954 340 954 q 416 935 397 954 q 435 888 435 916 q 433 874 435 884 l 734 0 m 514 370 l 465 522 q 374 820 407 703 l 369 820 q 361 821 363 820 q 270 522 326 694 l 219 370 l 514 370 z "},"Ẹ":{"ha":716,"x_min":125,"x_max":654,"o":"m 640 913 l 640 833 l 220 833 l 220 522 l 573 522 l 573 441 l 220 441 l 220 81 l 654 81 l 654 0 l 125 0 l 125 913 l 640 913 m 406 -146 q 452 -164 433 -146 q 471 -212 471 -183 q 453 -261 471 -242 q 406 -279 434 -279 q 358 -261 377 -279 q 339 -212 339 -242 q 358 -164 339 -183 q 406 -146 377 -146 z "},"Ẻ":{"ha":716,"x_min":125,"x_max":654,"o":"m 640 913 l 640 833 l 220 833 l 220 522 l 573 522 l 573 441 l 220 441 l 220 81 l 654 81 l 654 0 l 125 0 l 125 913 l 640 913 m 422 1086 q 305 1149 422 1143 l 315 1206 q 449 1175 400 1202 q 497 1097 497 1148 q 457 1015 497 1044 q 352 972 417 985 l 340 1018 q 400 1045 379 1029 q 422 1086 422 1061 z "},"Ẽ":{"ha":716,"x_min":125,"x_max":654,"o":"m 640 913 l 640 833 l 220 833 l 220 522 l 573 522 l 573 441 l 220 441 l 220 81 l 654 81 l 654 0 l 125 0 l 125 913 l 640 913 m 250 990 l 197 990 q 231 1091 201 1050 q 307 1131 260 1131 q 354 1120 333 1131 q 403 1089 376 1109 q 440 1065 425 1073 q 472 1057 456 1057 q 508 1077 492 1057 q 528 1131 524 1097 l 582 1131 q 548 1031 577 1072 q 472 990 519 990 q 424 1001 446 990 q 376 1032 403 1012 q 338 1057 354 1048 q 307 1065 323 1065 q 271 1045 286 1065 q 250 990 255 1025 z "},"Ế":{"ha":716,"x_min":125,"x_max":696,"o":"m 640 913 l 640 833 l 220 833 l 220 522 l 573 522 l 573 441 l 220 441 l 220 81 l 654 81 l 654 0 l 125 0 l 125 913 l 640 913 m 696 1221 l 573 1069 l 511 1069 l 610 1221 l 696 1221 m 433 1126 l 560 982 l 486 982 l 395 1071 l 389 1071 l 298 982 l 224 982 l 351 1126 l 433 1126 z "},"Ề":{"ha":716,"x_min":125,"x_max":654,"o":"m 640 913 l 640 833 l 220 833 l 220 522 l 573 522 l 573 441 l 220 441 l 220 81 l 654 81 l 654 0 l 125 0 l 125 913 l 640 913 m 565 1069 l 441 1221 l 528 1221 l 627 1069 l 565 1069 m 430 1126 l 557 982 l 484 982 l 392 1071 l 387 1071 l 295 982 l 221 982 l 349 1126 l 430 1126 z "},"Ể":{"ha":716,"x_min":125,"x_max":661,"o":"m 640 913 l 640 833 l 220 833 l 220 522 l 573 522 l 573 441 l 220 441 l 220 81 l 654 81 l 654 0 l 125 0 l 125 913 l 640 913 m 592 1147 q 569 1187 592 1175 q 492 1202 545 1200 l 503 1254 q 620 1226 578 1251 q 661 1156 661 1202 q 541 1048 661 1072 l 526 1093 q 575 1113 557 1101 q 592 1147 592 1126 m 429 1126 l 557 982 l 483 982 l 391 1071 l 386 1071 l 294 982 l 220 982 l 348 1126 l 429 1126 z "},"Ễ":{"ha":716,"x_min":125,"x_max":654,"o":"m 640 913 l 640 833 l 220 833 l 220 522 l 573 522 l 573 441 l 220 441 l 220 81 l 654 81 l 654 0 l 125 0 l 125 913 l 640 913 m 403 1259 q 433 1238 420 1245 q 460 1231 446 1231 q 496 1248 481 1231 q 516 1295 511 1265 l 568 1295 q 535 1208 563 1244 q 463 1173 508 1173 q 419 1183 438 1173 q 377 1211 401 1192 q 346 1232 358 1225 q 320 1238 334 1238 q 283 1221 298 1238 q 264 1173 269 1204 l 212 1173 q 244 1260 217 1225 q 317 1295 271 1295 q 360 1286 342 1295 q 403 1259 378 1277 m 349 1126 l 431 1126 l 558 982 l 484 982 l 393 1071 l 387 1071 l 296 982 l 222 982 l 349 1126 z "},"Ệ":{"ha":716,"x_min":125,"x_max":654,"o":"m 640 913 l 640 833 l 220 833 l 220 522 l 573 522 l 573 441 l 220 441 l 220 81 l 654 81 l 654 0 l 125 0 l 125 913 l 640 913 m 345 1135 l 434 1135 l 568 982 l 490 982 l 392 1079 l 387 1079 l 289 982 l 211 982 l 345 1135 m 406 -146 q 452 -164 433 -146 q 471 -212 471 -183 q 453 -261 471 -242 q 406 -279 434 -279 q 358 -261 377 -279 q 339 -212 339 -242 q 358 -164 339 -183 q 406 -146 377 -146 z "},"Ỉ":{"ha":344,"x_min":87,"x_max":279,"o":"m 220 913 l 220 0 l 125 0 l 125 913 l 220 913 m 203 1086 q 87 1149 203 1143 l 97 1206 q 230 1175 182 1202 q 279 1097 279 1148 q 239 1015 279 1044 q 134 972 199 985 l 121 1018 q 182 1045 161 1029 q 203 1086 203 1061 z "},"Ị":{"ha":344,"x_min":113,"x_max":245,"o":"m 220 913 l 220 0 l 125 0 l 125 913 l 220 913 m 179 -146 q 226 -164 207 -146 q 245 -212 245 -183 q 226 -261 245 -242 q 179 -279 208 -279 q 132 -261 151 -279 q 113 -212 113 -242 q 132 -164 113 -183 q 179 -146 151 -146 z "},"Ọ":{"ha":907,"x_min":69,"x_max":838,"o":"m 453 929 q 655 873 568 929 q 790 710 742 817 q 838 458 838 604 q 790 205 838 312 q 655 40 742 98 q 453 -17 568 -17 q 251 40 338 -17 q 117 204 164 97 q 69 458 69 312 q 117 710 69 604 q 251 873 164 817 q 453 929 338 929 m 453 846 q 300 799 365 846 q 201 666 236 753 q 167 458 167 578 q 201 250 167 338 q 300 114 236 161 q 453 67 365 67 q 605 114 541 67 q 705 250 670 161 q 740 458 740 338 q 705 666 740 578 q 605 799 670 753 q 453 846 541 846 m 471 -119 q 518 -137 499 -119 q 537 -184 537 -156 q 518 -234 537 -215 q 471 -252 500 -252 q 424 -234 443 -252 q 405 -184 405 -215 q 424 -137 405 -156 q 471 -119 443 -119 z "},"Ỏ":{"ha":907,"x_min":69,"x_max":838,"o":"m 453 929 q 655 873 568 929 q 790 710 742 817 q 838 458 838 604 q 790 205 838 312 q 655 40 742 98 q 453 -17 568 -17 q 251 40 338 -17 q 117 204 164 97 q 69 458 69 312 q 117 710 69 604 q 251 873 164 817 q 453 929 338 929 m 453 846 q 300 799 365 846 q 201 666 236 753 q 167 458 167 578 q 201 250 167 338 q 300 114 236 161 q 453 67 365 67 q 605 114 541 67 q 705 250 670 161 q 740 458 740 338 q 705 666 740 578 q 605 799 670 753 q 453 846 541 846 m 486 1086 q 370 1149 486 1143 l 380 1206 q 513 1175 465 1202 q 562 1097 562 1148 q 522 1015 562 1044 q 416 972 481 985 l 404 1018 q 465 1045 444 1029 q 486 1086 486 1061 z "},"Ố":{"ha":907,"x_min":69,"x_max":838,"o":"m 453 929 q 655 873 568 929 q 790 710 742 817 q 838 458 838 604 q 790 205 838 312 q 655 40 742 98 q 453 -17 568 -17 q 251 40 338 -17 q 117 204 164 97 q 69 458 69 312 q 117 710 69 604 q 251 873 164 817 q 453 929 338 929 m 453 846 q 300 799 365 846 q 201 666 236 753 q 167 458 167 578 q 201 250 167 338 q 300 114 236 161 q 453 67 365 67 q 605 114 541 67 q 705 250 670 161 q 740 458 740 338 q 705 666 740 578 q 605 799 670 753 q 453 846 541 846 m 759 1221 l 635 1069 l 574 1069 l 673 1221 l 759 1221 m 495 1126 l 623 982 l 549 982 l 457 1071 l 452 1071 l 360 982 l 286 982 l 414 1126 l 495 1126 z "},"Ồ":{"ha":907,"x_min":69,"x_max":838,"o":"m 453 929 q 655 873 568 929 q 790 710 742 817 q 838 458 838 604 q 790 205 838 312 q 655 40 742 98 q 453 -17 568 -17 q 251 40 338 -17 q 117 204 164 97 q 69 458 69 312 q 117 710 69 604 q 251 873 164 817 q 453 929 338 929 m 453 846 q 300 799 365 846 q 201 666 236 753 q 167 458 167 578 q 201 250 167 338 q 300 114 236 161 q 453 67 365 67 q 605 114 541 67 q 705 250 670 161 q 740 458 740 338 q 705 666 740 578 q 605 799 670 753 q 453 846 541 846 m 629 1069 l 505 1221 l 591 1221 l 690 1069 l 629 1069 m 494 1126 l 621 982 l 547 982 l 456 1071 l 450 1071 l 359 982 l 285 982 l 412 1126 l 494 1126 z "},"Ổ":{"ha":907,"x_min":69,"x_max":838,"o":"m 453 929 q 655 873 568 929 q 790 710 742 817 q 838 458 838 604 q 790 205 838 312 q 655 40 742 98 q 453 -17 568 -17 q 251 40 338 -17 q 117 204 164 97 q 69 458 69 312 q 117 710 69 604 q 251 873 164 817 q 453 929 338 929 m 453 846 q 300 799 365 846 q 201 666 236 753 q 167 458 167 578 q 201 250 167 338 q 300 114 236 161 q 453 67 365 67 q 605 114 541 67 q 705 250 670 161 q 740 458 740 338 q 705 666 740 578 q 605 799 670 753 q 453 846 541 846 m 659 1147 q 635 1187 659 1175 q 559 1202 612 1200 l 569 1254 q 686 1226 645 1251 q 728 1156 728 1202 q 608 1048 728 1072 l 593 1093 q 641 1113 624 1101 q 659 1147 659 1126 m 496 1126 l 623 982 l 549 982 l 458 1071 l 452 1071 l 361 982 l 287 982 l 414 1126 l 496 1126 z "},"Ỗ":{"ha":907,"x_min":69,"x_max":838,"o":"m 453 929 q 655 873 568 929 q 790 710 742 817 q 838 458 838 604 q 790 205 838 312 q 655 40 742 98 q 453 -17 568 -17 q 251 40 338 -17 q 117 204 164 97 q 69 458 69 312 q 117 710 69 604 q 251 873 164 817 q 453 929 338 929 m 453 846 q 300 799 365 846 q 201 666 236 753 q 167 458 167 578 q 201 250 167 338 q 300 114 236 161 q 453 67 365 67 q 605 114 541 67 q 705 250 670 161 q 740 458 740 338 q 705 666 740 578 q 605 799 670 753 q 453 846 541 846 m 467 1259 q 498 1238 485 1245 q 524 1231 511 1231 q 561 1248 546 1231 q 581 1295 576 1265 l 632 1295 q 600 1208 627 1244 q 527 1173 572 1173 q 484 1183 503 1173 q 441 1211 465 1192 q 410 1232 422 1225 q 385 1238 398 1238 q 348 1221 363 1238 q 328 1173 333 1204 l 277 1173 q 309 1260 281 1225 q 382 1295 336 1295 q 425 1286 406 1295 q 467 1259 443 1277 m 414 1126 l 495 1126 l 623 982 l 549 982 l 457 1071 l 452 1071 l 360 982 l 286 982 l 414 1126 z "},"Ộ":{"ha":907,"x_min":69,"x_max":838,"o":"m 453 929 q 655 873 568 929 q 790 710 742 817 q 838 458 838 604 q 790 205 838 312 q 655 40 742 98 q 453 -17 568 -17 q 251 40 338 -17 q 117 204 164 97 q 69 458 69 312 q 117 710 69 604 q 251 873 164 817 q 453 929 338 929 m 453 846 q 300 799 365 846 q 201 666 236 753 q 167 458 167 578 q 201 250 167 338 q 300 114 236 161 q 453 67 365 67 q 605 114 541 67 q 705 250 670 161 q 740 458 740 338 q 705 666 740 578 q 605 799 670 753 q 453 846 541 846 m 471 -119 q 518 -137 499 -119 q 537 -184 537 -156 q 518 -234 537 -215 q 471 -252 500 -252 q 424 -234 443 -252 q 405 -184 405 -215 q 424 -137 405 -156 q 471 -119 443 -119 m 408 1135 l 498 1135 l 631 982 l 553 982 l 456 1079 l 450 1079 l 353 982 l 275 982 l 408 1135 z "},"Ớ":{"ha":907,"x_min":69,"x_max":838,"o":"m 830 985 q 691 844 830 877 q 800 684 761 782 q 838 460 838 586 q 789 209 838 317 q 653 42 741 100 q 454 -17 566 -17 q 254 42 342 -17 q 118 209 167 100 q 69 460 69 317 q 118 709 69 603 q 254 872 167 815 q 454 929 342 929 q 631 885 553 929 q 723 918 694 895 q 752 979 752 941 q 732 1035 752 1006 l 801 1069 q 830 985 830 1028 m 454 846 q 303 799 368 846 q 202 665 238 752 q 167 460 167 578 q 202 253 167 342 q 303 116 238 164 q 454 67 369 67 q 604 116 539 67 q 704 253 669 164 q 740 460 740 342 q 704 665 740 578 q 604 799 669 752 q 454 846 540 846 m 384 982 l 509 1135 l 618 1135 l 463 982 l 384 982 z "},"Ờ":{"ha":907,"x_min":69,"x_max":838,"o":"m 830 985 q 691 844 830 877 q 800 684 761 782 q 838 460 838 586 q 789 209 838 317 q 653 42 741 100 q 454 -17 566 -17 q 254 42 342 -17 q 118 209 167 100 q 69 460 69 317 q 118 709 69 603 q 254 872 167 815 q 454 929 342 929 q 631 885 553 929 q 723 918 694 895 q 752 979 752 941 q 732 1035 752 1006 l 801 1069 q 830 985 830 1028 m 454 846 q 303 799 368 846 q 202 665 238 752 q 167 460 167 578 q 202 253 167 342 q 303 116 238 164 q 454 67 369 67 q 604 116 539 67 q 704 253 669 164 q 740 460 740 342 q 704 665 740 578 q 604 799 669 752 q 454 846 540 846 m 391 1135 l 515 982 l 436 982 l 281 1135 l 391 1135 z "},"Ở":{"ha":907,"x_min":69,"x_max":838,"o":"m 830 985 q 691 844 830 877 q 800 684 761 782 q 838 460 838 586 q 789 209 838 317 q 653 42 741 100 q 454 -17 566 -17 q 254 42 342 -17 q 118 209 167 100 q 69 460 69 317 q 118 709 69 603 q 254 872 167 815 q 454 929 342 929 q 631 885 553 929 q 723 918 694 895 q 752 979 752 941 q 732 1035 752 1006 l 801 1069 q 830 985 830 1028 m 454 846 q 303 799 368 846 q 202 665 238 752 q 167 460 167 578 q 202 253 167 342 q 303 116 238 164 q 454 67 369 67 q 604 116 539 67 q 704 253 669 164 q 740 460 740 342 q 704 665 740 578 q 604 799 669 752 q 454 846 540 846 m 487 1086 q 370 1149 487 1143 l 380 1206 q 514 1175 465 1202 q 562 1097 562 1148 q 522 1015 562 1044 q 417 972 482 985 l 405 1018 q 466 1045 444 1029 q 487 1086 487 1061 z "},"Ỡ":{"ha":907,"x_min":69,"x_max":838,"o":"m 830 985 q 691 844 830 877 q 800 684 761 782 q 838 460 838 586 q 789 209 838 317 q 653 42 741 100 q 454 -17 566 -17 q 254 42 342 -17 q 118 209 167 100 q 69 460 69 317 q 118 709 69 603 q 254 872 167 815 q 454 929 342 929 q 631 885 553 929 q 723 918 694 895 q 752 979 752 941 q 732 1035 752 1006 l 801 1069 q 830 985 830 1028 m 454 846 q 303 799 368 846 q 202 665 238 752 q 167 460 167 578 q 202 253 167 342 q 303 116 238 164 q 454 67 369 67 q 604 116 539 67 q 704 253 669 164 q 740 460 740 342 q 704 665 740 578 q 604 799 669 752 q 454 846 540 846 m 314 990 l 260 990 q 294 1091 265 1050 q 370 1131 323 1131 q 418 1120 397 1131 q 467 1089 439 1109 q 504 1065 489 1073 q 536 1057 519 1057 q 572 1077 556 1057 q 592 1131 587 1097 l 646 1131 q 612 1031 641 1072 q 536 990 583 990 q 488 1001 509 990 q 439 1032 467 1012 q 402 1057 418 1048 q 370 1065 387 1065 q 334 1045 350 1065 q 314 990 319 1025 z "},"Ợ":{"ha":907,"x_min":69,"x_max":838,"o":"m 830 985 q 691 844 830 877 q 800 684 761 782 q 838 460 838 586 q 789 209 838 317 q 653 42 741 100 q 454 -17 566 -17 q 254 42 342 -17 q 118 209 167 100 q 69 460 69 317 q 118 709 69 603 q 254 872 167 815 q 454 929 342 929 q 631 885 553 929 q 723 918 694 895 q 752 979 752 941 q 732 1035 752 1006 l 801 1069 q 830 985 830 1028 m 454 846 q 303 799 368 846 q 202 665 238 752 q 167 460 167 578 q 202 253 167 342 q 303 116 238 164 q 454 67 369 67 q 604 116 539 67 q 704 253 669 164 q 740 460 740 342 q 704 665 740 578 q 604 799 669 752 q 454 846 540 846 m 454 -146 q 500 -164 481 -146 q 519 -212 519 -183 q 501 -261 519 -242 q 454 -279 482 -279 q 406 -261 425 -279 q 387 -212 387 -242 q 406 -164 387 -183 q 454 -146 425 -146 z "},"Ụ":{"ha":882,"x_min":121,"x_max":761,"o":"m 216 913 l 216 363 q 277 136 216 204 q 440 67 338 67 q 608 135 545 67 q 671 363 671 203 l 671 913 l 761 913 l 761 362 q 673 71 761 159 q 440 -17 585 -17 q 208 72 296 -17 q 121 362 121 160 l 121 913 l 216 913 m 440 -146 q 487 -164 468 -146 q 506 -212 506 -183 q 487 -261 506 -242 q 440 -279 469 -279 q 393 -261 412 -279 q 374 -212 374 -242 q 393 -164 374 -183 q 440 -146 412 -146 z "},"Ủ":{"ha":882,"x_min":121,"x_max":761,"o":"m 216 913 l 216 363 q 277 136 216 204 q 440 67 338 67 q 608 135 545 67 q 671 363 671 203 l 671 913 l 761 913 l 761 362 q 673 71 761 159 q 440 -17 585 -17 q 208 72 296 -17 q 121 362 121 160 l 121 913 l 216 913 m 474 1086 q 357 1149 474 1143 l 368 1206 q 501 1175 452 1202 q 549 1097 549 1148 q 509 1015 549 1044 q 404 972 469 985 l 392 1018 q 453 1045 431 1029 q 474 1086 474 1061 z "},"Ứ":{"ha":899,"x_min":121,"x_max":909,"o":"m 909 1013 q 761 869 909 901 l 761 366 q 673 73 761 163 q 440 -17 585 -17 q 208 73 296 -17 q 121 366 121 163 l 121 913 l 216 913 l 216 368 q 277 137 216 207 q 440 67 338 67 q 608 137 545 67 q 671 368 671 207 l 671 913 l 707 913 q 800 943 769 922 q 830 1007 830 964 q 809 1063 830 1033 l 878 1097 q 909 1013 909 1054 m 343 982 l 468 1135 l 578 1135 l 422 982 l 343 982 z "},"Ừ":{"ha":899,"x_min":121,"x_max":909,"o":"m 909 1013 q 761 869 909 901 l 761 366 q 673 73 761 163 q 440 -17 585 -17 q 208 73 296 -17 q 121 366 121 163 l 121 913 l 216 913 l 216 368 q 277 137 216 207 q 440 67 338 67 q 608 137 545 67 q 671 368 671 207 l 671 913 l 707 913 q 800 943 769 922 q 830 1007 830 964 q 809 1063 830 1033 l 878 1097 q 909 1013 909 1054 m 377 1135 l 502 982 l 422 982 l 267 1135 l 377 1135 z "},"Ử":{"ha":899,"x_min":121,"x_max":909,"o":"m 909 1013 q 761 869 909 901 l 761 366 q 673 73 761 163 q 440 -17 585 -17 q 208 73 296 -17 q 121 366 121 163 l 121 913 l 216 913 l 216 368 q 277 137 216 207 q 440 67 338 67 q 608 137 545 67 q 671 368 671 207 l 671 913 l 707 913 q 800 943 769 922 q 830 1007 830 964 q 809 1063 830 1033 l 878 1097 q 909 1013 909 1054 m 472 1086 q 355 1149 472 1143 l 366 1206 q 499 1175 450 1202 q 547 1097 547 1148 q 507 1015 547 1044 q 402 972 467 985 l 390 1018 q 451 1045 429 1029 q 472 1086 472 1061 z "},"Ữ":{"ha":899,"x_min":121,"x_max":909,"o":"m 909 1013 q 761 869 909 901 l 761 366 q 673 73 761 163 q 440 -17 585 -17 q 208 73 296 -17 q 121 366 121 163 l 121 913 l 216 913 l 216 368 q 277 137 216 207 q 440 67 338 67 q 608 137 545 67 q 671 368 671 207 l 671 913 l 707 913 q 800 943 769 922 q 830 1007 830 964 q 809 1063 830 1033 l 878 1097 q 909 1013 909 1054 m 302 990 l 248 990 q 282 1091 253 1050 q 358 1131 311 1131 q 406 1120 385 1131 q 454 1089 427 1109 q 492 1065 477 1073 q 524 1057 507 1057 q 559 1077 544 1057 q 580 1131 575 1097 l 633 1131 q 600 1031 629 1072 q 524 990 570 990 q 476 1001 497 990 q 427 1032 454 1012 q 390 1057 406 1048 q 358 1065 374 1065 q 322 1045 338 1065 q 302 990 307 1025 z "},"Ự":{"ha":899,"x_min":121,"x_max":909,"o":"m 909 1013 q 761 869 909 901 l 761 366 q 673 73 761 163 q 440 -17 585 -17 q 208 73 296 -17 q 121 366 121 163 l 121 913 l 216 913 l 216 368 q 277 137 216 207 q 440 67 338 67 q 608 137 545 67 q 671 368 671 207 l 671 913 l 707 913 q 800 943 769 922 q 830 1007 830 964 q 809 1063 830 1033 l 878 1097 q 909 1013 909 1054 m 441 -146 q 488 -164 469 -146 q 507 -212 507 -183 q 488 -261 507 -242 q 441 -279 469 -279 q 393 -261 412 -279 q 374 -212 374 -242 q 393 -164 374 -183 q 441 -146 412 -146 z "},"Ỵ":{"ha":637,"x_min":-4,"x_max":640,"o":"m -4 913 l 98 913 l 224 644 q 315 446 273 534 l 321 446 l 355 515 q 416 644 397 600 l 543 913 l 640 913 l 366 360 l 366 0 l 271 0 l 271 360 l -4 913 m 320 -146 q 367 -164 348 -146 q 386 -212 386 -183 q 367 -261 386 -242 q 320 -279 349 -279 q 273 -261 292 -279 q 254 -212 254 -242 q 273 -164 254 -183 q 320 -146 292 -146 z "},"Ỷ":{"ha":637,"x_min":-4,"x_max":640,"o":"m -4 913 l 98 913 l 224 644 q 315 446 273 534 l 321 446 l 355 515 q 416 644 397 600 l 543 913 l 640 913 l 366 360 l 366 0 l 271 0 l 271 360 l -4 913 m 351 1086 q 234 1149 351 1143 l 244 1206 q 377 1175 329 1202 q 426 1097 426 1148 q 386 1015 426 1044 q 281 972 346 985 l 269 1018 q 329 1045 308 1029 q 351 1086 351 1061 z "},"Ỹ":{"ha":637,"x_min":-4,"x_max":640,"o":"m -4 913 l 98 913 l 224 644 q 315 446 273 534 l 321 446 l 355 515 q 416 644 397 600 l 543 913 l 640 913 l 366 360 l 366 0 l 271 0 l 271 360 l -4 913 m 178 990 l 125 990 q 159 1091 130 1050 q 235 1131 188 1131 q 282 1120 261 1131 q 331 1089 304 1109 q 369 1065 353 1073 q 400 1057 384 1057 q 436 1077 420 1057 q 456 1131 452 1097 l 510 1131 q 476 1031 505 1072 q 400 990 447 990 q 352 1001 374 990 q 304 1032 331 1012 q 267 1057 282 1048 q 235 1065 251 1065 q 199 1045 214 1065 q 178 990 183 1025 z "},"a":{"ha":704,"x_min":85,"x_max":598,"o":"m 359 610 q 245 591 300 610 q 150 543 191 572 l 111 609 q 230 665 161 642 q 372 688 298 688 q 544 618 490 688 q 598 419 598 547 l 598 0 l 522 0 l 513 83 l 510 83 q 399 8 449 34 q 286 -17 349 -17 q 182 5 227 -17 q 111 70 136 27 q 85 172 85 113 q 186 346 85 283 q 506 424 288 408 q 474 560 507 509 q 359 610 441 610 m 506 157 l 506 360 q 253 300 330 347 q 177 178 177 253 q 213 88 177 117 q 309 59 249 59 q 403 82 358 59 q 506 157 448 106 z "},"á":{"ha":704,"x_min":85,"x_max":598,"o":"m 359 610 q 245 591 300 610 q 150 543 191 572 l 111 609 q 230 665 161 642 q 372 688 298 688 q 544 618 490 688 q 598 419 598 547 l 598 0 l 522 0 l 513 83 l 510 83 q 399 8 449 34 q 286 -17 349 -17 q 182 5 227 -17 q 111 70 136 27 q 85 172 85 113 q 186 346 85 283 q 506 424 288 408 q 474 560 507 509 q 359 610 441 610 m 506 157 l 506 360 q 253 300 330 347 q 177 178 177 253 q 213 88 177 117 q 309 59 249 59 q 403 82 358 59 q 506 157 448 106 m 294 795 l 420 988 l 520 988 l 367 795 l 294 795 z "},"ă":{"ha":704,"x_min":85,"x_max":598,"o":"m 359 610 q 245 591 300 610 q 150 543 191 572 l 111 609 q 230 665 161 642 q 372 688 298 688 q 544 618 490 688 q 598 419 598 547 l 598 0 l 522 0 l 513 83 l 510 83 q 399 8 449 34 q 286 -17 349 -17 q 182 5 227 -17 q 111 70 136 27 q 85 172 85 113 q 186 346 85 283 q 506 424 288 408 q 474 560 507 509 q 359 610 441 610 m 506 157 l 506 360 q 253 300 330 347 q 177 178 177 253 q 213 88 177 117 q 309 59 249 59 q 403 82 358 59 q 506 157 448 106 m 231 971 q 265 892 237 924 q 341 859 293 859 q 417 892 389 859 q 452 971 446 924 l 512 971 q 490 890 509 929 q 433 825 471 850 q 341 800 396 800 q 249 825 286 800 q 193 890 212 850 q 170 971 174 929 l 231 971 z "},"â":{"ha":704,"x_min":85,"x_max":598,"o":"m 359 610 q 245 591 300 610 q 150 543 191 572 l 111 609 q 230 665 161 642 q 372 688 298 688 q 544 618 490 688 q 598 419 598 547 l 598 0 l 522 0 l 513 83 l 510 83 q 399 8 449 34 q 286 -17 349 -17 q 182 5 227 -17 q 111 70 136 27 q 85 172 85 113 q 186 346 85 283 q 506 424 288 408 q 474 560 507 509 q 359 610 441 610 m 506 157 l 506 360 q 253 300 330 347 q 177 178 177 253 q 213 88 177 117 q 309 59 249 59 q 403 82 358 59 q 506 157 448 106 m 380 988 l 511 795 l 441 795 l 344 926 l 338 926 l 241 795 l 172 795 l 302 988 l 380 988 z "},"ä":{"ha":704,"x_min":85,"x_max":598,"o":"m 359 610 q 245 591 300 610 q 150 543 191 572 l 111 609 q 230 665 161 642 q 372 688 298 688 q 544 618 490 688 q 598 419 598 547 l 598 0 l 522 0 l 513 83 l 510 83 q 399 8 449 34 q 286 -17 349 -17 q 182 5 227 -17 q 111 70 136 27 q 85 172 85 113 q 186 346 85 283 q 506 424 288 408 q 474 560 507 509 q 359 610 441 610 m 506 157 l 506 360 q 253 300 330 347 q 177 178 177 253 q 213 88 177 117 q 309 59 249 59 q 403 82 358 59 q 506 157 448 106 m 226 944 q 269 927 252 944 q 287 884 287 909 q 269 840 287 857 q 226 823 252 823 q 182 840 200 823 q 165 884 165 857 q 182 927 165 909 q 226 944 200 944 m 456 944 q 500 927 483 944 q 517 884 517 909 q 500 840 517 857 q 456 823 484 823 q 414 840 431 823 q 397 884 397 857 q 414 927 397 909 q 456 944 431 944 z "},"à":{"ha":704,"x_min":85,"x_max":598,"o":"m 359 610 q 245 591 300 610 q 150 543 191 572 l 111 609 q 230 665 161 642 q 372 688 298 688 q 544 618 490 688 q 598 419 598 547 l 598 0 l 522 0 l 513 83 l 510 83 q 399 8 449 34 q 286 -17 349 -17 q 182 5 227 -17 q 111 70 136 27 q 85 172 85 113 q 186 346 85 283 q 506 424 288 408 q 474 560 507 509 q 359 610 441 610 m 506 157 l 506 360 q 253 300 330 347 q 177 178 177 253 q 213 88 177 117 q 309 59 249 59 q 403 82 358 59 q 506 157 448 106 m 252 988 l 378 795 l 304 795 l 152 988 l 252 988 z "},"ā":{"ha":704,"x_min":85,"x_max":598,"o":"m 359 610 q 245 591 300 610 q 150 543 191 572 l 111 609 q 230 665 161 642 q 372 688 298 688 q 544 618 490 688 q 598 419 598 547 l 598 0 l 522 0 l 513 83 l 510 83 q 399 8 449 34 q 286 -17 349 -17 q 182 5 227 -17 q 111 70 136 27 q 85 172 85 113 q 186 346 85 283 q 506 424 288 408 q 474 560 507 509 q 359 610 441 610 m 506 157 l 506 360 q 253 300 330 347 q 177 178 177 253 q 213 88 177 117 q 309 59 249 59 q 403 82 358 59 q 506 157 448 106 m 507 905 l 507 838 l 176 838 l 176 905 l 507 905 z "},"ą":{"ha":704,"x_min":85,"x_max":628,"o":"m 360 610 q 154 536 260 610 l 115 602 q 235 663 170 637 q 374 688 301 688 q 544 616 490 688 q 598 419 598 545 l 598 0 q 511 -66 544 -24 q 478 -152 478 -109 q 497 -201 478 -184 q 545 -219 517 -219 q 602 -201 576 -219 l 628 -250 q 580 -275 609 -264 q 527 -285 551 -285 q 440 -254 474 -285 q 407 -169 407 -224 q 440 -71 407 -117 q 522 7 474 -24 l 513 83 l 510 83 q 397 10 453 37 q 281 -17 340 -17 q 181 5 225 -17 q 111 69 136 26 q 85 171 85 111 q 129 295 85 245 q 266 376 174 345 q 506 424 358 408 q 474 557 507 505 q 360 610 441 610 m 506 157 l 506 360 q 313 321 385 346 q 209 261 240 296 q 177 178 177 227 q 212 89 177 118 q 304 59 248 59 q 402 83 355 59 q 506 157 449 106 z "},"å":{"ha":704,"x_min":85,"x_max":598,"o":"m 359 610 q 245 591 300 610 q 150 543 191 572 l 111 609 q 230 665 161 642 q 372 688 298 688 q 544 618 490 688 q 598 419 598 547 l 598 0 l 522 0 l 513 83 l 510 83 q 399 8 449 34 q 286 -17 349 -17 q 182 5 227 -17 q 111 70 136 27 q 85 172 85 113 q 186 346 85 283 q 506 424 288 408 q 474 560 507 509 q 359 610 441 610 m 506 157 l 506 360 q 253 300 330 347 q 177 178 177 253 q 213 88 177 117 q 309 59 249 59 q 403 82 358 59 q 506 157 448 106 m 340 1001 q 404 985 376 1001 q 449 941 433 970 q 465 876 465 913 q 449 811 465 840 q 404 767 433 783 q 340 751 376 751 q 277 767 305 751 q 234 811 250 783 q 218 876 218 840 q 234 941 218 913 q 277 985 250 970 q 340 1001 305 1001 m 340 956 q 291 934 311 956 q 271 876 271 911 q 291 819 271 841 q 340 796 311 796 q 390 819 370 796 q 410 876 410 841 q 390 934 410 911 q 340 956 370 956 z "},"ã":{"ha":704,"x_min":85,"x_max":598,"o":"m 359 610 q 245 591 300 610 q 150 543 191 572 l 111 609 q 230 665 161 642 q 372 688 298 688 q 544 618 490 688 q 598 419 598 547 l 598 0 l 522 0 l 513 83 l 510 83 q 399 8 449 34 q 286 -17 349 -17 q 182 5 227 -17 q 111 70 136 27 q 85 172 85 113 q 186 346 85 283 q 506 424 288 408 q 474 560 507 509 q 359 610 441 610 m 506 157 l 506 360 q 253 300 330 347 q 177 178 177 253 q 213 88 177 117 q 309 59 249 59 q 403 82 358 59 q 506 157 448 106 m 357 900 q 393 877 380 884 q 419 869 406 869 q 452 888 440 869 q 471 943 465 907 l 526 943 q 494 844 521 883 q 420 806 467 806 q 374 816 395 806 q 328 846 354 827 q 293 870 307 863 q 263 878 278 878 q 230 860 242 878 q 212 806 218 842 l 157 806 q 188 904 161 865 q 262 943 215 943 q 310 931 288 943 q 357 900 331 920 z "},"æ":{"ha":1090,"x_min":85,"x_max":1037,"o":"m 364 688 q 490 649 444 688 q 557 536 537 609 q 657 648 597 608 q 792 688 718 688 q 974 605 911 688 q 1037 374 1037 522 q 1034 316 1037 336 l 587 316 q 617 183 588 241 q 696 93 646 125 q 807 60 746 60 q 894 75 855 60 q 975 118 933 90 l 1010 52 q 909 1 958 19 q 797 -17 861 -17 q 660 19 718 -17 q 559 115 602 55 q 418 18 491 52 q 281 -17 346 -17 q 181 5 225 -17 q 111 69 136 26 q 85 171 85 111 q 185 342 85 281 q 499 421 286 403 q 467 557 500 503 q 353 610 435 610 q 248 591 300 610 q 154 543 196 572 l 115 608 q 231 665 165 642 q 364 688 296 688 m 790 614 q 692 585 736 614 q 621 503 648 555 q 587 380 593 450 l 954 380 q 913 554 954 495 q 790 614 871 614 m 527 174 q 507 241 514 201 q 499 324 499 281 l 498 357 q 253 294 328 338 q 177 178 177 250 q 212 89 177 118 q 304 59 248 59 q 417 90 356 59 q 527 174 477 120 z "},"ǽ":{"ha":1090,"x_min":85,"x_max":1037,"o":"m 364 688 q 490 649 444 688 q 557 536 537 609 q 657 648 597 608 q 792 688 718 688 q 974 605 911 688 q 1037 374 1037 522 q 1034 316 1037 336 l 587 316 q 617 183 588 241 q 696 93 646 125 q 807 60 746 60 q 894 75 855 60 q 975 118 933 90 l 1010 52 q 909 1 958 19 q 797 -17 861 -17 q 660 19 718 -17 q 559 115 602 55 q 418 18 491 52 q 281 -17 346 -17 q 181 5 225 -17 q 111 69 136 26 q 85 171 85 111 q 185 342 85 281 q 499 421 286 403 q 467 557 500 503 q 353 610 435 610 q 248 591 300 610 q 154 543 196 572 l 115 608 q 231 665 165 642 q 364 688 296 688 m 790 614 q 692 585 736 614 q 621 503 648 555 q 587 380 593 450 l 954 380 q 913 554 954 495 q 790 614 871 614 m 527 174 q 507 241 514 201 q 499 324 499 281 l 498 357 q 253 294 328 338 q 177 178 177 250 q 212 89 177 118 q 304 59 248 59 q 417 90 356 59 q 527 174 477 120 m 514 795 l 640 988 l 740 988 l 587 795 l 514 795 z "},"b":{"ha":765,"x_min":119,"x_max":696,"o":"m 212 993 l 212 715 l 209 590 q 317 662 261 635 q 430 688 374 688 q 629 598 563 688 q 696 345 696 508 q 657 151 696 233 q 551 26 618 68 q 404 -17 485 -17 q 304 5 356 -17 q 208 65 253 26 l 203 65 l 195 0 l 119 0 l 119 993 l 212 993 m 599 345 q 554 540 599 471 q 410 610 510 610 q 315 585 363 610 q 212 510 266 559 l 212 139 q 305 81 258 100 q 391 62 351 62 q 500 97 453 62 q 573 195 547 131 q 599 345 599 258 z "},"c":{"ha":629,"x_min":67,"x_max":591,"o":"m 581 608 l 532 547 q 463 594 498 578 q 386 610 427 610 q 271 577 322 610 q 192 481 220 543 q 163 336 163 418 q 190 191 163 253 q 268 95 218 129 q 384 61 318 61 q 547 129 473 61 l 591 67 q 491 5 545 27 q 377 -17 437 -17 q 218 24 288 -17 q 107 145 147 66 q 67 336 67 224 q 110 527 67 448 q 224 648 152 607 q 382 688 296 688 q 581 608 496 688 z "},"ć":{"ha":629,"x_min":67,"x_max":591,"o":"m 581 608 l 532 547 q 463 594 498 578 q 386 610 427 610 q 271 577 322 610 q 192 481 220 543 q 163 336 163 418 q 190 191 163 253 q 268 95 218 129 q 384 61 318 61 q 547 129 473 61 l 591 67 q 491 5 545 27 q 377 -17 437 -17 q 218 24 288 -17 q 107 145 147 66 q 67 336 67 224 q 110 527 67 448 q 224 648 152 607 q 382 688 296 688 q 581 608 496 688 m 336 795 l 461 988 l 562 988 l 408 795 l 336 795 z "},"č":{"ha":629,"x_min":67,"x_max":591,"o":"m 581 608 l 532 547 q 463 594 498 578 q 386 610 427 610 q 271 577 322 610 q 192 481 220 543 q 163 336 163 418 q 190 191 163 253 q 268 95 218 129 q 384 61 318 61 q 547 129 473 61 l 591 67 q 491 5 545 27 q 377 -17 437 -17 q 218 24 288 -17 q 107 145 147 66 q 67 336 67 224 q 110 527 67 448 q 224 648 152 607 q 382 688 296 688 q 581 608 496 688 m 282 988 l 380 857 l 385 857 l 483 988 l 553 988 l 422 795 l 343 795 l 213 988 l 282 988 z "},"ç":{"ha":629,"x_min":67,"x_max":595,"o":"m 463 -170 q 409 -254 463 -223 q 273 -293 355 -285 l 262 -242 q 388 -174 388 -224 q 365 -131 388 -146 q 297 -104 342 -115 l 343 -14 q 201 38 263 -6 q 103 157 138 81 q 67 334 67 233 q 110 524 67 444 q 225 646 153 604 q 384 688 298 688 q 494 666 446 688 q 581 607 541 644 l 532 546 q 463 594 497 577 q 387 610 428 610 q 272 575 323 610 q 192 478 221 541 q 163 334 163 415 q 191 192 163 254 q 269 95 219 130 q 385 61 319 61 q 474 81 432 61 q 551 133 516 100 l 595 71 q 507 13 554 35 q 408 -14 459 -9 l 380 -72 q 440 -107 418 -85 q 463 -170 463 -130 z "},"ĉ":{"ha":629,"x_min":67,"x_max":591,"o":"m 581 608 l 532 547 q 463 594 498 578 q 386 610 427 610 q 271 577 322 610 q 192 481 220 543 q 163 336 163 418 q 190 191 163 253 q 268 95 218 129 q 384 61 318 61 q 547 129 473 61 l 591 67 q 491 5 545 27 q 377 -17 437 -17 q 218 24 288 -17 q 107 145 147 66 q 67 336 67 224 q 110 527 67 448 q 224 648 152 607 q 382 688 296 688 q 581 608 496 688 m 422 988 l 553 795 l 483 795 l 385 926 l 380 926 l 282 795 l 213 795 l 343 988 l 422 988 z "},"ċ":{"ha":629,"x_min":67,"x_max":591,"o":"m 581 608 l 532 547 q 463 594 498 578 q 386 610 427 610 q 271 577 322 610 q 192 481 220 543 q 163 336 163 418 q 190 191 163 253 q 268 95 218 129 q 384 61 318 61 q 547 129 473 61 l 591 67 q 491 5 545 27 q 377 -17 437 -17 q 218 24 288 -17 q 107 145 147 66 q 67 336 67 224 q 110 527 67 448 q 224 648 152 607 q 382 688 296 688 q 581 608 496 688 m 383 954 q 430 935 411 954 q 449 888 449 916 q 430 839 449 857 q 383 820 412 820 q 336 839 355 820 q 317 888 317 857 q 336 935 317 916 q 383 954 355 954 z "},"d":{"ha":765,"x_min":68,"x_max":645,"o":"m 557 609 l 552 727 l 552 993 l 645 993 l 645 0 l 568 0 l 559 82 l 555 82 q 457 11 511 38 q 346 -17 404 -17 q 199 23 262 -17 q 102 143 136 64 q 68 335 68 222 q 107 524 68 444 q 214 646 147 604 q 362 688 281 688 q 461 669 418 688 q 557 609 505 650 m 552 162 l 552 532 q 464 592 507 574 q 376 610 421 610 q 267 575 315 610 q 191 479 218 541 q 163 336 163 416 q 215 134 163 206 q 364 62 267 62 q 459 87 414 62 q 552 162 505 112 z "},"ð":{"ha":751,"x_min":78,"x_max":665,"o":"m 665 354 q 629 160 665 244 q 526 30 592 76 q 372 -17 459 -17 q 227 23 295 -17 q 119 136 159 62 q 78 307 78 210 q 115 469 78 399 q 217 579 152 540 q 364 618 282 618 q 471 593 421 618 q 558 521 522 569 q 501 678 540 609 q 405 804 463 747 l 208 703 l 180 752 l 359 844 q 197 951 293 898 l 241 1010 q 433 882 351 952 l 630 984 l 658 935 l 477 842 q 616 631 566 751 q 665 354 665 512 m 571 431 q 478 519 526 495 q 375 544 430 544 q 263 513 310 544 q 191 428 216 481 q 166 307 166 374 q 194 179 166 235 q 270 92 222 123 q 374 61 318 61 q 485 98 440 61 q 552 200 530 135 q 574 351 574 266 q 571 431 574 389 z "},"ď":{"ha":765,"x_min":68,"x_max":792,"o":"m 557 609 l 552 727 l 552 993 l 645 993 l 645 0 l 568 0 l 559 82 l 555 82 q 457 11 511 38 q 346 -17 404 -17 q 199 23 262 -17 q 102 143 136 64 q 68 335 68 222 q 107 524 68 444 q 214 646 147 604 q 362 688 281 688 q 461 669 418 688 q 557 609 505 650 m 552 162 l 552 532 q 464 592 507 574 q 376 610 421 610 q 267 575 315 610 q 191 479 218 541 q 163 336 163 416 q 215 134 163 206 q 364 62 267 62 q 459 87 414 62 q 552 162 505 112 m 722 1052 l 792 1052 l 791 977 l 775 761 l 727 761 l 722 1052 z "},"đ":{"ha":765,"x_min":68,"x_max":747,"o":"m 645 799 l 645 0 l 566 0 l 558 81 l 555 81 q 458 10 511 37 q 346 -17 405 -17 q 198 23 261 -17 q 102 138 136 62 q 68 321 68 214 q 108 499 68 422 q 216 618 149 576 q 362 661 283 661 q 461 641 418 661 q 557 581 505 622 l 552 699 l 552 799 l 323 799 l 323 857 l 552 857 l 552 993 l 645 993 l 645 857 l 747 857 l 747 805 l 645 799 m 376 582 q 269 548 317 582 q 193 455 220 515 q 165 321 165 395 q 188 183 165 241 q 256 94 212 125 q 364 62 301 62 q 459 87 414 62 q 552 162 505 112 l 552 505 q 464 564 507 546 q 376 582 421 582 z "},"e":{"ha":682,"x_min":66,"x_max":629,"o":"m 629 375 q 625 317 629 338 l 159 317 q 192 180 162 239 q 275 91 222 122 q 395 59 327 59 q 486 72 444 59 q 567 111 528 85 l 601 47 q 501 0 553 18 q 385 -17 450 -17 q 223 25 296 -17 q 109 146 151 66 q 66 335 66 226 q 107 523 66 443 q 216 646 148 604 q 364 689 283 689 q 561 607 493 689 q 629 375 629 526 m 367 614 q 268 586 313 614 q 194 506 223 558 q 159 381 165 453 l 546 381 q 500 555 546 496 q 367 614 454 614 z "},"é":{"ha":682,"x_min":66,"x_max":629,"o":"m 629 375 q 625 317 629 338 l 159 317 q 192 180 162 239 q 275 91 222 122 q 395 59 327 59 q 486 72 444 59 q 567 111 528 85 l 601 47 q 501 0 553 18 q 385 -17 450 -17 q 223 25 296 -17 q 109 146 151 66 q 66 335 66 226 q 107 523 66 443 q 216 646 148 604 q 364 689 283 689 q 561 607 493 689 q 629 375 629 526 m 367 614 q 268 586 313 614 q 194 506 223 558 q 159 381 165 453 l 546 381 q 500 555 546 496 q 367 614 454 614 m 324 795 l 450 988 l 550 988 l 397 795 l 324 795 z "},"ĕ":{"ha":682,"x_min":66,"x_max":629,"o":"m 629 375 q 625 317 629 338 l 159 317 q 192 180 162 239 q 275 91 222 122 q 395 59 327 59 q 486 72 444 59 q 567 111 528 85 l 601 47 q 501 0 553 18 q 385 -17 450 -17 q 223 25 296 -17 q 109 146 151 66 q 66 335 66 226 q 107 523 66 443 q 216 646 148 604 q 364 689 283 689 q 561 607 493 689 q 629 375 629 526 m 367 614 q 268 586 313 614 q 194 506 223 558 q 159 381 165 453 l 546 381 q 500 555 546 496 q 367 614 454 614 m 260 971 q 295 892 267 924 q 371 859 323 859 q 447 892 419 859 q 481 971 475 924 l 542 971 q 519 890 538 929 q 463 825 500 850 q 371 800 426 800 q 279 825 316 800 q 222 890 241 850 q 200 971 203 929 l 260 971 z "},"ě":{"ha":682,"x_min":66,"x_max":629,"o":"m 629 375 q 625 317 629 338 l 159 317 q 192 180 162 239 q 275 91 222 122 q 395 59 327 59 q 486 72 444 59 q 567 111 528 85 l 601 47 q 501 0 553 18 q 385 -17 450 -17 q 223 25 296 -17 q 109 146 151 66 q 66 335 66 226 q 107 523 66 443 q 216 646 148 604 q 364 689 283 689 q 561 607 493 689 q 629 375 629 526 m 367 614 q 268 586 313 614 q 194 506 223 558 q 159 381 165 453 l 546 381 q 500 555 546 496 q 367 614 454 614 m 271 988 l 368 857 l 374 857 l 471 988 l 541 988 l 410 795 l 332 795 l 201 988 l 271 988 z "},"ê":{"ha":682,"x_min":66,"x_max":629,"o":"m 629 375 q 625 317 629 338 l 159 317 q 192 180 162 239 q 275 91 222 122 q 395 59 327 59 q 486 72 444 59 q 567 111 528 85 l 601 47 q 501 0 553 18 q 385 -17 450 -17 q 223 25 296 -17 q 109 146 151 66 q 66 335 66 226 q 107 523 66 443 q 216 646 148 604 q 364 689 283 689 q 561 607 493 689 q 629 375 629 526 m 367 614 q 268 586 313 614 q 194 506 223 558 q 159 381 165 453 l 546 381 q 500 555 546 496 q 367 614 454 614 m 410 988 l 541 795 l 471 795 l 374 926 l 368 926 l 271 795 l 201 795 l 332 988 l 410 988 z "},"ë":{"ha":682,"x_min":66,"x_max":629,"o":"m 629 375 q 625 317 629 338 l 159 317 q 192 180 162 239 q 275 91 222 122 q 395 59 327 59 q 486 72 444 59 q 567 111 528 85 l 601 47 q 501 0 553 18 q 385 -17 450 -17 q 223 25 296 -17 q 109 146 151 66 q 66 335 66 226 q 107 523 66 443 q 216 646 148 604 q 364 689 283 689 q 561 607 493 689 q 629 375 629 526 m 367 614 q 268 586 313 614 q 194 506 223 558 q 159 381 165 453 l 546 381 q 500 555 546 496 q 367 614 454 614 m 256 944 q 299 927 281 944 q 317 884 317 909 q 299 840 317 857 q 256 823 281 823 q 212 840 230 823 q 195 884 195 857 q 212 927 195 909 q 256 944 230 944 m 486 944 q 530 927 513 944 q 547 884 547 909 q 530 840 547 857 q 486 823 513 823 q 444 840 460 823 q 427 884 427 857 q 444 927 427 909 q 486 944 460 944 z "},"ė":{"ha":682,"x_min":66,"x_max":629,"o":"m 629 375 q 625 317 629 338 l 159 317 q 192 180 162 239 q 275 91 222 122 q 395 59 327 59 q 486 72 444 59 q 567 111 528 85 l 601 47 q 501 0 553 18 q 385 -17 450 -17 q 223 25 296 -17 q 109 146 151 66 q 66 335 66 226 q 107 523 66 443 q 216 646 148 604 q 364 689 283 689 q 561 607 493 689 q 629 375 629 526 m 367 614 q 268 586 313 614 q 194 506 223 558 q 159 381 165 453 l 546 381 q 500 555 546 496 q 367 614 454 614 m 372 954 q 418 935 399 954 q 437 888 437 916 q 419 839 437 857 q 372 820 400 820 q 324 839 343 820 q 305 888 305 857 q 324 935 305 916 q 372 954 343 954 z "},"è":{"ha":682,"x_min":66,"x_max":629,"o":"m 629 375 q 625 317 629 338 l 159 317 q 192 180 162 239 q 275 91 222 122 q 395 59 327 59 q 486 72 444 59 q 567 111 528 85 l 601 47 q 501 0 553 18 q 385 -17 450 -17 q 223 25 296 -17 q 109 146 151 66 q 66 335 66 226 q 107 523 66 443 q 216 646 148 604 q 364 689 283 689 q 561 607 493 689 q 629 375 629 526 m 367 614 q 268 586 313 614 q 194 506 223 558 q 159 381 165 453 l 546 381 q 500 555 546 496 q 367 614 454 614 m 281 988 l 408 795 l 334 795 l 182 988 l 281 988 z "},"ē":{"ha":682,"x_min":66,"x_max":629,"o":"m 629 375 q 625 317 629 338 l 159 317 q 192 180 162 239 q 275 91 222 122 q 395 59 327 59 q 486 72 444 59 q 567 111 528 85 l 601 47 q 501 0 553 18 q 385 -17 450 -17 q 223 25 296 -17 q 109 146 151 66 q 66 335 66 226 q 107 523 66 443 q 216 646 148 604 q 364 689 283 689 q 561 607 493 689 q 629 375 629 526 m 367 614 q 268 586 313 614 q 194 506 223 558 q 159 381 165 453 l 546 381 q 500 555 546 496 q 367 614 454 614 m 536 905 l 536 838 l 206 838 l 206 905 l 536 905 z "},"ę":{"ha":682,"x_min":67,"x_max":629,"o":"m 629 375 q 625 317 629 338 l 159 317 q 192 182 162 241 q 275 91 222 123 q 395 59 327 59 q 568 115 486 59 l 602 52 q 480 -58 515 -11 q 446 -152 446 -105 q 466 -201 446 -184 q 513 -219 485 -219 q 543 -215 530 -219 q 570 -201 557 -210 l 596 -250 q 549 -274 578 -264 q 496 -285 519 -285 q 409 -254 443 -285 q 376 -169 376 -224 q 401 -78 376 -121 q 460 -5 427 -35 q 385 -17 429 -17 q 223 25 296 -17 q 109 148 151 68 q 67 334 67 227 q 109 521 67 440 q 220 645 151 602 q 366 688 288 688 q 507 651 448 688 q 597 543 566 613 q 629 375 629 472 m 368 614 q 271 586 316 614 q 195 505 225 557 q 159 381 165 452 l 546 381 q 499 554 546 494 q 368 614 452 614 z "},"f":{"ha":389,"x_min":43,"x_max":425,"o":"m 326 933 q 227 795 227 933 l 227 671 l 374 671 l 374 595 l 227 595 l 227 0 l 135 0 l 135 595 l 43 595 l 43 665 l 135 671 l 135 797 q 181 955 135 900 q 319 1010 228 1010 q 425 987 372 1010 l 404 916 q 326 933 364 933 z "},"g":{"ha":690,"x_min":66,"x_max":674,"o":"m 165 35 q 122 79 138 52 q 106 144 106 106 q 179 262 106 211 l 179 268 q 118 345 142 298 q 93 450 93 392 q 125 580 93 526 q 213 661 157 633 q 340 688 269 688 q 432 671 389 688 l 663 671 l 663 599 l 517 599 q 581 448 581 548 q 550 323 581 376 q 464 241 519 270 q 340 213 409 213 q 284 220 312 213 q 234 239 257 227 q 198 200 210 217 q 186 157 186 184 q 214 99 186 120 q 309 78 242 78 l 454 78 q 622 38 570 78 q 674 -85 674 -1 q 634 -199 674 -146 q 519 -284 594 -252 q 342 -315 444 -315 q 137 -268 207 -315 q 66 -132 66 -220 q 93 -44 66 -87 q 165 30 119 -1 l 165 35 m 340 618 q 227 575 269 618 q 184 450 184 532 q 205 358 184 397 q 261 299 226 319 q 340 278 297 278 q 417 299 382 278 q 473 358 452 319 q 494 450 494 397 q 452 576 494 534 q 340 618 410 618 m 583 -98 q 548 -24 583 -47 q 439 0 513 0 l 312 0 q 227 11 268 0 q 169 -51 188 -16 q 151 -121 151 -85 q 203 -213 151 -180 q 356 -247 255 -247 q 476 -226 424 -247 q 555 -171 528 -205 q 583 -98 583 -136 z "},"ğ":{"ha":690,"x_min":66,"x_max":674,"o":"m 235 971 q 269 892 241 924 q 345 859 297 859 q 421 892 393 859 q 456 971 450 924 l 516 971 q 493 889 512 928 q 437 825 475 850 q 345 800 400 800 q 253 825 290 800 q 197 889 216 850 q 174 971 178 928 l 235 971 m 165 35 q 122 79 138 52 q 106 144 106 106 q 179 262 106 211 l 179 268 q 118 345 142 298 q 93 450 93 392 q 125 580 93 526 q 213 661 157 633 q 340 688 269 688 q 432 671 389 688 l 663 671 l 663 599 l 517 599 q 581 448 581 548 q 550 323 581 376 q 464 241 519 270 q 340 213 409 213 q 284 220 312 213 q 234 239 257 227 q 198 200 210 217 q 186 157 186 184 q 214 99 186 120 q 309 78 242 78 l 454 78 q 622 38 570 78 q 674 -85 674 -1 q 634 -199 674 -146 q 519 -284 594 -252 q 342 -315 444 -315 q 137 -268 207 -315 q 66 -132 66 -220 q 93 -44 66 -87 q 165 30 119 -1 l 165 35 m 340 618 q 227 575 269 618 q 184 450 184 532 q 205 358 184 397 q 261 299 226 319 q 340 278 297 278 q 417 299 382 278 q 473 358 452 319 q 494 450 494 397 q 452 576 494 534 q 340 618 410 618 m 583 -98 q 548 -24 583 -47 q 439 0 513 0 l 312 0 q 227 11 268 0 q 169 -51 188 -16 q 151 -121 151 -85 q 203 -213 151 -180 q 356 -247 255 -247 q 476 -226 424 -247 q 555 -171 528 -205 q 583 -98 583 -136 z "},"ǧ":{"ha":690,"x_min":66,"x_max":674,"o":"m 165 35 q 122 79 138 52 q 106 144 106 106 q 179 262 106 211 l 179 268 q 118 345 142 298 q 93 450 93 392 q 125 580 93 526 q 213 661 157 633 q 340 688 269 688 q 432 671 389 688 l 663 671 l 663 599 l 517 599 q 581 448 581 548 q 550 323 581 376 q 464 241 519 270 q 340 213 409 213 q 284 220 312 213 q 234 239 257 227 q 198 200 210 217 q 186 157 186 184 q 214 99 186 120 q 309 78 242 78 l 454 78 q 622 38 570 78 q 674 -85 674 -1 q 634 -199 674 -146 q 519 -284 594 -252 q 342 -315 444 -315 q 137 -268 207 -315 q 66 -132 66 -220 q 93 -44 66 -87 q 165 30 119 -1 l 165 35 m 340 618 q 227 575 269 618 q 184 450 184 532 q 205 358 184 397 q 261 299 226 319 q 340 278 297 278 q 417 299 382 278 q 473 358 452 319 q 494 450 494 397 q 452 576 494 534 q 340 618 410 618 m 583 -98 q 548 -24 583 -47 q 439 0 513 0 l 312 0 q 227 11 268 0 q 169 -51 188 -16 q 151 -121 151 -85 q 203 -213 151 -180 q 356 -247 255 -247 q 476 -226 424 -247 q 555 -171 528 -205 q 583 -98 583 -136 m 270 988 l 368 857 l 373 857 l 471 988 l 541 988 l 410 795 l 331 795 l 201 988 l 270 988 z "},"ĝ":{"ha":690,"x_min":66,"x_max":674,"o":"m 384 988 l 515 795 l 446 795 l 348 926 l 342 926 l 245 795 l 175 795 l 307 988 l 384 988 m 165 35 q 122 79 138 52 q 106 144 106 106 q 179 262 106 211 l 179 268 q 118 345 142 298 q 93 450 93 392 q 125 580 93 526 q 213 661 157 633 q 340 688 269 688 q 432 671 389 688 l 663 671 l 663 599 l 517 599 q 581 448 581 548 q 550 323 581 376 q 464 241 519 270 q 340 213 409 213 q 284 220 312 213 q 234 239 257 227 q 198 200 210 217 q 186 157 186 184 q 214 99 186 120 q 309 78 242 78 l 454 78 q 622 38 570 78 q 674 -85 674 -1 q 634 -199 674 -146 q 519 -284 594 -252 q 342 -315 444 -315 q 137 -268 207 -315 q 66 -132 66 -220 q 93 -44 66 -87 q 165 30 119 -1 l 165 35 m 340 618 q 227 575 269 618 q 184 450 184 532 q 205 358 184 397 q 261 299 226 319 q 340 278 297 278 q 417 299 382 278 q 473 358 452 319 q 494 450 494 397 q 452 576 494 534 q 340 618 410 618 m 583 -98 q 548 -24 583 -47 q 439 0 513 0 l 312 0 q 227 11 268 0 q 169 -51 188 -16 q 151 -121 151 -85 q 203 -213 151 -180 q 356 -247 255 -247 q 476 -226 424 -247 q 555 -171 528 -205 q 583 -98 583 -136 z "},"ġ":{"ha":690,"x_min":66,"x_max":674,"o":"m 345 954 q 392 935 374 954 q 411 888 411 916 q 393 839 411 857 q 345 820 374 820 q 298 839 316 820 q 279 888 279 857 q 298 935 279 916 q 345 954 317 954 m 165 35 q 122 79 138 52 q 106 144 106 106 q 179 262 106 211 l 179 268 q 118 345 142 298 q 93 450 93 392 q 125 580 93 526 q 213 661 157 633 q 340 688 269 688 q 432 671 389 688 l 663 671 l 663 599 l 517 599 q 581 448 581 548 q 550 323 581 376 q 464 241 519 270 q 340 213 409 213 q 284 220 312 213 q 234 239 257 227 q 198 200 210 217 q 186 157 186 184 q 214 99 186 120 q 309 78 242 78 l 454 78 q 622 38 570 78 q 674 -85 674 -1 q 634 -199 674 -146 q 519 -284 594 -252 q 342 -315 444 -315 q 137 -268 207 -315 q 66 -132 66 -220 q 93 -44 66 -87 q 165 30 119 -1 l 165 35 m 340 618 q 227 575 269 618 q 184 450 184 532 q 205 358 184 397 q 261 299 226 319 q 340 278 297 278 q 417 299 382 278 q 473 358 452 319 q 494 450 494 397 q 452 576 494 534 q 340 618 410 618 m 583 -98 q 548 -24 583 -47 q 439 0 513 0 l 312 0 q 227 11 268 0 q 169 -51 188 -16 q 151 -121 151 -85 q 203 -213 151 -180 q 356 -247 255 -247 q 476 -226 424 -247 q 555 -171 528 -205 q 583 -98 583 -136 z "},"h":{"ha":746,"x_min":119,"x_max":640,"o":"m 212 993 l 212 715 l 210 573 q 319 659 267 629 q 437 688 372 688 q 591 624 543 688 q 640 429 640 560 l 640 0 l 548 0 l 548 416 q 516 562 548 517 q 410 607 484 607 q 315 581 358 607 q 212 494 271 555 l 212 0 l 119 0 l 119 993 l 212 993 z "},"ħ":{"ha":746,"x_min":15,"x_max":640,"o":"m 437 661 q 590 595 541 661 q 640 400 640 530 l 640 0 l 548 0 l 548 388 q 515 534 548 488 q 410 580 483 580 q 315 553 358 580 q 212 467 272 527 l 212 0 l 119 0 l 119 799 l 15 799 l 15 850 l 119 857 l 119 993 l 212 993 l 212 857 l 469 857 l 469 799 l 212 799 l 212 688 l 210 545 q 319 631 267 601 q 437 661 372 661 z "},"ĥ":{"ha":746,"x_min":-11,"x_max":640,"o":"m 123 1191 l 212 1191 l 345 1040 l 268 1040 l 170 1137 l 165 1137 l 67 1040 l -11 1040 l 123 1191 m 212 993 l 212 715 l 210 573 q 319 659 267 629 q 437 688 372 688 q 590 623 541 688 q 640 428 640 558 l 640 0 l 548 0 l 548 415 q 515 561 548 515 q 410 607 483 607 q 315 581 358 607 q 212 494 271 555 l 212 0 l 119 0 l 119 993 l 212 993 z "},"i":{"ha":332,"x_min":98,"x_max":237,"o":"m 168 951 q 217 933 197 951 q 237 885 237 915 q 217 838 237 857 q 168 820 197 820 q 118 838 138 820 q 98 885 98 857 q 118 933 98 915 q 168 951 138 951 m 212 671 l 212 0 l 119 0 l 119 671 l 212 671 z "},"ı":{"ha":332,"x_min":119,"x_max":212,"o":"m 212 671 l 212 0 l 119 0 l 119 671 l 212 671 z "},"í":{"ha":332,"x_min":119,"x_max":345,"o":"m 212 671 l 212 0 l 119 0 l 119 671 l 212 671 m 119 795 l 244 988 l 345 988 l 191 795 l 119 795 z "},"î":{"ha":332,"x_min":-4,"x_max":336,"o":"m 212 671 l 212 0 l 119 0 l 119 671 l 212 671 m 205 988 l 336 795 l 266 795 l 168 926 l 163 926 l 65 795 l -4 795 l 126 988 l 205 988 z "},"ï":{"ha":332,"x_min":-11,"x_max":342,"o":"m 212 671 l 212 0 l 119 0 l 119 671 l 212 671 m 50 944 q 94 927 76 944 q 111 884 111 909 q 94 840 111 857 q 50 823 76 823 q 7 840 24 823 q -11 884 -11 857 q 7 927 -11 909 q 50 944 24 944 m 281 944 q 325 927 307 944 q 342 884 342 909 q 325 840 342 857 q 281 823 308 823 q 238 840 255 823 q 221 884 221 857 q 238 927 221 909 q 281 944 255 944 z "},"ì":{"ha":332,"x_min":-24,"x_max":212,"o":"m 212 671 l 212 0 l 119 0 l 119 671 l 212 671 m 76 988 l 202 795 l 129 795 l -24 988 l 76 988 z "},"ĳ":{"ha":665,"x_min":98,"x_max":570,"o":"m 168 951 q 217 933 197 951 q 237 885 237 915 q 217 838 237 857 q 168 820 197 820 q 118 838 138 820 q 98 885 98 857 q 118 933 98 915 q 168 951 138 951 m 212 671 l 212 0 l 119 0 l 119 671 l 212 671 m 500 951 q 550 933 530 951 q 570 885 570 915 q 549 838 570 857 q 500 820 529 820 q 451 838 471 820 q 431 885 431 857 q 451 933 431 915 q 500 951 471 951 m 546 671 l 546 -98 q 505 -255 546 -202 q 375 -308 464 -308 q 281 -291 323 -308 l 301 -220 q 367 -231 336 -231 q 434 -198 416 -231 q 452 -96 452 -164 l 452 671 l 546 671 z "},"ī":{"ha":332,"x_min":1,"x_max":331,"o":"m 212 671 l 212 0 l 119 0 l 119 671 l 212 671 m 331 905 l 331 838 l 1 838 l 1 905 l 331 905 z "},"į":{"ha":332,"x_min":52,"x_max":274,"o":"m 165 951 q 214 933 194 951 q 235 885 235 915 q 214 838 235 857 q 165 820 194 820 q 116 838 136 820 q 96 885 96 857 q 116 933 96 915 q 165 951 136 951 m 212 671 l 212 0 q 148 -73 171 -35 q 124 -152 124 -112 q 143 -201 124 -184 q 191 -219 163 -219 q 219 -215 206 -219 q 248 -201 233 -210 l 274 -250 q 226 -274 255 -264 q 173 -285 197 -285 q 86 -254 120 -285 q 52 -169 52 -224 q 76 -81 52 -119 q 140 0 100 -42 l 119 0 l 119 671 l 212 671 z "},"ĩ":{"ha":332,"x_min":-19,"x_max":350,"o":"m 212 671 l 212 0 l 119 0 l 119 671 l 212 671 m 182 900 q 217 877 204 884 q 243 869 230 869 q 277 888 264 869 q 295 943 289 907 l 350 943 q 318 844 345 883 q 244 806 292 806 q 199 816 219 806 q 153 846 178 827 q 117 870 132 863 q 87 878 102 878 q 54 860 66 878 q 37 806 42 842 l -19 806 q 13 904 -14 865 q 86 943 39 943 q 134 931 113 943 q 182 900 155 920 z "},"j":{"ha":333,"x_min":-52,"x_max":237,"o":"m 168 951 q 217 933 197 951 q 237 885 237 915 q 217 838 237 857 q 168 820 197 820 q 119 838 139 820 q 98 885 98 857 q 118 933 98 915 q 168 951 138 951 m 214 671 l 214 -98 q 173 -255 214 -202 q 43 -308 132 -308 q -52 -291 -9 -308 l -31 -220 q 35 -231 3 -231 q 102 -198 84 -231 q 120 -96 120 -164 l 120 671 l 214 671 z "},"ȷ":{"ha":333,"x_min":-52,"x_max":214,"o":"m 214 671 l 214 -98 q 173 -255 214 -202 q 43 -308 132 -308 q -52 -291 -9 -308 l -31 -220 q 35 -231 3 -231 q 102 -198 84 -231 q 120 -96 120 -164 l 120 671 l 214 671 z "},"ĵ":{"ha":333,"x_min":-52,"x_max":338,"o":"m 214 671 l 214 -98 q 173 -255 214 -202 q 43 -308 132 -308 q -52 -291 -9 -308 l -31 -220 q 35 -231 3 -231 q 102 -198 84 -231 q 120 -96 120 -164 l 120 671 l 214 671 m 208 988 l 338 795 l 269 795 l 171 926 l 165 926 l 68 795 l -1 795 l 129 988 l 208 988 z "},"k":{"ha":670,"x_min":119,"x_max":656,"o":"m 211 993 l 211 296 l 215 296 l 519 671 l 623 671 l 400 404 l 656 0 l 554 0 l 347 338 l 211 179 l 211 0 l 119 0 l 119 993 l 211 993 z "},"ĸ":{"ha":670,"x_min":119,"x_max":656,"o":"m 212 671 l 212 294 l 216 294 l 519 671 l 623 671 l 402 404 l 656 0 l 554 0 l 347 336 l 212 176 l 212 0 l 119 0 l 119 671 l 212 671 z "},"l":{"ha":344,"x_min":119,"x_max":281,"o":"m 212 993 l 212 109 q 221 73 212 85 q 243 61 229 61 q 268 64 254 61 l 281 -7 q 224 -17 258 -17 q 145 17 170 -17 q 119 117 119 50 l 119 993 l 212 993 z "},"ĺ":{"ha":344,"x_min":119,"x_max":357,"o":"m 212 993 l 212 109 q 221 73 212 85 q 243 61 229 61 q 268 64 254 61 l 281 -7 q 224 -17 258 -17 q 145 17 170 -17 q 119 117 119 50 l 119 993 l 212 993 m 122 1055 l 247 1208 l 357 1208 l 201 1055 l 122 1055 z "},"ľ":{"ha":382,"x_min":119,"x_max":389,"o":"m 319 1052 l 389 1052 l 387 977 l 372 761 l 323 761 l 319 1052 m 212 993 l 212 109 q 221 73 212 85 q 243 61 229 61 q 268 64 254 61 l 281 -7 q 224 -17 258 -17 q 145 17 170 -17 q 119 117 119 50 l 119 993 l 212 993 z "},"ŀ":{"ha":344,"x_min":119,"x_max":474,"o":"m 212 993 l 212 109 q 221 73 212 85 q 243 61 229 61 q 268 64 254 61 l 281 -7 q 224 -17 258 -17 q 145 17 170 -17 q 119 117 119 50 l 119 993 l 212 993 m 474 447 q 453 392 474 414 q 401 370 431 370 q 350 392 371 370 q 328 447 328 414 q 350 504 328 481 q 401 526 371 526 q 453 504 432 526 q 474 447 474 481 z "},"ł":{"ha":351,"x_min":35,"x_max":316,"o":"m 217 109 q 225 73 217 85 q 248 61 234 61 q 272 64 259 61 l 286 -7 q 228 -17 260 -17 q 149 17 174 -17 q 123 117 123 50 l 123 478 l 35 421 l 35 503 l 123 559 l 123 993 l 217 993 l 217 610 l 316 674 l 316 592 l 217 528 l 217 109 z "},"m":{"ha":1142,"x_min":119,"x_max":1031,"o":"m 197 671 l 205 572 l 210 572 q 311 657 258 625 q 419 688 364 688 q 540 655 496 688 q 604 558 583 623 q 718 655 663 622 q 828 688 772 688 q 982 624 933 688 q 1031 430 1031 560 l 1031 0 l 939 0 l 939 417 q 907 562 939 517 q 804 607 876 607 q 717 580 762 607 q 622 496 672 553 l 622 0 l 530 0 l 530 417 q 498 562 530 517 q 394 607 467 607 q 212 494 312 607 l 212 0 l 119 0 l 119 671 l 197 671 z "},"n":{"ha":751,"x_min":119,"x_max":640,"o":"m 197 671 l 205 572 l 210 572 q 319 658 265 628 q 437 688 372 688 q 592 625 543 688 q 640 430 640 561 l 640 0 l 548 0 l 548 417 q 534 526 548 485 q 491 587 521 568 q 410 607 461 607 q 315 581 358 607 q 212 494 271 555 l 212 0 l 119 0 l 119 671 l 197 671 z "},"ń":{"ha":751,"x_min":119,"x_max":640,"o":"m 197 671 l 205 572 l 210 572 q 319 658 265 628 q 437 688 372 688 q 592 625 543 688 q 640 430 640 561 l 640 0 l 548 0 l 548 417 q 534 526 548 485 q 491 587 521 568 q 410 607 461 607 q 315 581 358 607 q 212 494 271 555 l 212 0 l 119 0 l 119 671 l 197 671 m 333 795 l 458 988 l 559 988 l 406 795 l 333 795 z "},"ŉ":{"ha":751,"x_min":-1,"x_max":640,"o":"m 197 671 l 205 572 l 210 572 q 319 658 265 628 q 437 688 372 688 q 592 625 543 688 q 640 430 640 561 l 640 0 l 548 0 l 548 417 q 534 526 548 485 q 491 587 521 568 q 410 607 461 607 q 315 581 358 607 q 212 494 271 555 l 212 0 l 119 0 l 119 671 l 197 671 m 118 975 q 102 973 113 973 q 51 992 71 973 q 30 1044 30 1010 q 52 1096 30 1076 q 104 1115 73 1115 q 168 1083 144 1115 q 191 995 191 1050 q 145 842 191 911 q 24 737 100 772 l -1 791 q 85 867 52 816 q 118 975 117 918 z "},"ň":{"ha":751,"x_min":119,"x_max":640,"o":"m 197 671 l 205 572 l 210 572 q 319 658 265 628 q 437 688 372 688 q 592 625 543 688 q 640 430 640 561 l 640 0 l 548 0 l 548 417 q 534 526 548 485 q 491 587 521 568 q 410 607 461 607 q 315 581 358 607 q 212 494 271 555 l 212 0 l 119 0 l 119 671 l 197 671 m 279 988 l 377 857 l 382 857 l 480 988 l 550 988 l 419 795 l 340 795 l 210 988 l 279 988 z "},"ñ":{"ha":751,"x_min":119,"x_max":640,"o":"m 197 671 l 205 572 l 210 572 q 319 658 265 628 q 437 688 372 688 q 592 625 543 688 q 640 430 640 561 l 640 0 l 548 0 l 548 417 q 534 526 548 485 q 491 587 521 568 q 410 607 461 607 q 315 581 358 607 q 212 494 271 555 l 212 0 l 119 0 l 119 671 l 197 671 m 396 900 q 431 877 418 884 q 458 869 444 869 q 491 888 479 869 q 509 943 503 907 l 564 943 q 533 844 559 883 q 458 806 506 806 q 413 816 433 806 q 367 846 393 827 q 331 870 346 863 q 302 878 317 878 q 269 860 281 878 q 251 806 256 842 l 195 806 q 227 904 200 865 q 300 943 254 943 q 348 931 327 943 q 396 900 370 920 z "},"o":{"ha":749,"x_min":68,"x_max":682,"o":"m 682 335 q 640 146 682 226 q 529 25 599 66 q 374 -17 458 -17 q 220 25 290 -17 q 109 146 150 66 q 68 335 68 226 q 109 526 68 446 q 219 647 150 606 q 374 688 289 688 q 529 647 458 688 q 640 526 599 606 q 682 335 682 446 m 586 335 q 559 479 586 417 q 484 576 532 542 q 374 610 436 610 q 264 576 311 610 q 190 479 216 542 q 163 335 163 417 q 190 192 163 254 q 264 95 216 130 q 374 61 311 61 q 484 95 436 61 q 559 192 532 130 q 586 335 586 254 z "},"ó":{"ha":749,"x_min":68,"x_max":682,"o":"m 682 335 q 640 146 682 226 q 529 25 599 66 q 374 -17 458 -17 q 220 25 290 -17 q 109 146 150 66 q 68 335 68 226 q 109 526 68 446 q 219 647 150 606 q 374 688 289 688 q 529 647 458 688 q 640 526 599 606 q 682 335 682 446 m 586 335 q 559 479 586 417 q 484 576 532 542 q 374 610 436 610 q 264 576 311 610 q 190 479 216 542 q 163 335 163 417 q 190 192 163 254 q 264 95 216 130 q 374 61 311 61 q 484 95 436 61 q 559 192 532 130 q 586 335 586 254 m 328 795 l 453 988 l 553 988 l 400 795 l 328 795 z "},"ô":{"ha":749,"x_min":68,"x_max":682,"o":"m 682 335 q 640 146 682 226 q 529 25 599 66 q 374 -17 458 -17 q 220 25 290 -17 q 109 146 150 66 q 68 335 68 226 q 109 526 68 446 q 219 647 150 606 q 374 688 289 688 q 529 647 458 688 q 640 526 599 606 q 682 335 682 446 m 586 335 q 559 479 586 417 q 484 576 532 542 q 374 610 436 610 q 264 576 311 610 q 190 479 216 542 q 163 335 163 417 q 190 192 163 254 q 264 95 216 130 q 374 61 311 61 q 484 95 436 61 q 559 192 532 130 q 586 335 586 254 m 414 988 l 545 795 l 475 795 l 377 926 l 372 926 l 274 795 l 205 795 l 335 988 l 414 988 z "},"ö":{"ha":749,"x_min":68,"x_max":682,"o":"m 682 335 q 640 146 682 226 q 529 25 599 66 q 374 -17 458 -17 q 220 25 290 -17 q 109 146 150 66 q 68 335 68 226 q 109 526 68 446 q 219 647 150 606 q 374 688 289 688 q 529 647 458 688 q 640 526 599 606 q 682 335 682 446 m 586 335 q 559 479 586 417 q 484 576 532 542 q 374 610 436 610 q 264 576 311 610 q 190 479 216 542 q 163 335 163 417 q 190 192 163 254 q 264 95 216 130 q 374 61 311 61 q 484 95 436 61 q 559 192 532 130 q 586 335 586 254 m 259 944 q 302 927 285 944 q 320 884 320 909 q 302 840 320 857 q 259 823 285 823 q 216 840 233 823 q 198 884 198 857 q 216 927 198 909 q 259 944 233 944 m 490 944 q 533 927 516 944 q 551 884 551 909 q 534 840 551 857 q 490 823 517 823 q 447 840 464 823 q 430 884 430 857 q 447 927 430 909 q 490 944 464 944 z "},"ò":{"ha":749,"x_min":68,"x_max":682,"o":"m 682 335 q 640 146 682 226 q 529 25 599 66 q 374 -17 458 -17 q 220 25 290 -17 q 109 146 150 66 q 68 335 68 226 q 109 526 68 446 q 219 647 150 606 q 374 688 289 688 q 529 647 458 688 q 640 526 599 606 q 682 335 682 446 m 586 335 q 559 479 586 417 q 484 576 532 542 q 374 610 436 610 q 264 576 311 610 q 190 479 216 542 q 163 335 163 417 q 190 192 163 254 q 264 95 216 130 q 374 61 311 61 q 484 95 436 61 q 559 192 532 130 q 586 335 586 254 m 285 988 l 411 795 l 338 795 l 185 988 l 285 988 z "},"ơ":{"ha":749,"x_min":67,"x_max":692,"o":"m 692 758 q 565 619 692 656 q 650 499 619 572 q 682 334 682 427 q 640 147 682 227 q 527 25 597 67 q 374 -17 457 -17 q 221 25 292 -17 q 109 147 151 67 q 67 334 67 227 q 109 523 67 443 q 221 646 151 604 q 374 688 292 688 q 504 659 445 688 q 614 751 614 675 q 593 808 614 779 l 662 843 q 692 758 692 802 m 374 610 q 265 575 313 610 q 190 478 217 541 q 163 334 163 415 q 190 192 163 254 q 265 95 217 130 q 374 61 313 61 q 484 95 435 61 q 559 192 532 130 q 586 334 586 254 q 559 478 586 415 q 484 575 532 541 q 374 610 435 610 z "},"ő":{"ha":749,"x_min":68,"x_max":682,"o":"m 682 335 q 640 146 682 226 q 529 25 599 66 q 374 -17 458 -17 q 220 25 290 -17 q 109 146 150 66 q 68 335 68 226 q 109 526 68 446 q 219 647 150 606 q 374 688 289 688 q 529 647 458 688 q 640 526 599 606 q 682 335 682 446 m 586 335 q 559 479 586 417 q 484 576 532 542 q 374 610 436 610 q 264 576 311 610 q 190 479 216 542 q 163 335 163 417 q 190 192 163 254 q 264 95 216 130 q 374 61 311 61 q 484 95 436 61 q 559 192 532 130 q 586 335 586 254 m 369 988 l 250 792 l 184 792 l 284 988 l 369 988 m 565 988 l 446 792 l 381 792 l 480 988 l 565 988 z "},"ō":{"ha":749,"x_min":68,"x_max":682,"o":"m 682 335 q 640 146 682 226 q 529 25 599 66 q 374 -17 458 -17 q 220 25 290 -17 q 109 146 150 66 q 68 335 68 226 q 109 526 68 446 q 219 647 150 606 q 374 688 289 688 q 529 647 458 688 q 640 526 599 606 q 682 335 682 446 m 586 335 q 559 479 586 417 q 484 576 532 542 q 374 610 436 610 q 264 576 311 610 q 190 479 216 542 q 163 335 163 417 q 190 192 163 254 q 264 95 216 130 q 374 61 311 61 q 484 95 436 61 q 559 192 532 130 q 586 335 586 254 m 540 905 l 540 838 l 210 838 l 210 905 l 540 905 z "},"ø":{"ha":749,"x_min":64,"x_max":685,"o":"m 682 334 q 640 147 682 227 q 527 25 597 67 q 374 -17 457 -17 q 270 2 320 -17 q 180 56 220 20 l 109 -31 l 64 4 l 141 97 q 86 203 106 143 q 67 334 67 262 q 109 523 67 443 q 221 646 151 604 q 374 688 292 688 q 478 670 428 688 q 569 616 528 651 l 640 702 l 685 667 l 608 574 q 662 468 643 528 q 682 334 682 407 m 374 612 q 264 578 313 612 q 187 481 215 543 q 159 338 159 418 q 199 168 159 237 l 515 551 q 452 596 488 581 q 374 612 416 612 m 374 59 q 485 93 435 59 q 562 190 534 127 q 589 331 589 252 q 549 503 589 433 l 233 119 q 298 75 262 90 q 374 59 334 59 z "},"õ":{"ha":749,"x_min":68,"x_max":682,"o":"m 682 335 q 640 146 682 226 q 529 25 599 66 q 374 -17 458 -17 q 220 25 290 -17 q 109 146 150 66 q 68 335 68 226 q 109 526 68 446 q 219 647 150 606 q 374 688 289 688 q 529 647 458 688 q 640 526 599 606 q 682 335 682 446 m 586 335 q 559 479 586 417 q 484 576 532 542 q 374 610 436 610 q 264 576 311 610 q 190 479 216 542 q 163 335 163 417 q 190 192 163 254 q 264 95 216 130 q 374 61 311 61 q 484 95 436 61 q 559 192 532 130 q 586 335 586 254 m 391 900 q 426 877 413 884 q 452 869 439 869 q 486 888 473 869 q 504 943 498 907 l 559 943 q 527 844 554 883 q 453 806 500 806 q 408 816 428 806 q 361 846 387 827 q 326 870 340 863 q 296 878 311 878 q 263 860 275 878 q 245 806 251 842 l 190 806 q 221 904 195 865 q 295 943 248 943 q 343 931 321 943 q 391 900 364 920 z "},"œ":{"ha":1171,"x_min":67,"x_max":1118,"o":"m 618 507 q 720 640 656 592 q 860 688 784 688 q 999 650 941 688 q 1087 542 1057 612 q 1118 374 1118 471 q 1114 316 1118 340 l 661 316 q 692 183 662 241 q 773 93 722 125 q 884 60 823 60 q 974 75 932 60 q 1056 118 1015 90 l 1091 52 q 989 1 1041 20 q 873 -17 938 -17 q 724 31 791 -17 q 619 163 656 79 q 516 28 580 74 q 366 -17 452 -17 q 217 25 285 -17 q 108 147 149 67 q 67 334 67 227 q 108 524 67 444 q 217 646 149 604 q 368 688 286 688 q 516 641 448 688 q 618 507 583 594 m 858 614 q 765 585 808 614 q 694 503 722 555 q 661 380 667 450 l 1036 380 q 988 553 1036 493 q 858 614 941 614 m 573 334 q 547 478 573 415 q 474 575 521 541 q 368 610 428 610 q 262 575 309 610 q 189 478 215 541 q 162 334 162 415 q 189 192 162 254 q 262 96 215 130 q 368 61 309 61 q 474 95 428 61 q 547 192 521 130 q 573 334 573 254 z "},"p":{"ha":765,"x_min":119,"x_max":696,"o":"m 212 -292 l 119 -292 l 119 671 l 197 671 l 205 591 l 210 591 q 429 688 327 688 q 628 597 560 688 q 696 345 696 507 q 656 151 696 233 q 549 26 616 69 q 402 -17 482 -17 q 309 3 356 -17 q 210 62 261 24 l 212 -58 l 212 -292 m 599 345 q 407 610 599 610 q 315 585 362 610 q 212 510 269 560 l 212 139 q 305 81 260 99 q 389 62 350 62 q 498 97 450 62 q 572 195 545 131 q 599 345 599 259 z "},"þ":{"ha":765,"x_min":119,"x_max":696,"o":"m 119 -292 l 119 993 l 212 993 l 212 716 l 211 596 q 425 688 328 688 q 573 647 513 688 q 665 528 634 605 q 696 346 696 451 q 656 153 696 235 q 549 27 616 71 q 403 -17 481 -17 q 308 3 355 -17 q 211 60 261 22 l 212 -58 l 212 -292 l 119 -292 m 599 346 q 553 539 599 469 q 408 610 507 610 q 315 585 363 610 q 212 510 268 560 l 212 139 q 306 81 260 99 q 390 62 351 62 q 498 97 450 62 q 572 197 545 132 q 599 346 599 261 z "},"q":{"ha":756,"x_min":68,"x_max":645,"o":"m 557 609 l 560 609 l 570 671 l 645 671 l 645 -292 l 552 -292 l 552 -45 l 557 79 q 457 9 509 35 q 347 -17 405 -17 q 197 23 260 -17 q 101 142 135 63 q 68 334 68 220 q 108 522 68 441 q 215 645 148 602 q 363 688 283 688 q 464 669 420 688 q 557 609 507 650 m 552 162 l 552 532 q 465 592 506 574 q 376 610 423 610 q 268 575 317 610 q 192 477 220 540 q 165 334 165 414 q 217 134 165 205 q 366 62 269 62 q 460 87 416 62 q 552 162 505 111 z "},"r":{"ha":465,"x_min":119,"x_max":469,"o":"m 197 671 l 205 549 l 210 549 q 294 651 244 614 q 399 688 343 688 q 437 685 421 688 q 469 674 454 682 l 451 593 q 419 601 433 599 q 387 604 406 604 q 293 564 340 604 q 212 442 245 525 l 212 0 l 119 0 l 119 671 l 197 671 z "},"ŕ":{"ha":465,"x_min":119,"x_max":469,"o":"m 197 671 l 205 549 l 210 549 q 294 651 244 614 q 399 688 343 688 q 437 685 421 688 q 469 674 454 682 l 451 593 q 419 601 433 599 q 387 604 406 604 q 293 564 340 604 q 212 442 245 525 l 212 0 l 119 0 l 119 671 l 197 671 m 198 795 l 323 988 l 424 988 l 271 795 l 198 795 z "},"ř":{"ha":465,"x_min":75,"x_max":469,"o":"m 197 671 l 205 549 l 210 549 q 294 651 244 614 q 399 688 343 688 q 437 685 421 688 q 469 674 454 682 l 451 593 q 419 601 433 599 q 387 604 406 604 q 293 564 340 604 q 212 442 245 525 l 212 0 l 119 0 l 119 671 l 197 671 m 144 988 l 242 857 l 248 857 l 345 988 l 415 988 l 284 795 l 205 795 l 75 988 l 144 988 z "},"s":{"ha":574,"x_min":43,"x_max":528,"o":"m 294 57 q 372 72 340 57 q 421 114 405 87 q 437 172 437 140 q 415 233 437 208 q 361 274 393 258 q 279 309 328 290 q 175 354 218 331 q 103 413 132 376 q 74 503 74 450 q 101 597 74 555 q 178 664 127 640 q 299 688 229 688 q 409 669 356 688 q 501 616 461 649 l 455 556 q 380 600 417 585 q 299 614 343 614 q 199 585 233 614 q 164 511 164 555 q 185 456 164 479 q 237 417 205 433 q 317 383 268 401 q 428 336 387 357 q 499 276 469 315 q 528 177 528 237 q 500 79 528 123 q 418 9 472 35 q 290 -17 364 -17 q 157 9 221 -17 q 43 76 94 35 l 92 140 q 188 78 142 99 q 294 57 234 57 z "},"ś":{"ha":574,"x_min":43,"x_max":528,"o":"m 294 57 q 372 72 340 57 q 421 114 405 87 q 437 172 437 140 q 415 233 437 208 q 361 274 393 258 q 279 309 328 290 q 175 354 218 331 q 103 413 132 376 q 74 503 74 450 q 101 597 74 555 q 178 664 127 640 q 299 688 229 688 q 409 669 356 688 q 501 616 461 649 l 455 556 q 380 600 417 585 q 299 614 343 614 q 199 585 233 614 q 164 511 164 555 q 185 456 164 479 q 237 417 205 433 q 317 383 268 401 q 428 336 387 357 q 499 276 469 315 q 528 177 528 237 q 500 79 528 123 q 418 9 472 35 q 290 -17 364 -17 q 157 9 221 -17 q 43 76 94 35 l 92 140 q 188 78 142 99 q 294 57 234 57 m 239 795 l 364 988 l 465 988 l 311 795 l 239 795 z "},"š":{"ha":574,"x_min":43,"x_max":528,"o":"m 294 57 q 372 72 340 57 q 421 114 405 87 q 437 172 437 140 q 415 233 437 208 q 361 274 393 258 q 279 309 328 290 q 175 354 218 331 q 103 413 132 376 q 74 503 74 450 q 101 597 74 555 q 178 664 127 640 q 299 688 229 688 q 409 669 356 688 q 501 616 461 649 l 455 556 q 380 600 417 585 q 299 614 343 614 q 199 585 233 614 q 164 511 164 555 q 185 456 164 479 q 237 417 205 433 q 317 383 268 401 q 428 336 387 357 q 499 276 469 315 q 528 177 528 237 q 500 79 528 123 q 418 9 472 35 q 290 -17 364 -17 q 157 9 221 -17 q 43 76 94 35 l 92 140 q 188 78 142 99 q 294 57 234 57 m 185 988 l 283 857 l 288 857 l 386 988 l 456 988 l 325 795 l 246 795 l 116 988 l 185 988 z "},"ŝ":{"ha":574,"x_min":43,"x_max":528,"o":"m 294 57 q 372 72 340 57 q 421 114 405 87 q 437 172 437 140 q 415 233 437 208 q 361 274 393 258 q 279 309 328 290 q 175 354 218 331 q 103 413 132 376 q 74 503 74 450 q 101 597 74 555 q 178 664 127 640 q 299 688 229 688 q 409 669 356 688 q 501 616 461 649 l 455 556 q 380 600 417 585 q 299 614 343 614 q 199 585 233 614 q 164 511 164 555 q 185 456 164 479 q 237 417 205 433 q 317 383 268 401 q 428 336 387 357 q 499 276 469 315 q 528 177 528 237 q 500 79 528 123 q 418 9 472 35 q 290 -17 364 -17 q 157 9 221 -17 q 43 76 94 35 l 92 140 q 188 78 142 99 q 294 57 234 57 m 325 988 l 456 795 l 386 795 l 288 926 l 283 926 l 185 795 l 116 795 l 246 988 l 325 988 z "},"ß":{"ha":781,"x_min":119,"x_max":741,"o":"m 378 1007 q 492 981 444 1007 q 565 910 540 955 q 590 811 590 865 q 580 746 590 776 q 556 695 570 717 q 517 642 542 673 q 474 578 488 604 q 460 521 460 553 q 475 469 460 491 q 513 433 490 448 q 576 397 536 418 q 662 346 629 370 q 718 283 694 323 q 741 184 741 243 q 714 82 741 127 q 638 9 687 36 q 526 -17 590 -17 q 333 53 424 -17 l 372 119 q 447 72 411 87 q 524 57 484 57 q 593 74 564 57 q 636 119 622 91 q 651 179 651 146 q 633 246 651 218 q 588 292 615 274 q 517 334 562 310 q 439 379 468 359 q 390 431 410 399 q 370 511 370 464 q 387 587 370 555 q 436 662 404 620 q 483 732 467 702 q 498 802 498 762 q 467 895 498 859 q 376 930 435 930 q 255 873 298 930 q 212 704 212 816 l 212 0 l 119 0 l 119 725 q 150 874 119 811 q 239 972 181 938 q 378 1007 298 1007 z "},"ə":{"ha":682,"x_min":52,"x_max":614,"o":"m 522 365 q 493 495 519 439 q 420 583 467 551 q 309 614 374 614 q 215 598 258 614 q 129 553 172 583 l 94 616 q 199 669 144 650 q 323 688 255 688 q 473 647 407 688 q 577 526 539 605 q 614 338 614 446 q 577 150 614 230 q 473 26 539 69 q 326 -17 408 -17 q 182 22 244 -17 q 86 133 120 60 q 52 307 52 206 q 56 365 52 340 l 522 365 m 522 300 l 135 300 q 186 120 135 181 q 324 59 237 59 q 460 122 408 59 q 522 300 513 186 z "},"t":{"ha":454,"x_min":35,"x_max":437,"o":"m 35 595 l 35 665 l 141 671 l 153 863 l 231 863 l 231 671 l 418 671 l 418 595 l 231 595 l 231 195 q 255 94 231 128 q 338 60 279 60 q 418 79 368 60 l 437 8 q 319 -17 363 -17 q 179 39 221 -17 q 138 199 138 96 l 138 595 l 35 595 z "},"ť":{"ha":454,"x_min":35,"x_max":437,"o":"m 35 595 l 35 665 l 141 671 l 153 863 l 231 863 l 231 671 l 418 671 l 418 595 l 231 595 l 231 195 q 255 94 231 128 q 338 60 279 60 q 418 79 368 60 l 437 8 q 319 -17 363 -17 q 179 39 221 -17 q 138 199 138 96 l 138 595 l 35 595 m 345 1052 l 415 1052 l 414 977 l 398 761 l 350 761 l 345 1052 z "},"u":{"ha":747,"x_min":110,"x_max":627,"o":"m 203 671 l 203 255 q 216 146 203 187 q 260 84 230 104 q 340 64 290 64 q 438 92 395 64 q 535 187 480 120 l 535 671 l 627 671 l 627 0 l 551 0 l 543 108 l 538 108 q 434 15 486 46 q 315 -17 382 -17 q 159 47 208 -17 q 110 242 110 111 l 110 671 l 203 671 z "},"ú":{"ha":747,"x_min":110,"x_max":627,"o":"m 203 671 l 203 255 q 216 146 203 187 q 260 84 230 104 q 340 64 290 64 q 438 92 395 64 q 535 187 480 120 l 535 671 l 627 671 l 627 0 l 551 0 l 543 108 l 538 108 q 434 15 486 46 q 315 -17 382 -17 q 159 47 208 -17 q 110 242 110 111 l 110 671 l 203 671 m 321 795 l 447 988 l 547 988 l 394 795 l 321 795 z "},"ŭ":{"ha":747,"x_min":110,"x_max":627,"o":"m 203 671 l 203 255 q 216 146 203 187 q 260 84 230 104 q 340 64 290 64 q 438 92 395 64 q 535 187 480 120 l 535 671 l 627 671 l 627 0 l 551 0 l 543 108 l 538 108 q 434 15 486 46 q 315 -17 382 -17 q 159 47 208 -17 q 110 242 110 111 l 110 671 l 203 671 m 258 971 q 292 892 264 924 q 368 859 320 859 q 445 892 416 859 q 479 971 473 924 l 539 971 q 517 890 536 929 q 460 825 498 850 q 368 800 423 800 q 276 825 313 800 q 220 890 239 850 q 197 971 201 929 l 258 971 z "},"û":{"ha":747,"x_min":110,"x_max":627,"o":"m 203 671 l 203 255 q 216 146 203 187 q 260 84 230 104 q 340 64 290 64 q 438 92 395 64 q 535 187 480 120 l 535 671 l 627 671 l 627 0 l 551 0 l 543 108 l 538 108 q 434 15 486 46 q 315 -17 382 -17 q 159 47 208 -17 q 110 242 110 111 l 110 671 l 203 671 m 408 988 l 538 795 l 469 795 l 371 926 l 366 926 l 268 795 l 199 795 l 329 988 l 408 988 z "},"ü":{"ha":747,"x_min":110,"x_max":627,"o":"m 203 671 l 203 255 q 216 146 203 187 q 260 84 230 104 q 340 64 290 64 q 438 92 395 64 q 535 187 480 120 l 535 671 l 627 671 l 627 0 l 551 0 l 543 108 l 538 108 q 434 15 486 46 q 315 -17 382 -17 q 159 47 208 -17 q 110 242 110 111 l 110 671 l 203 671 m 253 944 q 296 927 279 944 q 314 884 314 909 q 296 840 314 857 q 253 823 279 823 q 210 840 227 823 q 192 884 192 857 q 210 927 192 909 q 253 944 227 944 m 484 944 q 527 927 510 944 q 545 884 545 909 q 528 840 545 857 q 484 823 511 823 q 441 840 458 823 q 424 884 424 857 q 441 927 424 909 q 484 944 458 944 z "},"ù":{"ha":747,"x_min":110,"x_max":627,"o":"m 203 671 l 203 255 q 216 146 203 187 q 260 84 230 104 q 340 64 290 64 q 438 92 395 64 q 535 187 480 120 l 535 671 l 627 671 l 627 0 l 551 0 l 543 108 l 538 108 q 434 15 486 46 q 315 -17 382 -17 q 159 47 208 -17 q 110 242 110 111 l 110 671 l 203 671 m 279 988 l 405 795 l 332 795 l 179 988 l 279 988 z "},"ư":{"ha":747,"x_min":110,"x_max":753,"o":"m 753 772 q 717 681 753 714 q 627 633 681 648 l 627 0 l 551 0 l 543 108 l 538 108 q 433 15 486 47 q 315 -17 380 -17 q 160 48 210 -17 q 110 244 110 113 l 110 671 l 203 671 l 203 256 q 235 111 203 157 q 340 64 268 64 q 437 93 393 64 q 535 187 481 121 l 535 671 l 556 671 q 643 700 612 678 q 674 765 674 722 q 655 822 674 792 l 723 857 q 753 772 753 814 z "},"ű":{"ha":747,"x_min":110,"x_max":627,"o":"m 203 671 l 203 255 q 216 146 203 187 q 260 84 230 104 q 340 64 290 64 q 438 92 395 64 q 535 187 480 120 l 535 671 l 627 671 l 627 0 l 551 0 l 543 108 l 538 108 q 434 15 486 46 q 315 -17 382 -17 q 159 47 208 -17 q 110 242 110 111 l 110 671 l 203 671 m 363 988 l 243 792 l 178 792 l 278 988 l 363 988 m 559 988 l 439 792 l 375 792 l 474 988 l 559 988 z "},"ū":{"ha":747,"x_min":110,"x_max":627,"o":"m 203 671 l 203 255 q 216 146 203 187 q 260 84 230 104 q 340 64 290 64 q 438 92 395 64 q 535 187 480 120 l 535 671 l 627 671 l 627 0 l 551 0 l 543 108 l 538 108 q 434 15 486 46 q 315 -17 382 -17 q 159 47 208 -17 q 110 242 110 111 l 110 671 l 203 671 m 534 905 l 534 838 l 203 838 l 203 905 l 534 905 z "},"ģ":{"ha":690,"x_min":66,"x_max":674,"o":"m 165 35 q 122 79 138 52 q 106 144 106 106 q 179 262 106 211 l 179 268 q 118 345 142 298 q 93 450 93 392 q 125 580 93 526 q 213 661 157 633 q 340 688 269 688 q 432 671 389 688 l 663 671 l 663 599 l 517 599 q 581 448 581 548 q 550 323 581 376 q 464 241 519 270 q 340 213 409 213 q 284 220 312 213 q 234 239 257 227 q 198 200 210 217 q 186 157 186 184 q 214 99 186 120 q 309 78 242 78 l 454 78 q 622 38 570 78 q 674 -85 674 -1 q 634 -199 674 -146 q 519 -284 594 -252 q 342 -315 444 -315 q 137 -268 207 -315 q 66 -132 66 -220 q 93 -44 66 -87 q 165 30 119 -1 l 165 35 m 340 618 q 227 575 269 618 q 184 450 184 532 q 205 358 184 397 q 261 299 226 319 q 340 278 297 278 q 417 299 382 278 q 473 358 452 319 q 494 450 494 397 q 452 576 494 534 q 340 618 410 618 m 583 -98 q 548 -24 583 -47 q 439 0 513 0 l 312 0 q 227 11 268 0 q 169 -51 188 -16 q 151 -121 151 -85 q 203 -213 151 -180 q 356 -247 255 -247 q 476 -226 424 -247 q 555 -171 528 -205 q 583 -98 583 -136 m 541 978 l 553 928 q 427 862 427 911 q 447 820 427 835 q 500 798 467 806 l 479 750 q 382 786 413 762 q 352 855 352 810 q 406 940 352 909 q 541 978 460 970 z "},"ĭ":{"ha":332,"x_min":-5,"x_max":336,"o":"m 212 671 l 212 0 l 119 0 l 119 671 l 212 671 m 55 971 q 89 892 61 924 q 165 859 117 859 q 242 892 214 859 q 276 971 270 924 l 336 971 q 314 890 333 929 q 258 825 295 850 q 165 800 220 800 q 73 825 111 800 q 17 890 36 850 q -5 971 -2 929 l 55 971 z "},"ķ":{"ha":670,"x_min":119,"x_max":656,"o":"m 211 993 l 211 296 l 215 296 l 519 671 l 623 671 l 400 404 l 656 0 l 554 0 l 347 338 l 211 179 l 211 0 l 119 0 l 119 993 l 211 993 m 155 -296 l 143 -246 q 269 -180 269 -229 q 249 -138 269 -153 q 195 -116 229 -123 l 217 -68 q 313 -104 283 -79 q 344 -173 344 -128 q 290 -258 344 -227 q 155 -296 236 -288 z "},"ļ":{"ha":344,"x_min":1,"x_max":281,"o":"m 212 993 l 212 109 q 221 73 212 85 q 243 61 229 61 q 268 64 254 61 l 281 -7 q 224 -17 258 -17 q 145 17 170 -17 q 119 117 119 50 l 119 993 l 212 993 m 12 -296 l 1 -246 q 126 -180 126 -229 q 106 -138 126 -153 q 53 -116 87 -123 l 75 -68 q 171 -104 140 -79 q 201 -173 201 -128 q 148 -258 201 -227 q 12 -296 94 -288 z "},"ņ":{"ha":751,"x_min":119,"x_max":640,"o":"m 197 671 l 205 572 l 210 572 q 319 658 265 628 q 437 688 372 688 q 592 625 543 688 q 640 430 640 561 l 640 0 l 548 0 l 548 417 q 534 526 548 485 q 491 587 521 568 q 410 607 461 607 q 315 581 358 607 q 212 494 271 555 l 212 0 l 119 0 l 119 671 l 197 671 m 182 -296 l 170 -246 q 296 -180 296 -229 q 276 -138 296 -153 q 222 -116 256 -123 l 244 -68 q 340 -104 310 -79 q 371 -173 371 -128 q 317 -258 371 -227 q 182 -296 263 -288 z "},"ŏ":{"ha":749,"x_min":68,"x_max":682,"o":"m 682 335 q 640 146 682 226 q 529 25 599 66 q 374 -17 458 -17 q 220 25 290 -17 q 109 146 150 66 q 68 335 68 226 q 109 526 68 446 q 219 647 150 606 q 374 688 289 688 q 529 647 458 688 q 640 526 599 606 q 682 335 682 446 m 586 335 q 559 479 586 417 q 484 576 532 542 q 374 610 436 610 q 264 576 311 610 q 190 479 216 542 q 163 335 163 417 q 190 192 163 254 q 264 95 216 130 q 374 61 311 61 q 484 95 436 61 q 559 192 532 130 q 586 335 586 254 m 264 971 q 298 892 270 924 q 374 859 326 859 q 451 892 422 859 q 485 971 479 924 l 545 971 q 523 890 542 929 q 467 825 504 850 q 374 800 429 800 q 282 825 319 800 q 226 890 245 850 q 203 971 207 929 l 264 971 z "},"ŗ":{"ha":465,"x_min":-51,"x_max":469,"o":"m 197 671 l 205 549 l 210 549 q 294 651 244 614 q 399 688 343 688 q 437 685 421 688 q 469 674 454 682 l 451 593 q 419 601 433 599 q 387 604 406 604 q 293 564 340 604 q 212 442 245 525 l 212 0 l 119 0 l 119 671 l 197 671 m -39 -296 l -51 -246 q 75 -180 75 -229 q 55 -138 75 -153 q 1 -116 35 -123 l 23 -68 q 119 -104 89 -79 q 150 -173 150 -128 q 96 -258 150 -227 q -39 -296 42 -288 z "},"ş":{"ha":574,"x_min":41,"x_max":528,"o":"m 299 614 q 224 600 255 614 q 179 561 194 585 q 164 507 164 536 q 185 454 164 476 q 235 417 205 431 q 317 383 264 403 q 428 336 387 357 q 499 277 469 315 q 528 179 528 239 q 506 91 528 132 q 441 22 484 50 q 339 -14 399 -5 l 310 -72 q 371 -107 349 -85 q 393 -170 393 -130 q 339 -254 393 -223 q 203 -293 285 -284 l 193 -242 q 319 -174 319 -224 q 296 -131 319 -146 q 228 -104 273 -115 l 273 -17 q 148 12 208 -13 q 41 76 87 37 l 90 140 q 186 78 139 100 q 294 57 233 57 q 372 73 340 57 q 421 115 405 88 q 437 174 437 141 q 415 234 437 209 q 361 275 393 259 q 279 310 328 292 q 174 355 216 333 q 103 413 132 376 q 74 502 74 449 q 101 597 74 555 q 178 664 127 640 q 299 688 229 688 q 408 668 355 688 q 501 614 460 648 l 455 555 q 380 599 416 583 q 299 614 343 614 z "},"ţ":{"ha":454,"x_min":35,"x_max":437,"o":"m 380 -170 q 327 -254 380 -223 q 191 -293 273 -285 l 181 -242 q 307 -174 307 -224 q 284 -131 307 -146 q 216 -104 262 -115 l 264 -11 q 167 58 197 4 q 138 199 138 112 l 138 595 l 35 595 l 35 665 l 141 671 l 153 863 l 231 863 l 231 671 l 418 671 l 418 595 l 231 595 l 231 195 q 255 94 231 128 q 338 60 279 60 q 418 79 368 60 l 437 8 q 342 -15 376 -12 l 327 -17 l 298 -72 q 359 -107 337 -85 q 380 -170 380 -130 z "},"ƀ":{"ha":746,"x_min":15,"x_max":696,"o":"m 428 661 q 575 621 515 661 q 665 507 635 581 q 696 332 696 433 q 656 146 696 226 q 549 25 616 67 q 403 -17 481 -17 q 304 5 355 -17 q 208 65 253 26 l 203 65 l 195 0 l 119 0 l 119 799 l 15 799 l 15 850 l 119 857 l 119 993 l 212 993 l 212 857 l 469 857 l 469 799 l 212 799 l 212 688 l 209 562 q 317 634 261 608 q 428 661 373 661 m 390 62 q 498 96 450 62 q 572 190 545 129 q 599 332 599 251 q 553 515 599 448 q 408 582 507 582 q 212 482 319 582 l 212 139 q 304 81 258 100 q 390 62 351 62 z "},"ǆ":{"ha":1343,"x_min":68,"x_max":1307,"o":"m 557 609 l 552 727 l 552 993 l 645 993 l 645 0 l 568 0 l 559 82 l 555 82 q 457 11 511 38 q 346 -17 404 -17 q 199 23 262 -17 q 102 143 136 64 q 68 335 68 222 q 107 524 68 444 q 214 646 147 604 q 362 688 281 688 q 461 669 418 688 q 557 609 505 650 m 552 162 l 552 532 q 464 592 507 574 q 376 610 421 610 q 267 575 315 610 q 191 479 218 541 q 163 336 163 416 q 215 134 163 206 q 364 62 267 62 q 459 87 414 62 q 552 162 505 112 m 1177 595 l 846 595 l 846 671 l 1295 671 l 1295 623 l 924 77 l 1307 77 l 1307 0 l 806 0 l 806 50 l 1177 595 m 956 988 l 1053 857 l 1059 857 l 1156 988 l 1226 988 l 1095 795 l 1017 795 l 886 988 l 956 988 z "},"ǉ":{"ha":677,"x_min":119,"x_max":581,"o":"m 212 993 l 212 109 q 221 73 212 85 q 243 61 229 61 q 268 64 254 61 l 281 -7 q 224 -17 258 -17 q 145 17 170 -17 q 119 117 119 50 l 119 993 l 212 993 m 512 951 q 561 933 541 951 q 581 885 581 915 q 561 838 581 857 q 512 820 541 820 q 463 838 483 820 q 442 885 442 857 q 462 933 442 915 q 512 951 482 951 m 557 671 l 557 -98 q 516 -255 557 -202 q 387 -308 475 -308 q 292 -291 335 -308 l 313 -220 q 378 -231 347 -231 q 446 -198 428 -231 q 464 -96 464 -164 l 464 671 l 557 671 z "},"ǌ":{"ha":1084,"x_min":119,"x_max":989,"o":"m 197 671 l 205 572 l 210 572 q 319 658 265 628 q 437 688 372 688 q 592 625 543 688 q 640 430 640 561 l 640 0 l 548 0 l 548 417 q 534 526 548 485 q 491 587 521 568 q 410 607 461 607 q 315 581 358 607 q 212 494 271 555 l 212 0 l 119 0 l 119 671 l 197 671 m 920 951 q 969 933 949 951 q 989 885 989 915 q 968 838 989 857 q 920 820 948 820 q 870 838 890 820 q 850 885 850 857 q 870 933 850 915 q 920 951 890 951 m 965 671 l 965 -98 q 924 -255 965 -202 q 794 -308 883 -308 q 700 -291 743 -308 l 720 -220 q 786 -231 755 -231 q 853 -198 836 -231 q 871 -96 871 -164 l 871 671 l 965 671 z "},"ǎ":{"ha":704,"x_min":85,"x_max":598,"o":"m 359 610 q 245 591 300 610 q 150 543 191 572 l 111 609 q 230 665 161 642 q 372 688 298 688 q 544 618 490 688 q 598 419 598 547 l 598 0 l 522 0 l 513 83 l 510 83 q 399 8 449 34 q 286 -17 349 -17 q 182 5 227 -17 q 111 70 136 27 q 85 172 85 113 q 186 346 85 283 q 506 424 288 408 q 474 560 507 509 q 359 610 441 610 m 506 157 l 506 360 q 253 300 330 347 q 177 178 177 253 q 213 88 177 117 q 309 59 249 59 q 403 82 358 59 q 506 157 448 106 m 241 988 l 338 857 l 344 857 l 441 988 l 511 988 l 380 795 l 302 795 l 172 988 l 241 988 z "},"ǐ":{"ha":332,"x_min":-4,"x_max":336,"o":"m 212 671 l 212 0 l 119 0 l 119 671 l 212 671 m 65 988 l 163 857 l 168 857 l 266 988 l 336 988 l 205 795 l 126 795 l -4 988 l 65 988 z "},"ǒ":{"ha":749,"x_min":68,"x_max":682,"o":"m 682 335 q 640 146 682 226 q 529 25 599 66 q 374 -17 458 -17 q 220 25 290 -17 q 109 146 150 66 q 68 335 68 226 q 109 526 68 446 q 219 647 150 606 q 374 688 289 688 q 529 647 458 688 q 640 526 599 606 q 682 335 682 446 m 586 335 q 559 479 586 417 q 484 576 532 542 q 374 610 436 610 q 264 576 311 610 q 190 479 216 542 q 163 335 163 417 q 190 192 163 254 q 264 95 216 130 q 374 61 311 61 q 484 95 436 61 q 559 192 532 130 q 586 335 586 254 m 274 988 l 372 857 l 377 857 l 475 988 l 545 988 l 414 795 l 335 795 l 205 988 l 274 988 z "},"ǔ":{"ha":747,"x_min":110,"x_max":627,"o":"m 203 671 l 203 255 q 216 146 203 187 q 260 84 230 104 q 340 64 290 64 q 438 92 395 64 q 535 187 480 120 l 535 671 l 627 671 l 627 0 l 551 0 l 543 108 l 538 108 q 434 15 486 46 q 315 -17 382 -17 q 159 47 208 -17 q 110 242 110 111 l 110 671 l 203 671 m 268 988 l 366 857 l 371 857 l 469 988 l 538 988 l 408 795 l 329 795 l 199 988 l 268 988 z "},"ǖ":{"ha":747,"x_min":110,"x_max":627,"o":"m 203 671 l 203 255 q 216 146 203 187 q 260 84 230 104 q 340 64 290 64 q 438 92 395 64 q 535 187 480 120 l 535 671 l 627 671 l 627 0 l 551 0 l 543 108 l 538 108 q 434 15 486 46 q 315 -17 382 -17 q 159 47 208 -17 q 110 242 110 111 l 110 671 l 203 671 m 538 1097 l 538 1040 l 206 1040 l 206 1097 l 538 1097 m 258 937 q 299 921 283 937 q 315 880 315 904 q 299 839 315 856 q 258 823 283 823 q 217 839 234 823 q 201 880 201 856 q 217 921 201 904 q 258 937 234 937 m 489 937 q 530 921 513 937 q 547 880 547 904 q 530 839 547 856 q 489 823 513 823 q 448 839 465 823 q 432 880 432 856 q 448 921 432 904 q 489 937 465 937 z "},"ǘ":{"ha":747,"x_min":110,"x_max":627,"o":"m 203 671 l 203 255 q 216 146 203 187 q 260 84 230 104 q 340 64 290 64 q 438 92 395 64 q 535 187 480 120 l 535 671 l 627 671 l 627 0 l 551 0 l 543 108 l 538 108 q 434 15 486 46 q 315 -17 382 -17 q 159 47 208 -17 q 110 242 110 111 l 110 671 l 203 671 m 513 1135 l 374 994 l 306 994 l 418 1135 l 513 1135 m 258 937 q 299 921 283 937 q 315 880 315 904 q 299 839 315 856 q 258 823 283 823 q 217 839 234 823 q 201 880 201 856 q 217 921 201 904 q 258 937 234 937 m 489 937 q 530 921 513 937 q 547 880 547 904 q 530 839 547 856 q 489 823 513 823 q 448 839 465 823 q 432 880 432 856 q 448 921 432 904 q 489 937 465 937 z "},"ǚ":{"ha":747,"x_min":110,"x_max":627,"o":"m 203 671 l 203 255 q 216 146 203 187 q 260 84 230 104 q 340 64 290 64 q 438 92 395 64 q 535 187 480 120 l 535 671 l 627 671 l 627 0 l 551 0 l 543 108 l 538 108 q 434 15 486 46 q 315 -17 382 -17 q 159 47 208 -17 q 110 242 110 111 l 110 671 l 203 671 m 280 1135 l 373 1044 l 378 1044 l 471 1135 l 543 1135 l 416 994 l 336 994 l 208 1135 l 280 1135 m 260 937 q 301 921 285 937 q 317 880 317 904 q 301 839 317 856 q 260 823 285 823 q 219 839 236 823 q 203 880 203 856 q 219 921 203 904 q 260 937 236 937 m 491 937 q 532 921 515 937 q 549 880 549 904 q 532 839 549 856 q 491 823 515 823 q 450 839 467 823 q 434 880 434 856 q 450 921 434 904 q 491 937 467 937 z "},"ǜ":{"ha":747,"x_min":110,"x_max":627,"o":"m 203 671 l 203 255 q 216 146 203 187 q 260 84 230 104 q 340 64 290 64 q 438 92 395 64 q 535 187 480 120 l 535 671 l 627 671 l 627 0 l 551 0 l 543 108 l 538 108 q 434 15 486 46 q 315 -17 382 -17 q 159 47 208 -17 q 110 242 110 111 l 110 671 l 203 671 m 374 994 l 235 1135 l 329 1135 l 441 994 l 374 994 m 258 937 q 299 921 283 937 q 315 880 315 904 q 299 839 315 856 q 258 823 283 823 q 217 839 234 823 q 201 880 201 856 q 217 921 201 904 q 258 937 234 937 m 489 937 q 530 921 513 937 q 547 880 547 904 q 530 839 547 856 q 489 823 513 823 q 448 839 465 823 q 432 880 432 856 q 448 921 432 904 q 489 937 465 937 z "},"ǫ":{"ha":749,"x_min":67,"x_max":682,"o":"m 67 334 q 109 523 67 443 q 221 646 151 604 q 374 688 292 688 q 527 646 457 688 q 640 523 597 604 q 682 334 682 443 q 625 121 682 201 q 462 -7 568 41 q 389 -69 416 -28 q 361 -152 361 -110 q 380 -202 361 -184 q 427 -219 399 -219 q 457 -215 444 -219 q 484 -201 471 -210 l 511 -250 q 463 -274 492 -264 q 409 -285 434 -285 q 323 -254 357 -285 q 290 -169 290 -224 q 314 -80 290 -121 q 368 -16 338 -39 q 216 30 284 -13 q 107 152 147 73 q 67 334 67 230 m 586 334 q 559 478 586 415 q 484 575 532 541 q 374 610 435 610 q 265 575 313 610 q 190 478 217 541 q 163 334 163 415 q 190 192 163 254 q 265 95 217 130 q 374 61 313 61 q 484 95 435 61 q 559 192 532 130 q 586 334 586 254 z "},"ǳ":{"ha":1343,"x_min":68,"x_max":1307,"o":"m 557 609 l 552 727 l 552 993 l 645 993 l 645 0 l 568 0 l 559 82 l 555 82 q 457 11 511 38 q 346 -17 404 -17 q 199 23 262 -17 q 102 143 136 64 q 68 335 68 222 q 107 524 68 444 q 214 646 147 604 q 362 688 281 688 q 461 669 418 688 q 557 609 505 650 m 552 162 l 552 532 q 464 592 507 574 q 376 610 421 610 q 267 575 315 610 q 191 479 218 541 q 163 336 163 416 q 215 134 163 206 q 364 62 267 62 q 459 87 414 62 q 552 162 505 112 m 1177 595 l 846 595 l 846 671 l 1295 671 l 1295 623 l 924 77 l 1307 77 l 1307 0 l 806 0 l 806 50 l 1177 595 z "},"ș":{"ha":574,"x_min":43,"x_max":528,"o":"m 294 57 q 372 72 340 57 q 421 114 405 87 q 437 172 437 140 q 415 233 437 208 q 361 274 393 258 q 279 309 328 290 q 175 354 218 331 q 103 413 132 376 q 74 503 74 450 q 101 597 74 555 q 178 664 127 640 q 299 688 229 688 q 409 669 356 688 q 501 616 461 649 l 455 556 q 380 600 417 585 q 299 614 343 614 q 199 585 233 614 q 164 511 164 555 q 185 456 164 479 q 237 417 205 433 q 317 383 268 401 q 428 336 387 357 q 499 276 469 315 q 528 177 528 237 q 500 79 528 123 q 418 9 472 35 q 290 -17 364 -17 q 157 9 221 -17 q 43 76 94 35 l 92 140 q 188 78 142 99 q 294 57 234 57 m 81 -296 l 70 -246 q 195 -180 195 -229 q 176 -138 195 -153 q 122 -116 156 -123 l 144 -68 q 240 -104 210 -79 q 271 -173 271 -128 q 217 -258 271 -227 q 81 -296 163 -288 z "},"ț":{"ha":454,"x_min":35,"x_max":437,"o":"m 35 595 l 35 665 l 141 671 l 153 863 l 231 863 l 231 671 l 418 671 l 418 595 l 231 595 l 231 195 q 255 94 231 128 q 338 60 279 60 q 418 79 368 60 l 437 8 q 319 -17 363 -17 q 179 39 221 -17 q 138 199 138 96 l 138 595 l 35 595 m 81 -296 l 70 -246 q 195 -180 195 -229 q 176 -138 195 -153 q 122 -116 156 -123 l 144 -68 q 240 -104 210 -79 q 271 -173 271 -128 q 217 -258 271 -227 q 81 -296 163 -288 z "},"ɑ":{"ha":765,"x_min":68,"x_max":645,"o":"m 557 607 l 560 607 l 568 671 l 645 671 l 645 0 l 568 0 l 559 82 l 555 82 q 457 11 511 38 q 346 -17 404 -17 q 199 24 261 -17 q 102 145 136 66 q 68 334 68 224 q 109 520 68 439 q 217 645 149 601 q 363 688 285 688 q 464 669 419 688 q 557 607 509 649 m 552 162 l 552 532 q 464 592 507 574 q 376 610 421 610 q 269 574 317 610 q 193 476 220 539 q 165 335 165 414 q 188 190 165 252 q 256 96 212 129 q 364 62 301 62 q 459 87 414 62 q 552 162 505 112 z "},"ɡ":{"ha":768,"x_min":71,"x_max":647,"o":"m 555 -38 l 556 100 q 459 30 511 56 q 348 4 406 4 q 201 44 264 4 q 105 162 139 85 q 71 345 71 239 q 112 525 71 447 q 219 646 152 604 q 366 688 287 688 q 466 669 421 688 q 556 610 511 650 l 560 610 l 568 671 l 647 671 l 647 -43 q 613 -184 647 -125 q 514 -275 579 -243 q 359 -307 450 -307 q 235 -288 296 -307 q 121 -234 174 -269 l 157 -167 q 359 -231 250 -231 q 503 -180 454 -231 q 555 -38 553 -130 m 555 532 q 466 592 509 574 q 377 610 423 610 q 271 575 319 610 q 194 481 222 541 q 166 346 166 420 q 190 206 166 266 q 258 114 213 146 q 366 82 303 82 q 461 107 416 82 q 555 182 507 132 l 555 532 z "},"ḃ":{"ha":765,"x_min":119,"x_max":696,"o":"m 212 993 l 212 715 l 209 590 q 317 662 261 635 q 430 688 374 688 q 629 598 563 688 q 696 345 696 508 q 657 151 696 233 q 551 26 618 68 q 404 -17 485 -17 q 304 5 356 -17 q 208 65 253 26 l 203 65 l 195 0 l 119 0 l 119 993 l 212 993 m 599 345 q 554 540 599 471 q 410 610 510 610 q 315 585 363 610 q 212 510 266 559 l 212 139 q 305 81 258 100 q 391 62 351 62 q 500 97 453 62 q 573 195 547 131 q 599 345 599 258 m 488 954 q 534 935 515 954 q 553 888 553 916 q 535 839 553 857 q 488 820 516 820 q 440 839 459 820 q 421 888 421 857 q 440 935 421 916 q 488 954 459 954 z "},"ḋ":{"ha":765,"x_min":68,"x_max":645,"o":"m 557 609 l 552 727 l 552 993 l 645 993 l 645 0 l 568 0 l 559 82 l 555 82 q 457 11 511 38 q 346 -17 404 -17 q 199 23 262 -17 q 102 143 136 64 q 68 335 68 222 q 107 524 68 444 q 214 646 147 604 q 362 688 281 688 q 461 669 418 688 q 557 609 505 650 m 552 162 l 552 532 q 464 592 507 574 q 376 610 421 610 q 267 575 315 610 q 191 479 218 541 q 163 336 163 416 q 215 134 163 206 q 364 62 267 62 q 459 87 414 62 q 552 162 505 112 m 227 954 q 273 935 254 954 q 292 888 292 916 q 274 839 292 857 q 227 820 255 820 q 179 839 198 820 q 160 888 160 857 q 179 935 160 916 q 227 954 198 954 z "},"ḍ":{"ha":765,"x_min":68,"x_max":645,"o":"m 557 609 l 552 727 l 552 993 l 645 993 l 645 0 l 568 0 l 559 82 l 555 82 q 457 11 511 38 q 346 -17 404 -17 q 199 23 262 -17 q 102 143 136 64 q 68 335 68 222 q 107 524 68 444 q 214 646 147 604 q 362 688 281 688 q 461 669 418 688 q 557 609 505 650 m 552 162 l 552 532 q 464 592 507 574 q 376 610 421 610 q 267 575 315 610 q 191 479 218 541 q 163 336 163 416 q 215 134 163 206 q 364 62 267 62 q 459 87 414 62 q 552 162 505 112 m 417 -146 q 464 -165 445 -146 q 483 -212 483 -184 q 464 -261 483 -243 q 417 -280 446 -280 q 370 -261 389 -280 q 351 -212 351 -243 q 370 -165 351 -184 q 417 -146 389 -146 z "},"ḏ":{"ha":765,"x_min":68,"x_max":645,"o":"m 557 609 l 552 727 l 552 993 l 645 993 l 645 0 l 568 0 l 559 82 l 555 82 q 457 11 511 38 q 346 -17 404 -17 q 199 23 262 -17 q 102 143 136 64 q 68 335 68 222 q 107 524 68 444 q 214 646 147 604 q 362 688 281 688 q 461 669 418 688 q 557 609 505 650 m 552 162 l 552 532 q 464 592 507 574 q 376 610 421 610 q 267 575 315 610 q 191 479 218 541 q 163 336 163 416 q 215 134 163 206 q 364 62 267 62 q 459 87 414 62 q 552 162 505 112 m 548 -105 l 548 -172 l 216 -172 l 216 -105 l 548 -105 z "},"ḟ":{"ha":389,"x_min":43,"x_max":425,"o":"m 326 933 q 227 795 227 933 l 227 671 l 374 671 l 374 595 l 227 595 l 227 0 l 135 0 l 135 595 l 43 595 l 43 665 l 135 671 l 135 797 q 181 955 135 900 q 319 1010 228 1010 q 425 987 372 1010 l 404 916 q 326 933 364 933 m 146 1136 q 193 1117 174 1136 q 212 1070 212 1099 q 194 1021 212 1040 q 146 1002 175 1002 q 99 1021 118 1002 q 80 1070 80 1040 q 99 1117 80 1099 q 146 1136 118 1136 z "},"ḡ":{"ha":690,"x_min":66,"x_max":674,"o":"m 165 35 q 122 79 138 52 q 106 144 106 106 q 179 262 106 211 l 179 268 q 118 345 142 298 q 93 450 93 392 q 125 580 93 526 q 213 661 157 633 q 340 688 269 688 q 432 671 389 688 l 663 671 l 663 599 l 517 599 q 581 448 581 548 q 550 323 581 376 q 464 241 519 270 q 340 213 409 213 q 284 220 312 213 q 234 239 257 227 q 198 200 210 217 q 186 157 186 184 q 214 99 186 120 q 309 78 242 78 l 454 78 q 622 38 570 78 q 674 -85 674 -1 q 634 -199 674 -146 q 519 -284 594 -252 q 342 -315 444 -315 q 137 -268 207 -315 q 66 -132 66 -220 q 93 -44 66 -87 q 165 30 119 -1 l 165 35 m 340 618 q 227 575 269 618 q 184 450 184 532 q 205 358 184 397 q 261 299 226 319 q 340 278 297 278 q 417 299 382 278 q 473 358 452 319 q 494 450 494 397 q 452 576 494 534 q 340 618 410 618 m 583 -98 q 548 -24 583 -47 q 439 0 513 0 l 312 0 q 227 11 268 0 q 169 -51 188 -16 q 151 -121 151 -85 q 203 -213 151 -180 q 356 -247 255 -247 q 476 -226 424 -247 q 555 -171 528 -205 q 583 -98 583 -136 m 536 1082 l 536 1015 l 204 1015 l 204 1082 l 536 1082 z "},"ḥ":{"ha":746,"x_min":119,"x_max":640,"o":"m 212 993 l 212 715 l 210 573 q 319 659 267 629 q 437 688 372 688 q 591 624 543 688 q 640 429 640 560 l 640 0 l 548 0 l 548 416 q 516 562 548 517 q 410 607 484 607 q 315 581 358 607 q 212 494 271 555 l 212 0 l 119 0 l 119 993 l 212 993 m 393 -146 q 440 -164 421 -146 q 459 -212 459 -183 q 440 -261 459 -242 q 393 -279 422 -279 q 346 -261 365 -279 q 327 -212 327 -242 q 346 -164 327 -183 q 393 -146 365 -146 z "},"ḫ":{"ha":746,"x_min":119,"x_max":640,"o":"m 212 993 l 212 715 l 210 573 q 319 659 267 629 q 437 688 372 688 q 591 624 543 688 q 640 429 640 560 l 640 0 l 548 0 l 548 416 q 516 562 548 517 q 410 607 484 607 q 315 581 358 607 q 212 494 271 555 l 212 0 l 119 0 l 119 993 l 212 993 m 283 -113 q 317 -192 289 -159 q 393 -224 345 -224 q 470 -192 441 -224 q 504 -113 498 -159 l 564 -113 q 542 -194 561 -155 q 486 -259 523 -233 q 393 -284 448 -284 q 301 -259 338 -284 q 245 -194 264 -233 q 222 -113 226 -155 l 283 -113 z "},"ḷ":{"ha":344,"x_min":106,"x_max":281,"o":"m 212 993 l 212 109 q 221 73 212 85 q 243 61 229 61 q 268 64 254 61 l 281 -7 q 224 -17 258 -17 q 145 17 170 -17 q 119 117 119 50 l 119 993 l 212 993 m 172 -112 q 219 -131 200 -112 q 238 -178 238 -149 q 219 -227 238 -208 q 172 -245 201 -245 q 125 -227 144 -245 q 106 -178 106 -208 q 125 -131 106 -149 q 172 -112 144 -112 z "},"ḹ":{"ha":344,"x_min":8,"x_max":340,"o":"m 212 993 l 212 109 q 221 73 212 85 q 243 61 229 61 q 268 64 254 61 l 281 -7 q 224 -17 258 -17 q 145 17 170 -17 q 119 117 119 50 l 119 993 l 212 993 m 340 1138 l 340 1071 l 8 1071 l 8 1138 l 340 1138 m 172 -112 q 219 -131 200 -112 q 238 -178 238 -149 q 219 -227 238 -208 q 172 -245 201 -245 q 125 -227 144 -245 q 106 -178 106 -208 q 125 -131 106 -149 q 172 -112 144 -112 z "},"ḻ":{"ha":344,"x_min":8,"x_max":340,"o":"m 212 993 l 212 109 q 221 73 212 85 q 243 61 229 61 q 268 64 254 61 l 281 -7 q 224 -17 258 -17 q 145 17 170 -17 q 119 117 119 50 l 119 993 l 212 993 m 340 -121 l 340 -189 l 8 -189 l 8 -121 l 340 -121 z "},"ṁ":{"ha":1142,"x_min":119,"x_max":1031,"o":"m 197 671 l 205 572 l 210 572 q 311 657 258 625 q 419 688 364 688 q 540 655 496 688 q 604 558 583 623 q 718 655 663 622 q 828 688 772 688 q 982 624 933 688 q 1031 430 1031 560 l 1031 0 l 939 0 l 939 417 q 907 562 939 517 q 804 607 876 607 q 717 580 762 607 q 622 496 672 553 l 622 0 l 530 0 l 530 417 q 498 562 530 517 q 394 607 467 607 q 212 494 312 607 l 212 0 l 119 0 l 119 671 l 197 671 m 576 954 q 623 935 604 954 q 642 888 642 916 q 623 839 642 857 q 576 820 604 820 q 528 839 547 820 q 509 888 509 857 q 528 935 509 916 q 576 954 547 954 z "},"ṃ":{"ha":1142,"x_min":119,"x_max":1031,"o":"m 197 671 l 205 572 l 210 572 q 311 657 258 625 q 419 688 364 688 q 540 655 496 688 q 604 558 583 623 q 718 655 663 622 q 828 688 772 688 q 982 624 933 688 q 1031 430 1031 560 l 1031 0 l 939 0 l 939 417 q 907 562 939 517 q 804 607 876 607 q 717 580 762 607 q 622 496 672 553 l 622 0 l 530 0 l 530 417 q 498 562 530 517 q 394 607 467 607 q 212 494 312 607 l 212 0 l 119 0 l 119 671 l 197 671 m 589 -146 q 636 -164 617 -146 q 655 -212 655 -183 q 636 -261 655 -242 q 589 -279 618 -279 q 542 -261 561 -279 q 523 -212 523 -242 q 542 -164 523 -183 q 589 -146 561 -146 z "},"ṅ":{"ha":751,"x_min":119,"x_max":640,"o":"m 197 671 l 205 572 l 210 572 q 319 658 265 628 q 437 688 372 688 q 592 625 543 688 q 640 430 640 561 l 640 0 l 548 0 l 548 417 q 534 526 548 485 q 491 587 521 568 q 410 607 461 607 q 315 581 358 607 q 212 494 271 555 l 212 0 l 119 0 l 119 671 l 197 671 m 380 954 q 427 935 408 954 q 446 888 446 916 q 428 839 446 857 q 380 820 409 820 q 333 839 352 820 q 314 888 314 857 q 333 935 314 916 q 380 954 352 954 z "},"ṇ":{"ha":751,"x_min":119,"x_max":640,"o":"m 197 671 l 205 572 l 210 572 q 319 658 265 628 q 437 688 372 688 q 592 625 543 688 q 640 430 640 561 l 640 0 l 548 0 l 548 417 q 534 526 548 485 q 491 587 521 568 q 410 607 461 607 q 315 581 358 607 q 212 494 271 555 l 212 0 l 119 0 l 119 671 l 197 671 m 384 -146 q 431 -164 412 -146 q 450 -212 450 -183 q 431 -261 450 -242 q 384 -279 412 -279 q 336 -261 355 -279 q 317 -212 317 -242 q 336 -164 317 -183 q 384 -146 355 -146 z "},"ṉ":{"ha":751,"x_min":119,"x_max":640,"o":"m 197 671 l 205 572 l 210 572 q 319 658 265 628 q 437 688 372 688 q 592 625 543 688 q 640 430 640 561 l 640 0 l 548 0 l 548 417 q 534 526 548 485 q 491 587 521 568 q 410 607 461 607 q 315 581 358 607 q 212 494 271 555 l 212 0 l 119 0 l 119 671 l 197 671 m 548 -162 l 548 -229 l 216 -229 l 216 -162 l 548 -162 z "},"ṗ":{"ha":765,"x_min":119,"x_max":696,"o":"m 212 -292 l 119 -292 l 119 671 l 197 671 l 205 591 l 210 591 q 429 688 327 688 q 628 597 560 688 q 696 345 696 507 q 656 151 696 233 q 549 26 616 69 q 402 -17 482 -17 q 309 3 356 -17 q 210 62 261 24 l 212 -58 l 212 -292 m 599 345 q 407 610 599 610 q 315 585 362 610 q 212 510 269 560 l 212 139 q 305 81 260 99 q 389 62 350 62 q 498 97 450 62 q 572 195 545 131 q 599 345 599 259 m 408 954 q 455 935 436 954 q 474 888 474 916 q 455 839 474 857 q 408 820 437 820 q 361 839 380 820 q 342 888 342 857 q 361 935 342 916 q 408 954 380 954 z "},"ṛ":{"ha":465,"x_min":98,"x_max":469,"o":"m 197 671 l 205 549 l 210 549 q 294 651 244 614 q 399 688 343 688 q 437 685 421 688 q 469 674 454 682 l 451 593 q 419 601 433 599 q 387 604 406 604 q 293 564 340 604 q 212 442 245 525 l 212 0 l 119 0 l 119 671 l 197 671 m 164 -146 q 211 -164 192 -146 q 230 -212 230 -183 q 211 -261 230 -242 q 164 -279 193 -279 q 117 -261 136 -279 q 98 -212 98 -242 q 117 -164 98 -183 q 164 -146 136 -146 z "},"ṝ":{"ha":465,"x_min":98,"x_max":469,"o":"m 197 671 l 205 549 l 210 549 q 294 651 244 614 q 399 688 343 688 q 437 685 421 688 q 469 674 454 682 l 451 593 q 419 601 433 599 q 387 604 406 604 q 293 564 340 604 q 212 442 245 525 l 212 0 l 119 0 l 119 671 l 197 671 m 164 -146 q 211 -164 192 -146 q 230 -212 230 -183 q 211 -261 230 -242 q 164 -279 193 -279 q 117 -261 136 -279 q 98 -212 98 -242 q 117 -164 98 -183 q 164 -146 136 -146 m 456 905 l 456 838 l 124 838 l 124 905 l 456 905 z "},"ṟ":{"ha":465,"x_min":28,"x_max":469,"o":"m 197 671 l 205 549 l 210 549 q 294 651 244 614 q 399 688 343 688 q 437 685 421 688 q 469 674 454 682 l 451 593 q 419 601 433 599 q 387 604 406 604 q 293 564 340 604 q 212 442 245 525 l 212 0 l 119 0 l 119 671 l 197 671 m 360 -162 l 360 -229 l 28 -229 l 28 -162 l 360 -162 z "},"ṡ":{"ha":574,"x_min":43,"x_max":528,"o":"m 294 57 q 372 72 340 57 q 421 114 405 87 q 437 172 437 140 q 415 233 437 208 q 361 274 393 258 q 279 309 328 290 q 175 354 218 331 q 103 413 132 376 q 74 503 74 450 q 101 597 74 555 q 178 664 127 640 q 299 688 229 688 q 409 669 356 688 q 501 616 461 649 l 455 556 q 380 600 417 585 q 299 614 343 614 q 199 585 233 614 q 164 511 164 555 q 185 456 164 479 q 237 417 205 433 q 317 383 268 401 q 428 336 387 357 q 499 276 469 315 q 528 177 528 237 q 500 79 528 123 q 418 9 472 35 q 290 -17 364 -17 q 157 9 221 -17 q 43 76 94 35 l 92 140 q 188 78 142 99 q 294 57 234 57 m 286 954 q 333 935 314 954 q 352 888 352 916 q 333 839 352 857 q 286 820 315 820 q 239 839 258 820 q 220 888 220 857 q 239 935 220 916 q 286 954 258 954 z "},"ṣ":{"ha":574,"x_min":43,"x_max":528,"o":"m 294 57 q 372 72 340 57 q 421 114 405 87 q 437 172 437 140 q 415 233 437 208 q 361 274 393 258 q 279 309 328 290 q 175 354 218 331 q 103 413 132 376 q 74 503 74 450 q 101 597 74 555 q 178 664 127 640 q 299 688 229 688 q 409 669 356 688 q 501 616 461 649 l 455 556 q 380 600 417 585 q 299 614 343 614 q 199 585 233 614 q 164 511 164 555 q 185 456 164 479 q 237 417 205 433 q 317 383 268 401 q 428 336 387 357 q 499 276 469 315 q 528 177 528 237 q 500 79 528 123 q 418 9 472 35 q 290 -17 364 -17 q 157 9 221 -17 q 43 76 94 35 l 92 140 q 188 78 142 99 q 294 57 234 57 m 294 -146 q 341 -164 322 -146 q 360 -212 360 -183 q 341 -261 360 -242 q 294 -279 323 -279 q 247 -261 266 -279 q 228 -212 228 -242 q 247 -164 228 -183 q 294 -146 266 -146 z "},"ṫ":{"ha":454,"x_min":35,"x_max":437,"o":"m 35 595 l 35 665 l 141 671 l 153 863 l 231 863 l 231 671 l 418 671 l 418 595 l 231 595 l 231 195 q 255 94 231 128 q 338 60 279 60 q 418 79 368 60 l 437 8 q 319 -17 363 -17 q 179 39 221 -17 q 138 199 138 96 l 138 595 l 35 595 m 189 1155 q 235 1136 216 1155 q 254 1089 254 1118 q 236 1040 254 1059 q 189 1021 217 1021 q 141 1040 160 1021 q 122 1089 122 1059 q 141 1136 122 1118 q 189 1155 160 1155 z "},"ṭ":{"ha":454,"x_min":35,"x_max":437,"o":"m 35 595 l 35 665 l 141 671 l 153 863 l 231 863 l 231 671 l 418 671 l 418 595 l 231 595 l 231 195 q 255 94 231 128 q 338 60 279 60 q 418 79 368 60 l 437 8 q 319 -17 363 -17 q 179 39 221 -17 q 138 199 138 96 l 138 595 l 35 595 m 265 -146 q 312 -164 293 -146 q 331 -212 331 -183 q 312 -261 331 -242 q 265 -279 294 -279 q 218 -261 237 -279 q 199 -212 199 -242 q 218 -164 199 -183 q 265 -146 237 -146 z "},"ṯ":{"ha":454,"x_min":35,"x_max":437,"o":"m 35 595 l 35 665 l 141 671 l 153 863 l 231 863 l 231 671 l 418 671 l 418 595 l 231 595 l 231 195 q 255 94 231 128 q 338 60 279 60 q 418 79 368 60 l 437 8 q 319 -17 363 -17 q 179 39 221 -17 q 138 199 138 96 l 138 595 l 35 595 m 408 -162 l 408 -229 l 75 -229 l 75 -162 l 408 -162 z "},"ẏ":{"ha":631,"x_min":17,"x_max":614,"o":"m 272 -59 l 289 -6 l 17 671 l 114 671 l 260 279 l 286 210 q 329 91 321 113 l 334 91 q 372 211 345 123 l 393 279 l 522 671 l 614 671 l 356 -67 q 262 -235 319 -173 q 115 -296 205 -296 q 41 -282 77 -296 l 60 -206 q 112 -217 87 -217 q 208 -175 168 -217 q 272 -59 248 -132 m 316 954 q 363 935 344 954 q 382 888 382 916 q 363 839 382 857 q 316 820 345 820 q 269 839 288 820 q 250 888 250 857 q 269 935 250 916 q 316 954 288 954 z "},"ẓ":{"ha":578,"x_min":41,"x_max":542,"o":"m 412 595 l 81 595 l 81 671 l 530 671 l 530 623 l 159 77 l 542 77 l 542 0 l 41 0 l 41 50 l 412 595 m 292 954 q 338 935 319 954 q 357 888 357 916 q 339 839 357 857 q 292 820 320 820 q 244 839 263 820 q 225 888 225 857 q 244 935 225 916 q 292 954 263 954 z "},"ẗ":{"ha":454,"x_min":20,"x_max":437,"o":"m 35 595 l 35 665 l 141 671 l 153 863 l 231 863 l 231 671 l 418 671 l 418 595 l 231 595 l 231 195 q 255 94 231 128 q 338 60 279 60 q 418 79 368 60 l 437 8 q 319 -17 363 -17 q 179 39 221 -17 q 138 199 138 96 l 138 595 l 35 595 m 81 1099 q 125 1082 107 1099 q 142 1039 142 1065 q 125 995 142 1013 q 81 978 107 978 q 38 995 56 978 q 20 1039 20 1013 q 38 1082 20 1065 q 81 1099 56 1099 m 312 1099 q 356 1082 338 1099 q 373 1039 373 1065 q 356 995 373 1013 q 312 978 339 978 q 269 995 286 978 q 252 1039 252 1013 q 269 1082 252 1065 q 312 1099 286 1099 z "},"ạ":{"ha":704,"x_min":85,"x_max":598,"o":"m 359 610 q 245 591 300 610 q 150 543 191 572 l 111 609 q 230 665 161 642 q 372 688 298 688 q 544 618 490 688 q 598 419 598 547 l 598 0 l 522 0 l 513 83 l 510 83 q 399 8 449 34 q 286 -17 349 -17 q 182 5 227 -17 q 111 70 136 27 q 85 172 85 113 q 186 346 85 283 q 506 424 288 408 q 474 560 507 509 q 359 610 441 610 m 506 157 l 506 360 q 253 300 330 347 q 177 178 177 253 q 213 88 177 117 q 309 59 249 59 q 403 82 358 59 q 506 157 448 106 m 342 954 q 389 935 370 954 q 408 888 408 916 q 389 839 408 857 q 342 820 370 820 q 294 839 313 820 q 275 888 275 857 q 294 935 275 916 q 342 954 313 954 z "},"ả":{"ha":704,"x_min":85,"x_max":598,"o":"m 359 610 q 245 591 300 610 q 150 543 191 572 l 111 609 q 230 665 161 642 q 372 688 298 688 q 544 618 490 688 q 598 419 598 547 l 598 0 l 522 0 l 513 83 l 510 83 q 399 8 449 34 q 286 -17 349 -17 q 182 5 227 -17 q 111 70 136 27 q 85 172 85 113 q 186 346 85 283 q 506 424 288 408 q 474 560 507 509 q 359 610 441 610 m 506 157 l 506 360 q 253 300 330 347 q 177 178 177 253 q 213 88 177 117 q 309 59 249 59 q 403 82 358 59 q 506 157 448 106 m 402 882 q 286 944 402 939 l 296 1001 q 429 970 380 998 q 477 892 477 943 q 437 810 477 840 q 332 767 397 781 l 320 813 q 381 840 359 825 q 402 882 402 856 z "},"ấ":{"ha":704,"x_min":85,"x_max":672,"o":"m 359 610 q 245 591 300 610 q 150 543 191 572 l 111 609 q 230 665 161 642 q 372 688 298 688 q 544 618 490 688 q 598 419 598 547 l 598 0 l 522 0 l 513 83 l 510 83 q 399 8 449 34 q 286 -17 349 -17 q 182 5 227 -17 q 111 70 136 27 q 85 172 85 113 q 186 346 85 283 q 506 424 288 408 q 474 560 507 509 q 359 610 441 610 m 506 157 l 506 360 q 253 300 330 347 q 177 178 177 253 q 213 88 177 117 q 309 59 249 59 q 403 82 358 59 q 506 157 448 106 m 672 1044 l 545 888 l 485 888 l 589 1044 l 672 1044 m 406 958 l 522 795 l 455 795 l 370 899 l 365 899 l 280 795 l 214 795 l 329 958 l 406 958 z "},"ầ":{"ha":704,"x_min":85,"x_max":623,"o":"m 359 610 q 245 591 300 610 q 150 543 191 572 l 111 609 q 230 665 161 642 q 372 688 298 688 q 544 618 490 688 q 598 419 598 547 l 598 0 l 522 0 l 513 83 l 510 83 q 399 8 449 34 q 286 -17 349 -17 q 182 5 227 -17 q 111 70 136 27 q 85 172 85 113 q 186 346 85 283 q 506 424 288 408 q 474 560 507 509 q 359 610 441 610 m 506 157 l 506 360 q 253 300 330 347 q 177 178 177 253 q 213 88 177 117 q 309 59 249 59 q 403 82 358 59 q 506 157 448 106 m 562 888 l 435 1044 l 518 1044 l 623 888 l 562 888 m 398 958 l 513 795 l 447 795 l 362 899 l 357 899 l 272 795 l 205 795 l 321 958 l 398 958 z "},"ẩ":{"ha":704,"x_min":85,"x_max":646,"o":"m 359 610 q 245 591 300 610 q 150 543 191 572 l 111 609 q 230 665 161 642 q 372 688 298 688 q 544 618 490 688 q 598 419 598 547 l 598 0 l 522 0 l 513 83 l 510 83 q 399 8 449 34 q 286 -17 349 -17 q 182 5 227 -17 q 111 70 136 27 q 85 172 85 113 q 186 346 85 283 q 506 424 288 408 q 474 560 507 509 q 359 610 441 610 m 506 157 l 506 360 q 253 300 330 347 q 177 178 177 253 q 213 88 177 117 q 309 59 249 59 q 403 82 358 59 q 506 157 448 106 m 576 974 q 553 1016 576 1002 q 479 1034 530 1030 l 486 1083 q 604 1056 562 1080 q 646 983 646 1031 q 614 911 646 936 q 526 872 581 887 l 513 915 q 559 938 543 924 q 576 974 576 952 m 410 958 l 526 795 l 459 795 l 374 899 l 369 899 l 284 795 l 218 795 l 333 958 l 410 958 z "},"ẫ":{"ha":704,"x_min":85,"x_max":598,"o":"m 359 610 q 245 591 300 610 q 150 543 191 572 l 111 609 q 230 665 161 642 q 372 688 298 688 q 544 618 490 688 q 598 419 598 547 l 598 0 l 522 0 l 513 83 l 510 83 q 399 8 449 34 q 286 -17 349 -17 q 182 5 227 -17 q 111 70 136 27 q 85 172 85 113 q 186 346 85 283 q 506 424 288 408 q 474 560 507 509 q 359 610 441 610 m 506 157 l 506 360 q 253 300 330 347 q 177 178 177 253 q 213 88 177 117 q 309 59 249 59 q 403 82 358 59 q 506 157 448 106 m 382 1068 q 412 1048 399 1055 q 439 1042 425 1042 q 475 1057 461 1042 q 494 1103 490 1072 l 545 1103 q 514 1018 541 1051 q 440 985 486 985 q 397 994 416 985 q 355 1019 378 1002 q 326 1039 338 1032 q 299 1046 313 1046 q 262 1030 277 1046 q 243 985 248 1015 l 193 985 q 224 1069 197 1036 q 298 1103 252 1103 q 341 1094 322 1103 q 382 1068 359 1085 m 326 935 l 412 935 l 534 792 l 466 792 l 372 885 l 366 885 l 272 792 l 204 792 l 326 935 z "},"ậ":{"ha":704,"x_min":85,"x_max":598,"o":"m 359 610 q 245 591 300 610 q 150 543 191 572 l 111 609 q 230 665 161 642 q 372 688 298 688 q 544 618 490 688 q 598 419 598 547 l 598 0 l 522 0 l 513 83 l 510 83 q 399 8 449 34 q 286 -17 349 -17 q 182 5 227 -17 q 111 70 136 27 q 85 172 85 113 q 186 346 85 283 q 506 424 288 408 q 474 560 507 509 q 359 610 441 610 m 506 157 l 506 360 q 253 300 330 347 q 177 178 177 253 q 213 88 177 117 q 309 59 249 59 q 403 82 358 59 q 506 157 448 106 m 342 -111 q 389 -129 370 -111 q 408 -176 408 -148 q 389 -225 408 -207 q 342 -244 370 -244 q 294 -225 313 -244 q 275 -176 275 -207 q 294 -129 275 -148 q 342 -111 313 -111 m 380 988 l 511 795 l 441 795 l 344 926 l 338 926 l 241 795 l 172 795 l 302 988 l 380 988 z "},"ắ":{"ha":704,"x_min":85,"x_max":598,"o":"m 359 610 q 245 591 300 610 q 150 543 191 572 l 111 609 q 230 665 161 642 q 372 688 298 688 q 544 618 490 688 q 598 419 598 547 l 598 0 l 522 0 l 513 83 l 510 83 q 399 8 449 34 q 286 -17 349 -17 q 182 5 227 -17 q 111 70 136 27 q 85 172 85 113 q 186 346 85 283 q 506 424 288 408 q 474 560 507 509 q 359 610 441 610 m 506 157 l 506 360 q 253 300 330 347 q 177 178 177 253 q 213 88 177 117 q 309 59 249 59 q 403 82 358 59 q 506 157 448 106 m 502 1089 l 380 935 l 321 935 l 419 1089 l 502 1089 m 252 971 q 289 889 259 922 q 370 855 319 855 q 452 889 422 855 q 488 971 481 922 l 541 971 q 518 889 537 928 q 463 825 500 850 q 370 800 425 800 q 278 825 315 800 q 222 889 241 850 q 199 971 203 928 l 252 971 z "},"ằ":{"ha":704,"x_min":85,"x_max":598,"o":"m 359 610 q 245 591 300 610 q 150 543 191 572 l 111 609 q 230 665 161 642 q 372 688 298 688 q 544 618 490 688 q 598 419 598 547 l 598 0 l 522 0 l 513 83 l 510 83 q 399 8 449 34 q 286 -17 349 -17 q 182 5 227 -17 q 111 70 136 27 q 85 172 85 113 q 186 346 85 283 q 506 424 288 408 q 474 560 507 509 q 359 610 441 610 m 506 157 l 506 360 q 253 300 330 347 q 177 178 177 253 q 213 88 177 117 q 309 59 249 59 q 403 82 358 59 q 506 157 448 106 m 360 935 l 239 1089 l 321 1089 l 419 935 l 360 935 m 252 971 q 289 889 259 922 q 370 855 319 855 q 452 889 422 855 q 488 971 481 922 l 541 971 q 518 889 537 928 q 463 825 500 850 q 370 800 425 800 q 278 825 315 800 q 222 889 241 850 q 199 971 203 928 l 252 971 z "},"ẳ":{"ha":704,"x_min":85,"x_max":598,"o":"m 359 610 q 245 591 300 610 q 150 543 191 572 l 111 609 q 230 665 161 642 q 372 688 298 688 q 544 618 490 688 q 598 419 598 547 l 598 0 l 522 0 l 513 83 l 510 83 q 399 8 449 34 q 286 -17 349 -17 q 182 5 227 -17 q 111 70 136 27 q 85 172 85 113 q 186 346 85 283 q 506 424 288 408 q 474 560 507 509 q 359 610 441 610 m 506 157 l 506 360 q 253 300 330 347 q 177 178 177 253 q 213 88 177 117 q 309 59 249 59 q 403 82 358 59 q 506 157 448 106 m 384 1045 q 361 1088 384 1074 q 288 1105 338 1103 l 295 1155 q 413 1128 371 1153 q 455 1056 455 1104 q 422 983 455 1008 q 333 944 389 958 l 322 987 q 368 1010 351 996 q 384 1045 384 1023 m 250 971 q 286 889 256 922 q 368 855 316 855 q 449 889 419 855 q 486 971 479 922 l 538 971 q 516 889 534 928 q 460 825 497 850 q 368 800 422 800 q 275 825 313 800 q 219 889 238 850 q 197 971 201 928 l 250 971 z "},"ẵ":{"ha":704,"x_min":85,"x_max":598,"o":"m 359 610 q 245 591 300 610 q 150 543 191 572 l 111 609 q 230 665 161 642 q 372 688 298 688 q 544 618 490 688 q 598 419 598 547 l 598 0 l 522 0 l 513 83 l 510 83 q 399 8 449 34 q 286 -17 349 -17 q 182 5 227 -17 q 111 70 136 27 q 85 172 85 113 q 186 346 85 283 q 506 424 288 408 q 474 560 507 509 q 359 610 441 610 m 506 157 l 506 360 q 253 300 330 347 q 177 178 177 253 q 213 88 177 117 q 309 59 249 59 q 403 82 358 59 q 506 157 448 106 m 382 1068 q 412 1048 399 1055 q 439 1042 425 1042 q 475 1057 461 1042 q 494 1103 490 1072 l 545 1103 q 514 1018 541 1051 q 440 985 486 985 q 397 994 416 985 q 355 1019 378 1002 q 326 1039 338 1032 q 299 1046 313 1046 q 262 1030 277 1046 q 243 985 248 1015 l 193 985 q 224 1069 197 1036 q 298 1103 252 1103 q 341 1094 322 1103 q 382 1068 359 1085 m 254 943 q 290 880 261 905 q 369 854 319 854 q 448 880 419 854 q 484 943 477 905 l 538 943 q 491 841 532 883 q 369 800 450 800 q 247 841 288 800 q 200 943 206 883 l 254 943 z "},"ặ":{"ha":704,"x_min":85,"x_max":598,"o":"m 359 610 q 245 591 300 610 q 150 543 191 572 l 111 609 q 230 665 161 642 q 372 688 298 688 q 544 618 490 688 q 598 419 598 547 l 598 0 l 522 0 l 513 83 l 510 83 q 399 8 449 34 q 286 -17 349 -17 q 182 5 227 -17 q 111 70 136 27 q 85 172 85 113 q 186 346 85 283 q 506 424 288 408 q 474 560 507 509 q 359 610 441 610 m 506 157 l 506 360 q 253 300 330 347 q 177 178 177 253 q 213 88 177 117 q 309 59 249 59 q 403 82 358 59 q 506 157 448 106 m 342 -136 q 389 -154 370 -136 q 408 -201 408 -173 q 389 -251 408 -232 q 342 -269 370 -269 q 294 -251 313 -269 q 275 -201 275 -232 q 294 -154 275 -173 q 342 -136 313 -136 m 231 971 q 265 892 237 924 q 341 859 293 859 q 417 892 389 859 q 452 971 446 924 l 512 971 q 490 890 509 929 q 433 825 471 850 q 341 800 396 800 q 249 825 286 800 q 193 890 212 850 q 170 971 174 929 l 231 971 z "},"ẹ":{"ha":682,"x_min":66,"x_max":629,"o":"m 629 375 q 625 317 629 338 l 159 317 q 192 180 162 239 q 275 91 222 122 q 395 59 327 59 q 486 72 444 59 q 567 111 528 85 l 601 47 q 501 0 553 18 q 385 -17 450 -17 q 223 25 296 -17 q 109 146 151 66 q 66 335 66 226 q 107 523 66 443 q 216 646 148 604 q 364 689 283 689 q 561 607 493 689 q 629 375 629 526 m 367 614 q 268 586 313 614 q 194 506 223 558 q 159 381 165 453 l 546 381 q 500 555 546 496 q 367 614 454 614 m 362 -146 q 409 -164 390 -146 q 428 -212 428 -183 q 409 -261 428 -242 q 362 -279 391 -279 q 315 -261 334 -279 q 296 -212 296 -242 q 315 -164 296 -183 q 362 -146 334 -146 z "},"ẻ":{"ha":682,"x_min":66,"x_max":629,"o":"m 629 375 q 625 317 629 338 l 159 317 q 192 180 162 239 q 275 91 222 122 q 395 59 327 59 q 486 72 444 59 q 567 111 528 85 l 601 47 q 501 0 553 18 q 385 -17 450 -17 q 223 25 296 -17 q 109 146 151 66 q 66 335 66 226 q 107 523 66 443 q 216 646 148 604 q 364 689 283 689 q 561 607 493 689 q 629 375 629 526 m 367 614 q 268 586 313 614 q 194 506 223 558 q 159 381 165 453 l 546 381 q 500 555 546 496 q 367 614 454 614 m 397 882 q 280 944 397 939 l 290 1001 q 424 970 375 998 q 472 892 472 943 q 432 810 472 840 q 327 767 392 781 l 315 813 q 375 840 354 825 q 397 882 397 856 z "},"ẽ":{"ha":682,"x_min":66,"x_max":629,"o":"m 629 375 q 625 317 629 338 l 159 317 q 192 180 162 239 q 275 91 222 122 q 395 59 327 59 q 486 72 444 59 q 567 111 528 85 l 601 47 q 501 0 553 18 q 385 -17 450 -17 q 223 25 296 -17 q 109 146 151 66 q 66 335 66 226 q 107 523 66 443 q 216 646 148 604 q 364 689 283 689 q 561 607 493 689 q 629 375 629 526 m 367 614 q 268 586 313 614 q 194 506 223 558 q 159 381 165 453 l 546 381 q 500 555 546 496 q 367 614 454 614 m 387 900 q 422 877 410 884 q 449 869 435 869 q 482 888 470 869 q 500 943 494 907 l 555 943 q 524 844 551 883 q 450 806 497 806 q 404 816 425 806 q 358 846 384 827 q 322 870 337 863 q 293 878 308 878 q 260 860 272 878 q 242 806 248 842 l 186 806 q 218 904 191 865 q 292 943 245 943 q 339 931 318 943 q 387 900 361 920 z "},"ế":{"ha":682,"x_min":66,"x_max":672,"o":"m 629 375 q 625 317 629 338 l 159 317 q 192 180 162 239 q 275 91 222 122 q 395 59 327 59 q 486 72 444 59 q 567 111 528 85 l 601 47 q 501 0 553 18 q 385 -17 450 -17 q 223 25 296 -17 q 109 146 151 66 q 66 335 66 226 q 107 523 66 443 q 216 646 148 604 q 364 689 283 689 q 561 607 493 689 q 629 375 629 526 m 367 614 q 268 586 313 614 q 194 506 223 558 q 159 381 165 453 l 546 381 q 500 555 546 496 q 367 614 454 614 m 672 1044 l 545 888 l 485 888 l 589 1044 l 672 1044 m 406 958 l 522 795 l 455 795 l 370 899 l 365 899 l 280 795 l 214 795 l 329 958 l 406 958 z "},"ề":{"ha":682,"x_min":66,"x_max":629,"o":"m 629 375 q 625 317 629 338 l 159 317 q 192 180 162 239 q 275 91 222 122 q 395 59 327 59 q 486 72 444 59 q 567 111 528 85 l 601 47 q 501 0 553 18 q 385 -17 450 -17 q 223 25 296 -17 q 109 146 151 66 q 66 335 66 226 q 107 523 66 443 q 216 646 148 604 q 364 689 283 689 q 561 607 493 689 q 629 375 629 526 m 367 614 q 268 586 313 614 q 194 506 223 558 q 159 381 165 453 l 546 381 q 500 555 546 496 q 367 614 454 614 m 566 888 l 439 1044 l 522 1044 l 627 888 l 566 888 m 402 958 l 517 795 l 451 795 l 366 899 l 361 899 l 276 795 l 210 795 l 325 958 l 402 958 z "},"ể":{"ha":682,"x_min":66,"x_max":638,"o":"m 629 375 q 625 317 629 338 l 159 317 q 192 180 162 239 q 275 91 222 122 q 395 59 327 59 q 486 72 444 59 q 567 111 528 85 l 601 47 q 501 0 553 18 q 385 -17 450 -17 q 223 25 296 -17 q 109 146 151 66 q 66 335 66 226 q 107 523 66 443 q 216 646 148 604 q 364 689 283 689 q 561 607 493 689 q 629 375 629 526 m 367 614 q 268 586 313 614 q 194 506 223 558 q 159 381 165 453 l 546 381 q 500 555 546 496 q 367 614 454 614 m 568 974 q 545 1016 568 1002 q 471 1034 522 1030 l 478 1083 q 596 1056 554 1080 q 638 983 638 1031 q 606 911 638 936 q 517 872 573 887 l 505 915 q 551 938 535 924 q 568 974 568 952 m 402 958 l 517 795 l 451 795 l 366 899 l 361 899 l 276 795 l 210 795 l 325 958 l 402 958 z "},"ễ":{"ha":682,"x_min":66,"x_max":629,"o":"m 629 375 q 625 317 629 338 l 159 317 q 192 180 162 239 q 275 91 222 122 q 395 59 327 59 q 486 72 444 59 q 567 111 528 85 l 601 47 q 501 0 553 18 q 385 -17 450 -17 q 223 25 296 -17 q 109 146 151 66 q 66 335 66 226 q 107 523 66 443 q 216 646 148 604 q 364 689 283 689 q 561 607 493 689 q 629 375 629 526 m 367 614 q 268 586 313 614 q 194 506 223 558 q 159 381 165 453 l 546 381 q 500 555 546 496 q 367 614 454 614 m 379 1068 q 409 1048 396 1055 q 435 1042 421 1042 q 472 1057 458 1042 q 491 1103 486 1072 l 542 1103 q 510 1018 538 1051 q 437 985 483 985 q 394 994 412 985 q 352 1019 375 1002 q 322 1039 335 1032 q 296 1046 310 1046 q 259 1030 273 1046 q 240 985 245 1015 l 189 985 q 221 1069 193 1036 q 294 1103 248 1103 q 337 1094 319 1103 q 379 1068 356 1085 m 323 935 l 408 935 l 530 792 l 463 792 l 368 885 l 363 885 l 269 792 l 201 792 l 323 935 z "},"ệ":{"ha":682,"x_min":66,"x_max":629,"o":"m 629 375 q 625 317 629 338 l 159 317 q 192 180 162 239 q 275 91 222 122 q 395 59 327 59 q 486 72 444 59 q 567 111 528 85 l 601 47 q 501 0 553 18 q 385 -17 450 -17 q 223 25 296 -17 q 109 146 151 66 q 66 335 66 226 q 107 523 66 443 q 216 646 148 604 q 364 689 283 689 q 561 607 493 689 q 629 375 629 526 m 367 614 q 268 586 313 614 q 194 506 223 558 q 159 381 165 453 l 546 381 q 500 555 546 496 q 367 614 454 614 m 410 988 l 541 795 l 471 795 l 374 926 l 368 926 l 271 795 l 201 795 l 332 988 l 410 988 m 362 -146 q 409 -164 390 -146 q 428 -212 428 -183 q 409 -261 428 -242 q 362 -279 391 -279 q 315 -261 334 -279 q 296 -212 296 -242 q 315 -164 296 -183 q 362 -146 334 -146 z "},"ỉ":{"ha":332,"x_min":81,"x_max":273,"o":"m 212 671 l 212 0 l 119 0 l 119 671 l 212 671 m 198 882 q 81 944 198 939 l 92 1001 q 225 970 176 998 q 273 892 273 943 q 233 810 273 840 q 128 767 193 781 l 116 813 q 177 840 155 825 q 198 882 198 856 z "},"ị":{"ha":332,"x_min":98,"x_max":237,"o":"m 168 -146 q 214 -164 195 -146 q 233 -212 233 -183 q 215 -261 233 -242 q 168 -279 196 -279 q 120 -261 139 -279 q 101 -212 101 -242 q 120 -164 101 -183 q 168 -146 139 -146 m 168 951 q 217 933 197 951 q 237 885 237 915 q 217 838 237 857 q 168 820 197 820 q 118 838 138 820 q 98 885 98 857 q 118 933 98 915 q 168 951 138 951 m 212 671 l 212 0 l 119 0 l 119 671 l 212 671 z "},"ọ":{"ha":749,"x_min":68,"x_max":682,"o":"m 682 335 q 640 146 682 226 q 529 25 599 66 q 374 -17 458 -17 q 220 25 290 -17 q 109 146 150 66 q 68 335 68 226 q 109 526 68 446 q 219 647 150 606 q 374 688 289 688 q 529 647 458 688 q 640 526 599 606 q 682 335 682 446 m 586 335 q 559 479 586 417 q 484 576 532 542 q 374 610 436 610 q 264 576 311 610 q 190 479 216 542 q 163 335 163 417 q 190 192 163 254 q 264 95 216 130 q 374 61 311 61 q 484 95 436 61 q 559 192 532 130 q 586 335 586 254 m 375 954 q 422 935 403 954 q 441 888 441 916 q 422 839 441 857 q 375 820 404 820 q 328 839 347 820 q 309 888 309 857 q 328 935 309 916 q 375 954 347 954 z "},"ỏ":{"ha":749,"x_min":68,"x_max":682,"o":"m 682 335 q 640 146 682 226 q 529 25 599 66 q 374 -17 458 -17 q 220 25 290 -17 q 109 146 150 66 q 68 335 68 226 q 109 526 68 446 q 219 647 150 606 q 374 688 289 688 q 529 647 458 688 q 640 526 599 606 q 682 335 682 446 m 586 335 q 559 479 586 417 q 484 576 532 542 q 374 610 436 610 q 264 576 311 610 q 190 479 216 542 q 163 335 163 417 q 190 192 163 254 q 264 95 216 130 q 374 61 311 61 q 484 95 436 61 q 559 192 532 130 q 586 335 586 254 m 407 882 q 290 944 407 939 l 300 1001 q 434 970 385 998 q 482 892 482 943 q 442 810 482 840 q 337 767 402 781 l 325 813 q 386 840 364 825 q 407 882 407 856 z "},"ố":{"ha":749,"x_min":68,"x_max":682,"o":"m 682 335 q 640 146 682 226 q 529 25 599 66 q 374 -17 458 -17 q 220 25 290 -17 q 109 146 150 66 q 68 335 68 226 q 109 526 68 446 q 219 647 150 606 q 374 688 289 688 q 529 647 458 688 q 640 526 599 606 q 682 335 682 446 m 586 335 q 559 479 586 417 q 484 576 532 542 q 374 610 436 610 q 264 576 311 610 q 190 479 216 542 q 163 335 163 417 q 190 192 163 254 q 264 95 216 130 q 374 61 311 61 q 484 95 436 61 q 559 192 532 130 q 586 335 586 254 m 672 1044 l 545 888 l 485 888 l 589 1044 l 672 1044 m 406 958 l 522 795 l 455 795 l 370 899 l 365 899 l 280 795 l 214 795 l 329 958 l 406 958 z "},"ồ":{"ha":749,"x_min":68,"x_max":682,"o":"m 682 335 q 640 146 682 226 q 529 25 599 66 q 374 -17 458 -17 q 220 25 290 -17 q 109 146 150 66 q 68 335 68 226 q 109 526 68 446 q 219 647 150 606 q 374 688 289 688 q 529 647 458 688 q 640 526 599 606 q 682 335 682 446 m 586 335 q 559 479 586 417 q 484 576 532 542 q 374 610 436 610 q 264 576 311 610 q 190 479 216 542 q 163 335 163 417 q 190 192 163 254 q 264 95 216 130 q 374 61 311 61 q 484 95 436 61 q 559 192 532 130 q 586 335 586 254 m 560 888 l 433 1044 l 516 1044 l 621 888 l 560 888 m 396 958 l 511 795 l 445 795 l 360 899 l 355 899 l 270 795 l 203 795 l 319 958 l 396 958 z "},"ổ":{"ha":749,"x_min":68,"x_max":682,"o":"m 682 335 q 640 146 682 226 q 529 25 599 66 q 374 -17 458 -17 q 220 25 290 -17 q 109 146 150 66 q 68 335 68 226 q 109 526 68 446 q 219 647 150 606 q 374 688 289 688 q 529 647 458 688 q 640 526 599 606 q 682 335 682 446 m 586 335 q 559 479 586 417 q 484 576 532 542 q 374 610 436 610 q 264 576 311 610 q 190 479 216 542 q 163 335 163 417 q 190 192 163 254 q 264 95 216 130 q 374 61 311 61 q 484 95 436 61 q 559 192 532 130 q 586 335 586 254 m 578 974 q 555 1016 578 1002 q 481 1034 532 1030 l 488 1083 q 606 1056 564 1080 q 648 983 648 1031 q 616 911 648 936 q 528 872 583 887 l 515 915 q 562 938 545 924 q 578 974 578 952 m 412 958 l 528 795 l 461 795 l 376 899 l 371 899 l 286 795 l 220 795 l 335 958 l 412 958 z "},"ỗ":{"ha":749,"x_min":68,"x_max":682,"o":"m 682 335 q 640 146 682 226 q 529 25 599 66 q 374 -17 458 -17 q 220 25 290 -17 q 109 146 150 66 q 68 335 68 226 q 109 526 68 446 q 219 647 150 606 q 374 688 289 688 q 529 647 458 688 q 640 526 599 606 q 682 335 682 446 m 586 335 q 559 479 586 417 q 484 576 532 542 q 374 610 436 610 q 264 576 311 610 q 190 479 216 542 q 163 335 163 417 q 190 192 163 254 q 264 95 216 130 q 374 61 311 61 q 484 95 436 61 q 559 192 532 130 q 586 335 586 254 m 390 1068 q 419 1048 407 1055 q 446 1042 432 1042 q 483 1057 469 1042 q 502 1103 497 1072 l 553 1103 q 521 1018 549 1051 q 448 985 494 985 q 405 994 423 985 q 363 1019 386 1002 q 333 1039 346 1032 q 307 1046 321 1046 q 270 1030 284 1046 q 251 985 256 1015 l 200 985 q 232 1069 204 1036 q 305 1103 259 1103 q 348 1094 330 1103 q 390 1068 367 1085 m 334 935 l 419 935 l 541 792 l 473 792 l 379 885 l 374 885 l 279 792 l 212 792 l 334 935 z "},"ộ":{"ha":749,"x_min":68,"x_max":682,"o":"m 682 335 q 640 146 682 226 q 529 25 599 66 q 374 -17 458 -17 q 220 25 290 -17 q 109 146 150 66 q 68 335 68 226 q 109 526 68 446 q 219 647 150 606 q 374 688 289 688 q 529 647 458 688 q 640 526 599 606 q 682 335 682 446 m 586 335 q 559 479 586 417 q 484 576 532 542 q 374 610 436 610 q 264 576 311 610 q 190 479 216 542 q 163 335 163 417 q 190 192 163 254 q 264 95 216 130 q 374 61 311 61 q 484 95 436 61 q 559 192 532 130 q 586 335 586 254 m 414 988 l 545 795 l 475 795 l 377 926 l 372 926 l 274 795 l 205 795 l 335 988 l 414 988 m 376 -146 q 422 -164 404 -146 q 441 -212 441 -183 q 423 -261 441 -242 q 376 -279 404 -279 q 328 -261 347 -279 q 309 -212 309 -242 q 328 -164 309 -183 q 376 -146 347 -146 z "}}}
